<?xml version="1.0" encoding="utf-8"?>
<!-- Generator: Adobe Illustrator 19.2.1, SVG Export Plug-In . SVG Version: 6.00 Build 0)  -->
<svg version="1.1" id="Layer_1" xmlns="http://www.w3.org/2000/svg" xmlns:xlink="http://www.w3.org/1999/xlink" x="0px" y="0px"
	 viewBox="0 0 255.1 155.9" style="enable-background:new 0 0 255.1 155.9;" xml:space="preserve">
<style type="text/css">
	.st0{fill:#B4843D;}
	.st1{stroke:#000000;stroke-miterlimit:10;}
	.st2{fill:#FFFFFF;}
</style>
<g>
	<g>
		<path d="M180.4,122.6c0,1.8-1.5,3.3-3.3,3.3H63.2c-1.8,0-3.3-1.5-3.3-3.3v-14.9c0-1.8,1.5-3.3,3.3-3.3h113.9
			c1.8,0,3.3,1.5,3.3,3.3V122.6z"/>
		<polygon class="st0" points="135,101.5 135,101.5 134.1,101.5 134.1,101.5 134.1,101.5 134.1,101.5 135,101.5 135,101.5 		"/>
		<path class="st1" d="M185.7,94.3c0,3.6-2.9,6.6-6.6,6.6H58.4c-3.6,0-6.6-2.9-6.6-6.6V83.3c0-3.6,2.9-6.6,6.6-6.6h120.8
			c3.6,0,6.6,2.9,6.6,6.6V94.3z"/>
		<path d="M180.3,73.5c0-25-27.7-45.2-61.9-45.2S56.5,48.5,56.5,73.5c0,0,0,0,0,0L180.3,73.5C180.3,73.5,180.3,73.5,180.3,73.5z"/>
		<path class="st2" d="M157.8,61.3c0,0-1.7,3.6-0.7,4.7c1.1,1.2,2.6-0.1,2.5-1.4C159.7,63.7,157.8,61.3,157.8,61.3z"/>
		<path class="st2" d="M123.6,34.2c0,0-1.7,3.6-0.7,4.7c1.1,1.2,2.6-0.1,2.5-1.4C125.4,36.7,123.6,34.2,123.6,34.2z"/>
		<path class="st2" d="M91.9,49.8c0,0-1.7,3.6-0.7,4.7c1.1,1.2,2.6-0.1,2.5-1.4C93.7,52.2,91.9,49.8,91.9,49.8z"/>
		<path class="st2" d="M105,54.4c0,0-1.7,3.6-0.7,4.7c1.1,1.2,2.6-0.1,2.5-1.4C106.9,56.8,105,54.4,105,54.4z"/>
		<path class="st2" d="M133.9,45.2c0,0-1.7,3.6-0.7,4.7c1.1,1.2,2.6-0.1,2.5-1.4C135.7,47.6,133.9,45.2,133.9,45.2z"/>
		<path class="st2" d="M145.4,37.6c0,0-1.7,3.6-0.7,4.7c1.1,1.2,2.6-0.1,2.5-1.4C147.2,40.1,145.4,37.6,145.4,37.6z"/>
		<path class="st2" d="M113.6,37c0,0-3.8,1.3-3.9,2.8c-0.1,1.6,1.9,1.8,2.8,0.8C113.1,40,113.6,37,113.6,37z"/>
		<path class="st2" d="M165.1,53.4c0,0-3.8,1.3-3.9,2.8c-0.1,1.6,1.9,1.8,2.8,0.8C164.6,56.4,165.1,53.4,165.1,53.4z"/>
		<path class="st2" d="M80.9,48.6c0,0-3.8,1.3-3.9,2.8c-0.1,1.6,1.9,1.8,2.8,0.8C80.4,51.6,80.9,48.6,80.9,48.6z"/>
		<path class="st2" d="M86.7,41c0,0-3.4-2-4.6-1.1c-1.3,1-0.1,2.6,1.2,2.7C84.1,42.6,86.7,41,86.7,41z"/>
		<path class="st2" d="M100.5,36.8c0,0-3.4-2-4.6-1.1c-1.2,1-0.1,2.6,1.2,2.7C97.9,38.4,100.5,36.8,100.5,36.8z"/>
		<path class="st2" d="M83.9,61.3c0,0-3.4-2-4.6-1.1c-1.3,1-0.1,2.6,1.2,2.7C81.3,62.9,83.9,61.3,83.9,61.3z"/>
		<path class="st2" d="M145.9,59.7c0,0-3.4-2-4.6-1.1c-1.3,1-0.1,2.6,1.2,2.7C143.3,61.3,145.9,59.7,145.9,59.7z"/>
		<path class="st2" d="M125.3,58.9c0,0-3.4-2-4.6-1.1c-1.3,1-0.1,2.6,1.2,2.7C122.7,60.5,125.3,58.9,125.3,58.9z"/>
		<path class="st2" d="M177.1,94l-0.9-0.6c-6.1-4.4-10.1-7.3-16.4-7.3c-2.4,0-4.6,1.5-7.2,3.1c-3.3,2.1-7,4.6-12,4.6
			c-4.2,0-7.1-1.7-10.2-3.4c-3.3-1.9-7-4-12.6-4.3c-5.6-0.3-10.4,2.2-14.7,4.4c-3.3,1.7-6.4,3.3-9.2,3.3c-2.9,0-5.6-2-8.1-3.9
			c-2.5-1.9-4.9-3.7-7.6-3.7c-7.1,0-14.4,5.8-17.1,8c-0.8,0.6-1,2-0.6,3.1c0.4,1.1,1.4,1.5,2.1,0.9c2.5-2,9.3-7.4,15.6-7.4
			c1.9,0,3.9,1.6,6.1,3.2c2.8,2.1,5.9,4.5,9.6,4.5c3.4,0,6.7-1.7,10.3-3.5c4.2-2.2,8.6-4.4,13.6-4.2c5.1,0.2,8.4,2.1,11.6,4
			c3.2,1.8,6.6,3.7,11.4,3.7c5.7,0,9.9-2.8,13.3-5c2.2-1.5,4.2-2.7,5.9-2.7c5.6,0,9.2,2.6,15,6.8l0.9,0.6c0.8,0.6,1.7,0.1,2.1-1
			C178.2,95.9,177.9,94.6,177.1,94z"/>
		<path class="st2" d="M177.8,86.1l-0.9-0.6c-6.1-4.4-10.1-7.3-16.4-7.3c-2.4,0-4.6,1.5-7.2,3.1c-3.3,2.1-7,4.6-12,4.6
			c-4.2,0-7.1-1.7-10.2-3.4c-3.3-1.9-7-4-12.6-4.3c-5.6-0.3-10.4,2.2-14.7,4.4c-3.3,1.7-6.4,3.3-9.2,3.3c-2.9,0-5.6-2-8.1-3.9
			c-2.5-1.9-4.9-3.7-7.6-3.7c-7.1,0-14.4,5.8-17.1,8c-0.8,0.6-1,2-0.6,3.1c0.4,1.1,1.4,1.5,2.1,0.9c2.5-2,9.3-7.4,15.6-7.4
			c1.9,0,3.9,1.6,6.1,3.2c2.8,2.1,5.9,4.5,9.6,4.5c3.4,0,6.7-1.7,10.3-3.5c4.2-2.2,8.6-4.4,13.6-4.2c5.1,0.2,8.4,2.1,11.6,4
			c3.2,1.8,6.6,3.7,11.4,3.7c5.7,0,9.9-2.8,13.3-5c2.2-1.5,4.2-2.7,5.9-2.7c5.6,0,9.2,2.6,15,6.8l0.9,0.6c0.8,0.6,1.7,0.1,2.1-1
			C178.9,88,178.5,86.7,177.8,86.1z"/>
	</g>
	<g>
		<g>
			<path d="M61,120c1.2,3-1,5.5,1.5,8.1c1.4,1.5,2.6,2.8,3.2,4.8c0.4,1.4,0.3,3.2,1.4,4.2c1.2,1.1,2.9,0.7,3.3-0.9
				c0.2-1-0.5-2-0.3-3c0.1-0.5,1.1-1.8,1.8-1.7c1.1,0.1,1.8,2.5,1.9,3.2c0.1,0.8,0,1.7,0.1,2.6c0.2,1.8,1.3,4.1,3.5,4.1
				c2.1-0.1,3.1-2.3,3.5-4c0.3-1.4,0.2-2.8,0.7-4.1c0.9-2.2,2.3-1.1,2.7,0.5c0.3,0.9,0.3,1.9,0.4,2.8c0.3,2.4,1.1,5.1,3.7,6
				c2.2,0.8,4.3-0.4,4.7-2.7c0.2-1.3-0.1-2.6-0.3-3.8c-0.2-1-0.7-2.4-0.3-3.4c0-0.2,0.1-0.4,0.1-0.6c0.9-0.2,1.7-0.4,2.6-0.6
				c0.3,0.2,0.5,2.9,0.5,2.9c0,0.2,0.1,0.4,0.4,0.5c1.5,0.6,2.6-0.6,3.1-1.9c0.2-0.6,0-1.5,0.4-2.1c1.8-3.3,4-0.4,4.5,1.1
				c0.5,1.7,0.3,3.6,0.6,5.3c0.5,3.1,2.6,10.8,7.2,7.2c1.9-1.5,2-3.8,1.7-6c-0.3-1.7-0.9-3.5-0.7-5.3c0.1-1.4,0.6-2.9,2.1-3.4
				c1.5-0.5,2.5,0.3,2.8,1.9c0.2,1.2-0.1,2.8,1.8,2.5c0.7-0.1,1.3-0.8,1.7-1.3c0.2-0.4,0.3-0.9,0.5-1.3c0.2-1.1,1.1-1.5,2.6-1.1
				c0.3,0.5,0.5,1.1,0.6,1.7c1,3.7-0.6,11.9,4,13.8c2,0.8,4.1-0.2,5.5-1.7c1.8-2,1.9-4.9,2.1-7.5c0.1-1.9,0-4.3,1.1-6
				c0.6-1,2.1-1.7,2.8-0.5c0.2,0.3,0.1,1,0.2,1.4c0.2,1.1,0.6,2.4,2,2.3c1.4-0.1,1.6-1.6,1.9-2.7c0.3-1.2,0.7-3.4,3-0.6
				c0.6,0.7,0.7,2,0.9,2.8c0.5,2.4,0.4,4.7,0.5,7.1c0.1,2.6,0.7,5.8,3.3,7.1c1.9,1,4.1,0.4,5.7-1c2.2-2.1,2.4-5.3,2.3-8.1
				c-0.1-1.8-0.8-5.1,0.5-6.5c2.8-3.2,2.8,1.1,3,1.9c0.2,0.7,0.3,1,0.6,1.7c0.1,0.1,0.3,0.3,0.4,0.2c1.1-0.1,1.7-0.6,2.2-1.7
				c0.3-0.7,0.3-1.3,0.4-2.1c0.1-1.1,0.8-2.2,2-2.5c1.7-0.4,1.9,2.9,2,3.8c0.2,3.2,0.2,7.5,4,8.5c2.9,0.8,4.6-1.5,5-4
				c0.4-2.5,0.1-5.2,0.1-7.8c0-2.9,0-5.7,0-8.6c0-0.6-1-0.6-1,0c0,2.9,0,5.7,0,8.6c0,2.6,0.4,5.7-0.2,8.3c-0.8,2.9-3.8,3.4-5.6,1.1
				c-1.1-1.4-1.2-3.2-1.3-4.9c-0.1-1.6,0.1-3.5-1-4.9c-1.9-2.3-4.5-1-4.9,1.6c-0.1,0.4,0,1-0.1,1.3c0,0.2,0,0.4-0.1,0.6
				c-1.3,0.4-1.8,0.2-1.7-0.9c-0.2-0.5-0.2-1-0.5-1.5c-0.6-0.9-1.5-1.5-2.5-1.1c-3.5,1.2-2.3,7.3-2.2,9.9c0.1,2.9-0.8,6.8-4.2,7.4
				c-5,0.9-5-5.8-5-8.9c-0.1-2.8-0.1-8.8-3.4-9.9c-0.8-0.3-1.6,0-2.2,0.6c-0.4,0.5-0.6,1.1-0.7,1.7c-0.1,0.3-0.1,0.7-0.2,1
				c-0.7,1.1-1.3,0.6-1.7-0.2c-0.7-1.4-0.4-4.8-3.1-3.4c-3.5,1.9-2.7,7.9-3.2,11.1c-0.2,1.8-0.7,3.5-2.1,4.7
				c-1.6,1.5-4.1,1.5-5.4-0.4c-1.4-2.1-1.1-5.1-1.4-7.5c-0.2-1.9-0.3-8.3-3.7-7.7c-1.1,0.2-1.5,1.1-1.9,2c-0.4,0.9-0.3,2.4-1.6,1.8
				c-1.1-0.5-0.4-0.2-0.6-1.2c-0.1-0.6,0-1-0.4-1.5c-1.4-2-4.5-1.3-5.7,0.5c-0.8,1.2-0.9,2.8-0.8,4.2c0.2,2.3,2.5,8.4-1.1,9.4
				c-1,0.3-2.9-0.9-3.4-1.6c-0.4-0.6-0.7-1.6-0.9-2.2c-0.4-1.1-0.6-2.1-0.8-3.2c-0.3-2.2,0-4.8-1.2-6.8c-1.5-2.4-4.9-2.5-5.8,0.3
				c-0.1,0.4-0.1,1-0.2,1.4c-0.2,0.5-1.1,1.9-1.7,1.5c-0.4-0.3-0.3-2.5-0.7-3c-0.6-1-1.6-1.2-2.6-0.7c-4.1,1.9-0.1,7.6-1.2,10.5
				c-1.6,4.1-5.2,0.4-5.9-1.6c-0.4-1.2-0.4-2.5-0.6-3.7c-0.3-1.8-0.8-3.2-2.3-4.3c-0.2-0.1-0.4-0.1-0.5,0c-1.5,0.8-2.1,2.2-2.4,3.8
				c-0.2,1-0.2,2.1-0.4,3.1c-0.2,0.7-0.4,1.5-0.9,2c-1.5,1.6-3.2,0.6-3.8-1c-0.8-2.3,0.3-8.7-4.3-7.9c-1.2,0.2-1.8,1.1-1.8,2.3
				c0,0.5,0.6,2.7,0.4,2.8c-0.7-0.1-1.4-0.2-2.1-0.3c-0.1-0.3-0.1-0.6-0.2-0.8c-0.2-0.6-0.2-1.3-0.4-1.9c-0.6-2-1.8-3.5-3.3-5
				c-2.5-2.5-0.4-5.1-1.5-7.9C61.7,119.1,60.7,119.4,61,120L61,120z"/>
		</g>
	</g>
	<g>
		<g>
			<path d="M62.7,124.5c-0.6-0.8-1.1-1.5-1.7-2.3c-0.3-0.4-0.9-0.3-0.9,0.3c-0.1,0.8,0,1.4,0.2,2.2c0.3-0.1,0.6-0.3,0.9-0.4
				c-0.1-0.3-0.3-0.7-0.4-1c-0.2-0.6-1-0.1-0.9,0.4c0.9,4.8,6.7,6.9,7.1,11.8c0.1,0.6,1,0.7,1,0c0-1.5-0.2-2.8-0.6-4.2
				c-0.2-0.6-1.1-0.4-1,0.3c0.3,1.8,0.9,3.5,1.7,5.1c0.2,0.5,0.9,0.2,0.9-0.3c0-2.2-0.4-4.2-1.3-6.1c-0.2-0.5-0.9-0.2-0.9,0.3
				c-0.1,1.4,0.2,2.6,0.7,3.9c0.2,0.5,0.9,0.2,0.9-0.3c0.1-1.2,0-2.2-0.4-3.3c-0.2-0.6-1.1-0.4-1,0.3c0.4,1.4,0.8,2.8,1.3,4.2
				c0.2,0.6,1.1,0.4,1-0.3c-0.3-1.4-0.6-2.9-1-4.3c-0.1-0.6-1-0.4-1,0.1c0,1.5,0.2,2.8,0.8,4.2c0.2,0.5,1,0.5,1-0.1
				c0-0.8,0-1.7,0-2.5c-0.3,0-0.7,0-1,0c0.1,1.2,0.4,2.4,0.8,3.5c0.2,0.6,1.1,0.4,1-0.3c-0.1-0.8-0.2-1.6-0.4-2.5
				c-0.1-0.5-0.9-0.5-1,0c-0.2,0.9-0.2,1.4,0.1,2.3c0.2,0.5,1,0.5,1-0.1c-0.2-2.5-0.5-4.9-1-7.3c-0.1-0.5-1-0.4-1,0.1
				c0.1,0.8,0.2,1.5,0.2,2.3c0.1,0.6,1,0.7,1,0c0.1-1.5,0-2.9-0.3-4.4c-0.1-0.5-1.1-0.4-1,0.1c0.2,1.7,0.4,3.4,0.6,5.1
				c0.1,0.6,1,0.7,1,0c0.1-2.8-0.1-5.6-0.5-8.4c-0.1-0.6-1-0.4-1,0.1c0.2,2.1,0.5,4.2,0.9,6.4c0.1,0.6,1.1,0.4,1-0.3
				c-0.4-2-0.7-4-0.9-6.1c-0.3,0-0.7,0.1-1,0.1c0.4,2.7,0.5,5.4,0.5,8.1c0.3,0,0.7,0,1,0c-0.2-1.7-0.4-3.4-0.6-5.1
				c-0.3,0-0.7,0.1-1,0.1c0.3,1.4,0.3,2.7,0.3,4.2c0.3,0,0.7,0,1,0c-0.1-0.8-0.2-1.5-0.2-2.3c-0.3,0-0.7,0.1-1,0.1
				c0.4,2.3,0.7,4.7,0.9,7c0.3,0,0.7-0.1,1-0.1c0-0.6-0.1-1.2-0.1-1.7c-0.3,0-0.6,0-1,0c0.1,0.8,0.2,1.6,0.4,2.5
				c0.3-0.1,0.6-0.2,1-0.3c-0.4-1.1-0.6-2.1-0.7-3.3c-0.1-0.6-1-0.7-1,0c0,0.8,0,1.7,0,2.5c0.3,0,0.7-0.1,1-0.1
				c-0.5-1.3-0.8-2.5-0.8-3.9c-0.3,0-0.7,0.1-1,0.1c0.3,1.4,0.6,2.9,1,4.3c0.3-0.1,0.6-0.2,1-0.3c-0.5-1.4-1-2.7-1.3-4.2
				c-0.3,0.1-0.6,0.2-1,0.3c0.3,1,0.4,2,0.3,3.1c0.3-0.1,0.6-0.2,0.9-0.3c-0.5-1.1-0.7-2.2-0.6-3.4c-0.3,0.1-0.6,0.2-0.9,0.3
				c0.8,1.8,1.2,3.6,1.2,5.6c0.3-0.1,0.6-0.2,0.9-0.3c-0.8-1.6-1.3-3.2-1.6-4.9c-0.3,0.1-0.6,0.2-1,0.3c0.4,1.3,0.6,2.6,0.6,4
				c0.3,0,0.7,0,1,0c-0.5-5.2-6.3-7.2-7.2-12.1c-0.3,0.1-0.6,0.3-0.9,0.4c0.1,0.3,0.3,0.7,0.4,1c0.2,0.5,1.1,0.1,0.9-0.4
				c-0.3-0.6-0.3-1.3-0.2-1.9c-0.3,0.1-0.6,0.2-0.9,0.3c0.6,0.8,1.1,1.5,1.7,2.3C62.2,125.5,63,125,62.7,124.5L62.7,124.5z"/>
		</g>
	</g>
	<g>
		<g>
			<path d="M69,120.7c-1.1-1.4-2.7-2-4.1-0.6c-2,1.9-0.6,4.9,0.9,6.6c1.1,1.2,2.8,0.4,3.3-0.9c0.8-2.1,0.1-3.5-1.6-4.8
				c-1-0.7-2.8,0-2.9,1.2c-0.4,2.8-0.1,4.7,1.3,7.1c1,1.7,3.8,1,3.7-1c-0.1-2.4-0.6-4.3-1.7-6.4c-0.8-1.5-3.3-1.2-3.7,0.5
				c-0.7,2.8-0.1,4.7,1.6,7c1.2,1.5,3.2,0.1,3.4-1.4c0.3-2.9-0.6-5.2-2.8-7c-1.3-1.1-3.4-0.4-3.4,1.4c0,2.5,0.6,4.2,2.3,6.1
				c1.3,1.5,4.1-0.1,3.3-1.9c-0.8-2-1.6-3.1-3.3-4.3c-1.6-1.2-3.2,0.8-2.9,2.3c0.3,2.1,1.1,3.4,2.4,5c1.3,1.5,4.1-0.1,3.3-1.9
				c-0.7-1.8-1.5-3.1-2.7-4.5c-1.2-1.4-3.3-0.2-3.4,1.4c-0.1,1.7,0.4,2.8,1.6,4c1.6,1.5,4.4-0.4,3.1-2.4c-0.6-1-1.3-2.1-1.9-3.1
				c-0.8-1.3-3.4-1.3-3.7,0.5c-0.3,1.6-0.5,2.3,0.5,3.6c1.1,1.4,3.3,1.2,3.5,3.6c0.1,1.9,2.7,2.9,3.7,1c0.5-0.9,1-1.9,1.5-2.8
				c-1,0.1-2.1,0.3-3.1,0.4c0.2,0.4,0.4,0.8,0.6,1.2c0.7,2.5,4.3,1.4,3.9-1.1c0.1-0.8,0.3-1.6,0.4-2.4c-0.8,0.1-1.6,0.2-2.4,0.3
				c-0.3-0.6-0.4-0.6-0.1,0.1c0.1,0.6,0.2,1.2,0.4,1.8c0.5,2.2,3.9,1.7,3.9-0.5c0-1.5-0.1-2.1-0.4-3.6c-1.3,0.4-2.6,0.7-3.9,1.1
				c0.4,1,0.7,2,1.1,3c0.7,1.9,3.2,1.9,3.9,0c0.4-1,0.4-1.3,0.4-2.3c-1.2,0.3-2.5,0.7-3.7,1c0.2,0.3,0.3,0.5,0.5,0.8
				c1,1.7,3.7,1,3.7-1c0.1-0.5,0.1-1,0.2-1.5c-1.3,0-2.6,0-3.9,0c0.2,0.8,0.4,1.5,0.6,2.3c0.6,2.2,3.9,1.7,3.9-0.5
				c0-0.8,0-1.6,0-2.4c-1.3,0.2-2.6,0.4-3.9,0.5c0.2,0.7,0.5,1.5,0.7,2.2c0.7,2.1,3.8,1.8,3.9-0.5c0.1-0.9,0.1-1.8,0.2-2.8
				c-1.3,0.2-2.6,0.4-3.9,0.5c0.2,1.1,0.4,2.3,0.7,3.4c0.5,2.4,3.7,1.5,3.9-0.5c0.3-1.2,0.3-2.5,0.2-3.7c-1.3,0.2-2.6,0.4-3.9,0.5
				c0.2,1.2,0.6,2.3,1,3.4c0.7,2.2,3.7,1.7,3.9-0.5c0.1-1.6,0.2-3,0.1-4.6c-1.3,0.2-2.6,0.4-3.9,0.5c0.4,1.9,0.8,3.7,1.2,5.6
				c0.5,2.2,4,1.7,3.9-0.5c0-1,0-2.1-0.1-3.1c-1.3,0.2-2.6,0.4-3.9,0.5c0.3,0.8,0.5,1.6,0.8,2.4c0.7,2.1,3.9,1.8,3.9-0.5
				c0-1.2,0-2.3,0.1-3.5c-1.3,0.2-2.6,0.4-3.9,0.5c0.6,1.6,1,3.2,1.1,4.9c0.3,2.5,3.8,2.6,4,0c0.1-1.5,0.2-3,0.3-4.4
				c-1.3,0.2-2.6,0.4-3.9,0.5c0.4,0.9,0.7,1.8,1.1,2.7c0.8,2.1,3.8,1.8,3.9-0.5c0.1-1.4,0.2-2.9,0.3-4.3c-1.3,0.2-2.6,0.4-3.9,0.5
				c0.4,1.4,0.8,2.7,1.2,4.1c0.8,2.5,4.2,1.4,3.9-1.1c-0.1-0.6-0.2-1.2-0.3-1.8c-0.3-2.2-4.1-1.7-3.9,0.5c0.1,1.1,0.2,2.2,0.3,3.3
				c1.3-0.2,2.6-0.4,3.9-0.5c-0.3-1.1-0.5-2.2-0.8-3.3c-0.5-2.2-4-1.7-3.9,0.5c0,0.9,0,1.7,0.1,2.6c1.3-0.2,2.6-0.4,3.9-0.5
				c-0.1-0.4-0.2-0.9-0.3-1.3c-1.1,0.6-2.2,1.3-3.3,1.9c0.3,0.3,0.6,0.6,1,1c0.7,0.7,2.1,0.8,2.8,0c0.3-0.3,0.6-0.7,0.9-1
				c-1.1-0.3-2.2-0.6-3.3-0.9c0.3,1,0.7,2,1,3c0.7,2.1,3.9,1.8,3.9-0.5c0-0.9,0-1.8,0-2.8c-1.3,0.2-2.6,0.4-3.9,0.5
				c0.4,1.5,0.7,2.1,1.4,3.5c0.8,1.7,4,1,3.7-1c-0.2-1.6-0.4-3.3-0.6-4.9c-1.3,0.2-2.6,0.4-3.9,0.5c0.5,2.2,1,4.2,1.8,6.3
				c0.7,2,4.2,1.8,3.9-0.5c-0.2-2.2-0.5-4.4-0.7-6.6c-1.3,0.2-2.6,0.4-3.9,0.5c0.8,3.1,1.5,6.2,2.1,9.4c0.4,2.2,4,1.7,3.9-0.5
				c-0.1-1.3-0.1-2.6-0.2-3.9c-0.1-2.6-4.1-2.6-4,0c0.1,1.3,0.1,2.6,0.2,3.9c1.3-0.2,2.6-0.4,3.9-0.5c-0.6-3.2-1.3-6.3-2.1-9.4
				c-0.5-2.1-4.2-1.8-3.9,0.5c0.2,2.2,0.5,4.4,0.7,6.6c1.3-0.2,2.6-0.4,3.9-0.5c-0.7-2.1-1.3-4.2-1.8-6.3c-0.5-2.2-4.2-1.7-3.9,0.5
				c0.2,1.6,0.4,3.3,0.6,4.9c1.2-0.3,2.5-0.7,3.7-1c-0.3-0.8-0.6-1.7-1-2.5c-0.6-2.1-3.9-1.8-3.9,0.5c0,0.9,0,1.8,0,2.8
				c1.3-0.2,2.6-0.4,3.9-0.5c-0.3-1-0.7-2-1-3c-0.5-1.3-2.3-2.1-3.3-0.9c-0.3,0.3-0.6,0.7-0.9,1c0.9,0,1.9,0,2.8,0
				c-0.3-0.3-0.6-0.6-1-1c-1.5-1.5-3.7,0.1-3.3,1.9c0.1,0.4,0.2,0.9,0.3,1.3c0.4,2.2,4,1.7,3.9-0.5c0-0.9,0-1.7-0.1-2.6
				c-1.3,0.2-2.6,0.4-3.9,0.5c0.3,1.1,0.5,2.2,0.8,3.3c0.5,2.1,4.1,1.7,3.9-0.5c-0.1-1.1-0.2-2.2-0.3-3.3c-1.3,0.2-2.6,0.4-3.9,0.5
				c0.1,0.6,0.2,1.2,0.3,1.8c1.3-0.4,2.6-0.7,3.9-1.1c-0.4-1.4-0.8-2.7-1.2-4.1c-0.7-2.2-3.8-1.7-3.9,0.5c-0.1,1.4-0.2,2.9-0.3,4.3
				c1.3-0.2,2.6-0.4,3.9-0.5c-0.4-0.9-0.7-1.8-1.1-2.7c-0.8-2.1-3.8-1.8-3.9,0.5c-0.1,1.5-0.2,3-0.3,4.4c1.3,0,2.7,0,4,0
				c-0.2-2.1-0.6-3.9-1.3-5.9c-0.7-2.1-3.9-1.8-3.9,0.5c0,1.2,0,2.3-0.1,3.5c1.3-0.2,2.6-0.4,3.9-0.5c-0.3-0.8-0.5-1.6-0.8-2.4
				c-0.7-2.1-4-1.8-3.9,0.5c0,1,0,2.1,0.1,3.1c1.3-0.2,2.6-0.4,3.9-0.5c-0.4-1.9-0.8-3.7-1.2-5.6c-0.5-2.2-4-1.7-3.9,0.5
				c0.1,1.6,0,3-0.1,4.6c1.3-0.2,2.6-0.4,3.9-0.5c-0.4-1.1-0.8-2.2-1-3.4c-0.5-2.2-4-1.7-3.9,0.5c0.1,1.2,0,2.5-0.2,3.7
				c1.3-0.2,2.6-0.4,3.9-0.5c-0.2-1.1-0.4-2.3-0.7-3.4c-0.5-2.3-3.8-1.6-3.9,0.5c-0.1,0.9-0.1,1.8-0.2,2.8c1.3-0.2,2.6-0.4,3.9-0.5
				c-0.2-0.7-0.5-1.5-0.7-2.2c-0.7-2.1-3.9-1.8-3.9,0.5c0,0.8,0,1.6,0,2.4c1.3-0.2,2.6-0.4,3.9-0.5c-0.2-0.8-0.4-1.5-0.6-2.3
				c-0.5-2-3.3-1.8-3.9,0c-0.3,1-0.4,1.4-0.4,2.5c1.2-0.3,2.5-0.7,3.7-1c-0.2-0.3-0.3-0.5-0.5-0.8c-1-1.6-3.8-1-3.7,1
				c-0.1,0.4-0.1,0.9-0.2,1.3c1.3,0,2.6,0,3.9,0c-0.4-1-0.7-2-1.1-3c-0.9-2.4-4.3-1.5-3.9,1.1c0.1,0.8,0.1,1.7,0.2,2.5
				c1.3-0.2,2.6-0.4,3.9-0.5c-0.3-1.6-0.4-3.5-2-4.3c-0.9-0.4-1.7-0.3-2.4,0.3c-1.8,1.6-1.8,4.1-1.4,6.3c1.3-0.4,2.6-0.7,3.9-1.1
				c-0.4-1.4-0.7-1.9-1.7-3c-0.8-1-2.6-0.7-3.1,0.4c-0.5,0.9-1,1.9-1.5,2.8c1.2,0.3,2.5,0.7,3.7,1c-0.1-1.6-0.2-3.1-1.3-4.3
				c-0.3-0.4-2.9-1.9-2.9-1.8c-1.2,0.2-2.4,0.3-3.7,0.5c0.6,1,1.3,2.1,1.9,3.1c1-0.8,2.1-1.6,3.1-2.4c-0.2-0.4-0.3-0.8-0.5-1.1
				c-1.1,0.5-2.3,0.9-3.4,1.4c0.6,0.9,1.1,1.8,1.7,2.7c1.1-0.6,2.2-1.3,3.3-1.9c-0.5-1.1-0.9-2.2-1.4-3.3c-1,0.8-2,1.5-2.9,2.3
				c0.5,0.6,1,1.3,1.5,1.9c1.1-0.6,2.2-1.3,3.3-1.9c-0.4-1.1-0.7-2.2-1.1-3.2c-1.1,0.5-2.3,0.9-3.4,1.4c1.5,1.1,2.1,2.5,1.6,4.2
				c1.1-0.5,2.3-0.9,3.4-1.4c-0.2-1-0.4-2-0.6-3.1c-1.2,0.2-2.4,0.3-3.7,0.5c0.9,1.3,1.3,2.8,1.2,4.4c1.2-0.3,2.5-0.7,3.7-1
				c-0.3-1.4-0.6-2.7-0.9-4.1c-1,0.4-2,0.8-2.9,1.2c-0.1,0.1-0.1,0.2-0.2,0.3c1.1-0.3,2.2-0.6,3.3-0.9c-1-0.4-2-0.8-3-1.2
				C67.1,124.7,70.5,122.7,69,120.7L69,120.7z"/>
		</g>
	</g>
	<g>
		<g>
			<path d="M78,128.3c-0.6,1.6-1.1,3.2-1.3,4.9c-0.1,0.7,0.4,3.8-0.2,4.2c0.6-0.2,1.3-0.3,1.9-0.5c-0.2,0-0.5-0.1-0.7-0.1
				c0.5,0.5,0.9,0.9,1.4,1.4c-1.2-3-2.1-6-2.8-9.1c-1,0.8-2,1.5-2.9,2.3c1,0.3,1.9,0.8,2.7,1.6c0.9,0.7,2.8,0,2.9-1.2
				c1.2-0.9,2.5-1.1,3.8-0.6c1.7,0.6,2.3,1.7,1.9,3.1c0.3,0.9,0.2,1.9,0.5,2.9c0.7,2.1,2.2,3.6,4,4.8c1.1,0.8,2.5,0,2.9-1.2
				c0.7-2.1,0.3-3.5-0.1-5.6c-0.6-3-0.8-6.2-0.1-9.2c-1.3,0-2.6,0-3.9,0c0.4,1.2,0.6,2.4,0.4,3.7c-0.1,2.3,3.2,2.6,3.9,0.5
				c0.2-0.2,0.4-0.4,0.7-0.6c-0.8-0.8-1.6-1.6-2.5-2.5c-0.1,0.3-0.2,0.6-0.3,0.9c-0.4,1.3,0.7,2.5,1.9,2.5c0.9,0.7,1.8,1.4,2.7,2.1
				c0.7,2.2,3.7,1.7,3.9-0.5c-0.1-1.1,0.3-2.1,1-3c1.6-2-1.9-4-3.5-2c-1.2,1.5-1.4,3.1-1.6,5c1.3-0.2,2.6-0.4,3.9-0.5
				c-1-3.3-3.2-4.9-6.5-5.1c0.6,0.8,1.3,1.7,1.9,2.5c0.1-0.3,0.2-0.6,0.3-0.9c0.4-1.4-1-2.9-2.5-2.5c-1.9,0.6-2.8,1.5-3.4,3.4
				c1.3,0.2,2.6,0.4,3.9,0.5c0.1-1.7-0.1-3.1-0.6-4.8c-0.5-1.9-3.4-1.9-3.9,0c-0.5,2.2-0.6,4.4-0.6,6.6c0.1,2.4,1.6,6,0.8,8.2
				c1-0.4,2-0.8,2.9-1.2c-3.4-2.3-1.6-4.8-2.9-7.8c-0.7-1.7-2.2-2.6-4-3.3c-3.5-1.3-8.6-1.4-9.2,3.2c1-0.4,2-0.8,2.9-1.2
				c-0.8-0.7-1.7-1.3-2.7-1.6c-1.6-0.7-3.3,0.4-2.9,2.3c0.6,2.6,1.5,11.5,5.8,10.7c1.3-0.2,2-1.2,2.4-2.4c0.3-0.8,0-1.7,0-2.6
				c0-2.4,0.4-4.3,1.2-6.5C82.8,126.9,78.9,125.9,78,128.3L78,128.3z"/>
		</g>
	</g>
	<g>
		<g>
			<path d="M98.1,127.2c-0.5-2.1-2.4-3.2-4.5-2.5c-2.1,0.7-1.8,3.9,0.5,3.9c0.5,0,1.1,0,1.6,0c-0.7-0.7-1.3-1.3-2-2
				c0-1.2-0.4-0.3-0.7,0.5c-0.5,1-0.3,1.9-0.1,3c0.3,1.6,0.7,4.4,2.7,4.9c1.8,0.4,2.8-1,3.2-2.4c0.2-0.7,0-1.2,0.4-2
				c0.1-1.3,0.7-1.5,2-0.6c1.1-0.2,1.8,0.2,2,1.1c0.9,1.3,1.2,3.7,1.5,5.1c0.6,2.3,2.5,11.2,7,7.9c1.7-1.3,1-4,0.8-5.7
				c-0.4-3.9-0.9-7.8-1.4-11.7c-0.3-2.5-4.3-2.6-4,0c0.3,2.9,0.7,5.7,1,8.6c0.1,1,1.2,5.3,0.7,6.2c0.6-0.3,1.2-0.7,1.7-1
				c-1.1,0.1-2.6-8.2-3-9.4c-0.7-2.3-2-4.6-4.3-5.6c-1.9-0.9-4.2-0.6-5.9,0.7c-2.4,1.8-1.9,3.9-2.8,6.3c0.5-0.5,0.9-0.9,1.4-1.4
				c1.4-0.5,0.6-0.1,0.8-1.3c-0.2-0.2-0.4-0.4-0.5-0.6c0.2-0.1,0.4-0.3,0.6-0.5c0.3-0.7,0.8-1,0.8-1.9c0-1.1-0.9-2-2-2
				c-0.5,0-1.1,0-1.6,0c0.2,1.3,0.4,2.6,0.5,3.9c-0.2-0.1-0.3-0.2-0.5-0.3C94.8,130.8,98.7,129.7,98.1,127.2L98.1,127.2z"/>
		</g>
	</g>
	<g>
		<g>
			<path d="M109.1,130.3c-0.8-1.5-1.3-3-1.8-4.7c-0.7-2.5-4.5-1.4-3.9,1.1c0.5,1.9,1.3,3.8,2.2,5.6
				C106.8,134.6,110.2,132.5,109.1,130.3L109.1,130.3z"/>
		</g>
	</g>
	<g>
		<g>
			<path d="M92.1,128.2c-2.3,0.6-3.6,1.7-4.3,3.9c-0.4,1.2-0.9,2.4-1,3.7c-0.1,1.3,0.5,2.4,0,3.6c-0.9,2.4,2.9,3.4,3.9,1.1
				c1-2.5-1-7.5,2.5-8.4C95.7,131.4,94.6,127.6,92.1,128.2L92.1,128.2z"/>
		</g>
	</g>
	<g>
		<g>
			<path d="M98.9,132.1c2.8-4.2,4.9,2.9,5.3,4.7c0.6,2.4,1.4,4.7,3.4,6.3c2,1.6,4.8-1.2,2.8-2.8c-3.5-3-2.2-8.7-5.8-11.8
				c-3.1-2.7-7.1-1.6-9.2,1.6C94,132.2,97.5,134.2,98.9,132.1L98.9,132.1z"/>
		</g>
	</g>
	<g>
		<g>
			<path d="M109.4,127.9c0.4,0.7,0.4,1.3,0,2c1.3,0.2,2.6,0.4,3.9,0.5c0-0.5-0.1-0.9-0.2-1.4c0.2-1.2,0.3-2.4,0.5-3.7
				c-0.8,0.3-1.3,0.6-1.8,1.3c-1.1,1.6,1.1,3.9,2.7,2.7c2-1.5,2.7,0.7,2.9,2.3c0.4,2.4,3.7,1.5,3.9-0.5c0.2-1.6,2.5-1.8,3.7-2
				c2.4-0.4,1.5-3.7-0.5-3.9c-2.1-0.3-6.1-1.7-7.6,0.2c-1.6,2,1.2,4.8,2.8,2.8c0.1-0.1,0.2-0.2,0.3-0.3c-0.5,0.2-0.9,0.4-1.4,0.6
				c1.9-0.2,4.1,0.4,5.9,0.7c-0.2-1.3-0.4-2.6-0.5-3.9c-3.5,0.6-6.2,2.1-6.6,5.8c1.3-0.2,2.6-0.4,3.9-0.5c-0.6-4.3-4.7-7.8-8.8-4.7
				c0.9,0.9,1.8,1.8,2.7,2.7c0.1-0.1,0.1-0.2,0.2-0.3c-0.4,0.3-0.8,0.6-1.2,0.9c0.1,0,0.2-0.1,0.4-0.1c1.5-0.5,2.1-2.8,0.5-3.7
				c-3.6-1.9-6,1.4-5.8,4.8c0.1,2.3,3.1,2.6,3.9,0.5c0.5-1.4,0.5-2.7,0-4.1C112.3,124.5,108.4,125.5,109.4,127.9L109.4,127.9z"/>
		</g>
	</g>
	<g>
		<g>
			<path d="M127.2,127.7c-0.4-0.2-0.7-0.5-1.1-0.7c-0.2,1.2-0.3,2.4-0.5,3.7c2.1-0.6,2.3-1.8,2.9-3.6c-0.6,0.5-1.3,1-1.9,1.5
				c-0.1,0-0.1-0.1-0.2-0.1c1.7,1.5,4.2-0.4,3.1-2.4c-0.1-0.1-0.1-0.3-0.2-0.4c-1,0.8-2.1,1.6-3.1,2.4c1.9,2.1,3.6,1,5.5-0.4
				c-0.7,0-1.3,0-2,0c-0.8-0.4,0.1,0.8,0.5,1.2c0.3,0.3,0.9,0.6,1.4,0.7c1.6,0.3,2.7-1.2,3.8-2.2c-1.1-0.3-2.2-0.6-3.3-0.9
				c0,0.5,0.2,1.1,0.3,1.6c0.4,1.6,2.2,1.8,3.3,0.9c0.6-0.5,1.1-0.9,1.7-1.4c-1.1-0.5-2.3-0.9-3.4-1.4c-0.1,0.6-0.3,1.2-0.4,1.8
				c-0.6,1.9,2,3.4,3.3,1.9c0.3-0.3,0.5-0.6,0.8-0.9c-1.1-0.6-2.2-1.3-3.3-1.9c-0.6,1.9-1.9,3.1-2.3,5.2c-0.4,2.2,0,4.4-0.3,6.5
				c0,0.3,0,0.7,0,1c-0.9,2.2-1.4,2.7-1.5,1.2c-0.6-0.7-0.5-2.5-0.7-3.5c-0.6-3.1-0.9-6.2-0.9-9.3c0-2.6-4-2.6-4,0
				c-0.1,4.6,0.6,9.4,1.7,13.9c0.6,2.5,2,4.6,4.9,4.1c2.6-0.5,4-2.9,4.3-5.4c0.3-2.4-0.1-4.8,0.3-7.1c0.3-2.1,1.7-3.5,2.3-5.5
				c0.6-1.9-2-3.4-3.3-1.9c-0.3,0.3-0.5,0.6-0.8,0.9c1.1,0.6,2.2,1.3,3.3,1.9c0.4-1.2,0.4-1.6,0.5-2.9c0.1-1.9-2.2-2.4-3.4-1.4
				c-0.6,0.5-1.1,0.9-1.7,1.4c1.1,0.3,2.2,0.6,3.3,0.9c-0.2-0.5-0.3-1.1-0.3-1.6c-0.2-1.6-2.4-1.8-3.3-0.9c-0.5,0.4-0.9,0.9-1.4,1.3
				c0.7,0,1.3,0,2,0c0.5,0.2,0.3-0.1-0.2-0.7c-0.4-0.4-0.7-0.7-1.2-0.9c-0.6-0.3-1.4-0.4-2,0c-0.3,0.2-1.1,0.6-0.7,1
				c-1.6-1.7-4.1,0.5-3.1,2.4c0.1,0.1,0.1,0.3,0.2,0.4c1-0.8,2.1-1.6,3.1-2.4c-0.9-0.8-1.4-1.2-2.6-1.1c-0.9,0.1-1.7,0.6-1.9,1.5
				c-0.1,0.2-0.3,0.9-0.1,0.8c-1.7,0.5-1.9,2.7-0.5,3.7c0.4,0.2,0.7,0.5,1.1,0.7C127.4,132.6,129.4,129.1,127.2,127.7L127.2,127.7z"
				/>
		</g>
	</g>
	<g>
		<g>
			<path d="M127.2,128.6c-0.2,4.6,0.3,9.1,1.6,13.5c0.6,2.1,4,1.8,3.9-0.5c-0.1-4.6,0.7-8.5,1.9-12.9c0.7-2.5-3.2-3.6-3.9-1.1
				c-1.3,4.8-2.2,9-2,14c1.3-0.2,2.6-0.4,3.9-0.5c-1.2-4.1-1.7-8.2-1.5-12.5C131.3,126,127.3,126,127.2,128.6L127.2,128.6z"/>
		</g>
	</g>
	<g>
		<g>
			<path d="M137.1,130.2c2.1-2.8,2.7,0.6,3.2,1.8c0.9,2.1,3.6,1.8,3.9-0.5c1.1-2.8,2.2-3.1,3.2-1.1c1,0.6,1.3,1.3,1,2.3
				c0.2,0.6,0.4,1.2,0.7,1.8c1,2,4.3,0.6,3.7-1.5c-1.5-5-5.3-8-10.5-8.4c0,1.3,0,2.7,0,4c2.8-0.3,4.2,0.6,6.7,1.7c1,0.5,1.9,1,3.1,1
				c1.6,0,3.2-0.8,3.8-2.4c1.8-4.8-4.4-4.4-7-3.2c-2,0.9-0.8,3.5,1,3.7c1.7,0.2,3.2-0.2,4.8,0.2c0.8,0.2,1.3,0.7,2.2,0.8
				c1.7,0.2,2.9-0.4,3.8-1.8c1.1-1.7-1.1-3.7-2.7-2.7c-0.3,0.2-0.7,0.4-1,0.6c-2.2,1.3-0.2,4.7,2,3.5c0.3-0.2,0.7-0.4,1-0.6
				c-0.9-0.9-1.8-1.8-2.7-2.7c0.7-1.1-7.4-1.2-7.4-1.2c0.3,1.2,0.7,2.5,1,3.7c0.9-0.4-0.2-2.5-0.6-2.9c-0.5-0.6-1.7-0.9-2.4-1.2
				c-1.8-0.7-3.6-0.8-5.6-0.6c-2.6,0.2-2.6,3.8,0,4c3.4,0.2,5.7,2.3,6.7,5.5c1.2-0.5,2.4-1,3.7-1.5c-0.8-1.6,0.2-3.3-1.1-5.1
				c-1.1-1.4-2.7-2.1-4.5-2.2c-4.3-0.4-6.3,2.3-6.8,6.3c1.3-0.2,2.6-0.4,3.9-0.5c-0.9-2.2-1.6-6-4.5-6.4c-2.5-0.3-4.6,1.9-6,3.7
				C132.1,130.2,135.6,132.2,137.1,130.2L137.1,130.2z"/>
		</g>
	</g>
	<g>
		<g>
			<path d="M158.4,124.7c-1.9,0.1-3.2,0.7-4.4,2.2c-1,1.2-0.6,2.8,0.9,3.3c-0.3,1.1-0.5,2.1-0.8,3.2c-0.5-0.6-1-1.3-1.5-1.9
				c-0.1,0.4-0.2,0.8-0.3,1.2c0.6-0.2,1.3-0.3,1.9-0.5c-7.1-2-4.4,7.7-4.8,11.2c1.3,0,2.7,0,4,0c-0.1-1.1-0.2-2.1-0.3-3.2
				c-1.3,0.4-2.6,0.7-3.9,1.1c0.4,2.4,0.5,5.5,3.2,6.7c1.5,0.6,3.2,0.3,4.5-0.6c5.3-4-0.5-11.4,2-16.2c-1.2-0.5-2.4-1-3.7-1.5
				c-0.2,1.5-0.2,4.2-1.1,5.4c0.6-0.3,1.2-0.7,1.7-1c-0.1,0-0.2-0.1-0.3-0.1c-1.4-1.2-3.3-0.3-3.4,1.4c-0.3,3-0.4,6-0.3,9
				c0.1,2.6,4.1,2.6,4,0c-0.1-3,0-6,0.3-9c-1.1,0.5-2.3,0.9-3.4,1.4c4.9,4.3,5.8-2.6,6.4-6.1c0.3-2.1-2.5-3.7-3.7-1.5
				c-1.3,2.5-1,4.7-0.7,7.5c0.1,1.3,0.7,3.2,0.4,4.5c0.3,1.1-0.2,1.8-1.5,2c-0.2-1-0.4-1.9-0.5-2.9c-0.5-2.6-4.2-1.4-3.9,1.1
				c0.1,0.7,0.1,1.4,0.2,2.2c0.2,2.6,3.7,2.5,4,0c0.2-1.6,0.2-3.2,0-4.8c-0.2-0.8-0.3-1.7-0.3-2.5c0.4,0.1,0.7,0.1,1.1,0
				c1.6-1.4,2.2-2.3,2.4-4.5c0.1-0.8-0.7-1.8-1.5-1.9c-5.6-1-6.1,5.7-0.7,6.1c2.3,0.2,3.6-1.5,4.3-3.5c1-2.9,0.1-4.8-2.7-5.8
				c0.3,1.1,0.6,2.2,0.9,3.3c0.5-0.3,1-0.7,1.6-1C161,128.5,161,124.5,158.4,124.7L158.4,124.7z"/>
		</g>
	</g>
	<g>
		<g>
			<path d="M158.8,138.3c0-2.5,0-7.9,2.6-9.4c-0.9-0.9-1.8-1.8-2.7-2.7c-0.8,1-1.2,2-1.7,3.1c-1,2.4,2.9,3.4,3.9,1.1
				c0,0,0.1,0.1,0.1,0.1c1,0.6,2.1,0.2,2.7-0.7c0.1-0.1,0.1-0.2,0.2-0.3c0.6-0.8,0.2-1.8-0.3-2.4c-0.1-0.1-0.1-0.2-0.2-0.3
				c-0.6,1.1-1.3,2.2-1.9,3.3c1,0,1.8,0.5,2.2,1.4c0.9-0.9,1.8-1.8,2.7-2.7c-0.4-0.2-0.7-0.5-1.1-0.7c-1.9-1.2-4.2,1.7-2.4,3.1
				c0.6,0.4,0.3,2.9,0.3,3.5c-0.1,2.6,3.8,2.5,4,0c0-0.5,0-3.3,0.7-3.9c1.6-1.5,2.7,0.8,3,2.2c0.3,1.7-0.2,3.4,0.3,5.1
				c0.6,2.4,2.5,5.2,5.4,4.7c2.6-0.5,3.5-3.5,3.6-5.7c0.3-4.6-0.4-9.4-0.8-14c-0.2-2.6-3.7-2.6-4,0c0,0.1,0,0.3,0,0.4
				c-0.3,2.6,3.7,2.5,4,0c0-0.1,0-0.3,0-0.4c-1.3,0-2.7,0-4,0c0.2,2.4,0.4,4.7,0.6,7.1c0.1,1.4,0.9,5.1,0.3,6.3
				c-1.4,2.7-1.3-4-1.3-4.7c-0.1-1.2-0.5-2.5-1.3-3.5c-1.6-1.8-5.1-2.4-7.3-1.6c-2.9,1.1-2.8,5.4-3,8c1.3,0,2.7,0,4,0
				c0-2.4,0.7-4.6-1.4-6.3c-0.8,1-1.6,2.1-2.4,3.1c0.4,0.2,0.7,0.5,1.1,0.7c1.8,1.2,3.5-1.1,2.7-2.7c-0.9-2.1-2.5-2.8-4.6-3.3
				c-2-0.5-3.2,1.8-1.9,3.3c0.1,0.1,0.1,0.2,0.2,0.3c-0.1-0.8-0.2-1.6-0.3-2.4c-0.1,0.1-0.1,0.2-0.2,0.3c0.9-0.2,1.8-0.5,2.7-0.7
				c-2.7-1.5-4.8-0.5-6,2.2c1.3,0.4,2.6,0.7,3.9,1.1c0.3-0.8,0.8-1.5,1.3-2.2c1.3-1.6-1.1-3.7-2.7-2.7c-4.1,2.5-4.6,8.6-4.5,12.9
				C154.9,140.9,158.9,140.9,158.8,138.3L158.8,138.3z"/>
		</g>
	</g>
	<g>
		<g>
			<path d="M170.3,124.1c-2.8,1-5.5,1.2-8.5,0.5c0,1.3,0,2.6,0,3.9c2.4-0.8,5.4-0.3,8-0.4c1.6-0.1,2.8,0.5,3.4,2.1
				c0.6,1.7,0.9,3.5,0.5,5.2c-0.7,2.5,3.2,3.6,3.9,1.1c1-3.6,0.1-9.5-3.4-11.5c-1.9-1.1-4-0.8-6.1-0.7c-2.5,0.1-4.9-0.3-7.3,0.5
				c-1.8,0.6-2,3.4,0,3.9c3.6,0.8,7.1,0.7,10.6-0.5C173.8,127.1,172.7,123.3,170.3,124.1L170.3,124.1z"/>
		</g>
	</g>
</g>
</svg>
