<?xml version="1.0" encoding="utf-8"?>
<!-- Generator: Adobe Illustrator 19.2.1, SVG Export Plug-In . SVG Version: 6.00 Build 0)  -->
<svg version="1.1" id="Layer_1" xmlns="http://www.w3.org/2000/svg" xmlns:xlink="http://www.w3.org/1999/xlink" x="0px" y="0px"
	 viewBox="0 0 576 432" style="enable-background:new 0 0 576 432;" xml:space="preserve">
<style type="text/css">
	.st0{fill:none;stroke:#000000;stroke-width:2;stroke-miterlimit:10;}
</style>
<g>
	<g>
		<path d="M267.7,197.6c0.4,0,0.5,0.2,0.5,0.5c0,0.4-0.2,0.5-0.5,0.5c-1.3,0-5,0.1-11.2,0.2c0.1,1.9,0.3,4,0.5,6.1
			c0,0.6-0.3,0.9-0.9,0.9c-0.6,0-0.9-0.3-0.9-0.9c0-0.6-0.1-1.2-0.2-1.8c-0.2-0.1-0.4-0.3-0.4-0.5c-0.1-1.2-0.2-2.5-0.2-3.8
			c-4.8,0.1-8.9,0.1-12.2-0.2c-0.4,0-0.5-0.2-0.5-0.5c0-0.4,0.2-0.5,0.5-0.5c3.4,0.2,7.4,0.3,12.1,0.2c0-0.8,0-1.7,0-2.7
			c-7.7-0.1-14.6-0.5-20.7-1.1c0,1.3,0,3.2,0.1,5.6c0.1,2.4,0.1,4,0.1,4.7c0,0.4-0.2,0.5-0.5,0.5c-0.4,0-0.5-0.2-0.5-0.5
			c0-0.7,0-2.3-0.1-4.7c-0.1-2.4-0.1-4.3-0.1-5.8c-1.1-0.1-2.2-0.2-3.4-0.4c0.1,1.2,0.2,2.9,0.4,5c0,0.6-0.3,0.9-0.9,0.9
			c-0.6,0-0.9-0.3-0.9-0.9c-0.1-2.2-0.2-3.9-0.4-5.2c-1.6-0.2-3.1-0.5-4.7-0.7c-0.4-0.1-0.5-0.3-0.4-0.6c0.1-0.3,0.2-0.4,0.4-0.4
			c0.5,0.1,1,0.2,1.4,0.2c0-0.4,0.2-0.5,0.5-0.5c0.8,0.1,1.7,0.2,2.7,0.2c0-0.1-0.1-0.3-0.2-0.5c-1.1,0.1-4.6,0.2-10.6,0.2
			c-0.6,0-0.9-0.3-0.9-0.9c0-0.6,0.3-0.9,0.9-0.9c6,0,9.5-0.1,10.6-0.2c-0.1-3.6-0.1-6.8,0.2-9.7c0-0.6,0.3-0.9,0.9-0.9
			c0.6,0,0.9,0.3,0.9,0.9c-0.2,2.9-0.3,6.1-0.2,9.5c0.1,0,0.2,0,0.4,0h0.2v-0.4c0-6.4,0.2-16.4,0.6-30.2c0.4-13.8,0.6-25.9,0.5-36.4
			c-0.1-10.5-0.6-20.4-1.7-29.6c-10.8,0-19.8,0.2-27,0.5c-0.1,0.2-0.4,0.4-0.7,0.4c-1.1,0-2.3-0.1-3.8-0.2c-1.3,0.1-2.6,0.2-3.8,0.4
			c0,2.4,0,4.1,0,5c0,0.2-0.1,0.4-0.2,0.5c0,0.4,0,0.8,0,1.3c0,0.4-0.2,0.5-0.5,0.5s-0.5-0.2-0.5-0.5c0-0.1,0-0.3,0-0.5v-0.4
			c-0.4-0.2-0.5-0.5-0.5-0.9c0-0.6,0-2.5,0-5.8c-0.4,0-0.7-0.1-0.9-0.2c0,1.9,0,3.7,0,5.2c0,0.4-0.2,0.5-0.5,0.5
			c-0.4,0-0.5-0.2-0.5-0.5c0-1.6,0-3.3,0-5.2c-2-0.2-3.7-0.4-5-0.4c-0.6,0-0.9-0.3-0.9-0.9c0-0.6,0.3-0.9,0.9-0.9
			c1.3,0,2.9,0.1,4.9,0.4c-0.2-12.2-0.2-20.5,0.2-24.8c-0.6,0-1.1,0-1.6,0c-0.6,0-0.9-0.3-0.9-0.9c0-0.6,0.3-0.9,0.9-0.9
			c0.6,0,1.2,0,1.8,0c0.1-2,0.4-4,0.7-5.9c0.1-0.2,0.3-0.3,0.6-0.3c0.3,0.1,0.4,0.3,0.4,0.6c-0.4,1.7-0.6,3.5-0.7,5.6
			c0.7,0,1.4-0.1,2.2-0.2c0.1-3.4,0.2-6.4,0.2-9.2c0-0.4,0.2-0.5,0.5-0.5s0.5,0.2,0.5,0.5c0,0.7,0,1.5,0,2.3
			c0.1-0.4,0.2-0.7,0.2-0.9c0.1-0.6,0.5-0.8,1.1-0.7c0.6,0.1,0.8,0.5,0.7,1.1c-0.5,2-0.8,4.4-0.9,7c9.1-0.2,15.2-0.4,18.4-0.4
			c3.1,0,9.2,0.2,18.3,0.7c9.1,0.5,15.1,0.8,18.3,0.9c3.8,0.1,12.6,0.2,26.3,0.2c5.5,0.1,10.2,0.2,14,0.4c0.1-3,0.4-5.7,0.9-8.1
			c0.1-0.6,0.5-0.8,1.1-0.7c0.6,0.1,0.8,0.5,0.7,1.1c-0.5,2.3-0.8,4.9-0.9,7.7c1.3-0.1,2.5-0.2,3.6-0.4c0.4-3.1,0.8-5.7,1.3-7.7
			c0.1-0.4,0.4-0.5,0.7-0.4c0.4,0.1,0.5,0.4,0.4,0.7c-0.5,1.9-0.9,4.4-1.3,7.4c0.5,0,1-0.1,1.6-0.2c0.1-3.1,0.3-6.1,0.5-8.8
			c0-0.4,0.2-0.5,0.5-0.5s0.5,0.2,0.5,0.5c-0.2,2.8-0.4,5.7-0.5,8.8c0.2,0,0.5,0,0.7,0c0.6,0,0.9,0.3,0.9,0.9c0.5,0.1,1,0.2,1.4,0.2
			c0.4,0,0.5,0.2,0.5,0.5s-0.2,0.5-0.5,0.5c-1.1-0.1-2.2-0.2-3.2-0.2c0,3.6,0.1,10.4,0.2,20.3c0.4,0,0.7-0.1,0.9-0.2
			c0.6-0.1,1,0.1,1.1,0.7c0.1,0.6-0.1,1-0.7,1.1c-0.4,0-0.7,0.1-1.1,0.2c0,0.8,0,1.6,0,2.3c2.4,0.1,4.5,0.3,6.3,0.5
			c0.4,0,0.5,0.2,0.5,0.5c0,0.4-0.2,0.5-0.5,0.5c-1.8-0.2-3.9-0.4-6.3-0.5c0,1.4,0,2.8,0,4c0,0.4-0.2,0.5-0.5,0.5
			c-0.4,0-0.5-0.2-0.5-0.5c0-1.2,0-2.5,0-4c-0.7,0-1.4-0.1-2.2-0.2c-0.1,1.1-0.2,2.1-0.2,3.1c0,2.8,0,4.8,0,6.1
			c0,0.4-0.2,0.5-0.5,0.5h-0.2v0.2c-0.1,0.6-0.5,0.8-1.1,0.7c-0.6-0.1-0.8-0.5-0.7-1.1c0.4-3,0.7-6.2,0.9-9.5
			c-11.5-0.2-24.7,0.3-39.6,1.6c0.7,6.4,1.2,13.6,1.3,21.6c0.2,8,0.2,14.8,0.2,20.3c-0.1,5.5-0.2,13.1-0.5,22.7
			c-0.3,9.6-0.4,16.4-0.4,20.5c0.4,0.1,0.5,0.4,0.5,0.9c-0.2,3.2-0.4,6.7-0.4,10.3c4.1-0.1,7.8,0,11.2,0.4c0.6,0.1,0.8,0.5,0.7,1.1
			c-0.1,0.6-0.5,0.8-1.1,0.7c-3.1-0.4-6.7-0.5-10.8-0.4c0,0.6,0,1.1,0,1.6c4.8,0,9.1-0.4,12.8-1.3c0.4-0.1,0.6,0,0.7,0.4
			c0.1,0.4,0,0.6-0.4,0.7c-2.4,0.5-4.9,0.8-7.6,1.1c0.1,0.1,0.2,0.2,0.2,0.4c0,0.4-0.2,0.5-0.5,0.5c-1.8,0-3.5,0-5.2,0
			c0.1,0.8,0.2,1.7,0.2,2.7C262.6,197.7,266.4,197.6,267.7,197.6z M186.3,59.3c0.6,0,0.9,0.3,0.9,0.9c0,0.6-0.3,0.9-0.9,0.9
			c-0.6,0-0.9-0.3-0.9-0.9C185.4,59.6,185.7,59.3,186.3,59.3z M190.8,90.6c0.4,0.1,0.7,0.2,1.1,0.2c-0.1-4.6,0.1-8.3,0.5-11.2
			c0-0.2,0.2-0.4,0.5-0.5c0.2-6.5,0.4-11,0.4-13.5c-0.8,0.1-1.6,0.2-2.3,0.2C190.7,69.9,190.6,78.2,190.8,90.6z M193.7,90.9
			c3.1,0.2,5.6,0.4,7.6,0.4c0.2,0,0.5,0.1,0.7,0.4c7.2-0.4,16.1-0.5,26.8-0.5c0-0.2,0-0.5,0-0.7c-3.7,0-9.2-0.1-16.6-0.2
			c-7.3-0.1-12.8-0.2-16.6-0.2c-0.8,0-1.5-0.3-2-0.9C193.7,89.7,193.7,90.3,193.7,90.9z M283.9,66.1c-2,0-4.4-0.1-7-0.2
			c-13.8,0-22.6-0.1-26.3-0.2c-3.5-0.1-8.5-0.4-15-0.7c-6.5-0.4-12.4-0.6-17.6-0.8c-5.2-0.2-10.2-0.2-14.8-0.1
			c0,0.6-0.3,0.9-0.9,0.9c-0.2,0-2.4,0.1-6.5,0.4c0,0.6,0,1.2,0,1.8c0.4-0.1,0.8-0.2,1.3-0.2h0.2c0.6-0.8,1.4-1.2,2.5-1.1
			c2.9,0.5,6.1,0.8,9.5,1c3.5,0.2,6.5,0.3,9,0.3c2.5,0,5.9,0,10.1-0.1c4.2-0.1,7.3-0.1,9.4-0.1c5.6,0,13.7,0.1,24.1,0.2
			c10.4,0.1,17.9,0.2,22.3,0.2c-0.2-0.1-0.4-0.3-0.4-0.6C283.7,66.4,283.8,66.2,283.9,66.1z M235.5,164.7c0.4-0.2,0.6-0.2,0.8,0.1
			c0.2,0.3,0.1,0.5-0.2,0.7c-0.3,0.2-0.6,0.6-0.8,1.4c-0.2,7.7-0.4,14.1-0.4,19.3c7.3,0.5,12.5,0.7,15.7,0.7
			c0-5.6,0.2-15.8,0.7-30.4c0.5-14.6,0.6-27.2,0.4-37.6c-0.2-10.4-0.9-20.3-2.1-29.7c-0.1-0.6,0-1.1,0.4-1.6c0-0.2,0-0.4,0-0.5
			c0.1-0.7,0.5-1.3,1.1-1.8c0.6-0.5,1.3-0.7,2-0.5c8,1,20,1.4,36,1.4c0-7,0-11.4,0-13.3c-5.8,0-14.3-0.1-25.7-0.2
			c-11.4-0.1-20-0.2-25.7-0.2c-1.9,0-5,0-9.2,0.1c-4.2,0.1-7.6,0.1-10.2,0.1c-2.6,0-5.7-0.1-9.3-0.3c-3.6-0.2-6.9-0.5-9.9-1
			c-0.2,3-0.4,7.4-0.4,13.3c2.9,0,7.7,0.1,14.5,0.2c6.8,0.1,12,0.2,15.6,0.2c1,0,1.7,0.4,2.2,1.1c0.7-0.1,1.4,0.1,2,0.5
			c0.6,0.5,1,1.1,1.1,1.8c1.3,10.8,2,23.4,2.1,37.9c0.1,14.5-0.2,27.3-0.8,38.4H235.5z M229.2,191.5c0.4,0.1,0.8,0.2,1.4,0.2
			c-0.4-0.2-0.7-0.6-0.9-1.1c-0.2,0-0.5,0-0.7,0C229.1,191,229.2,191.3,229.2,191.5z M254.4,193.5c-0.1-0.5-0.2-1-0.2-1.4
			c-0.2,0.1-0.5,0.2-0.9,0.2c-0.2,0-0.4,0-0.5,0c-0.2,0-0.5,0-0.7,0c-3.5,0-9.4-0.2-17.8-0.7c-0.2,0.1-0.4,0.2-0.5,0.4v0.2
			C242.5,192.9,249.4,193.4,254.4,193.5z M273.4,91.3c-6.8-0.1-12.9-0.4-18.2-0.9c0.1,0.7,0.2,1.4,0.2,2.2
			C261.2,92.1,267.2,91.6,273.4,91.3z M290.7,67c-1,0.1-2.2,0.2-3.8,0.4c0.8,0,1.6,0,2.3,0c0.2,0,0.5,0.1,0.7,0.2
			c0.2-0.2,0.5-0.4,0.7-0.4V67z M295.4,89.7c-1.2,0.2-2.6,0.5-4.1,0.9c-0.1,0.1-0.2,0.2-0.4,0.4c1.6,0,3,0,4.3,0
			C295.3,90.6,295.4,90.1,295.4,89.7z M296.1,66.6c-1.1,0.1-2.2,0.2-3.4,0.4c-0.1,0-0.2,0.1-0.2,0.2c1.1,0.5,1.7,1.3,1.8,2.3
			c0.1,2.4,0.2,8.3,0.2,17.8c0,0.2-0.1,0.5-0.2,0.7c0.4,0,0.7-0.1,1.1-0.2c0.1-1,0.2-1.9,0.2-2.9C295.6,77.4,295.8,71.3,296.1,66.6z
			 M297.2,66.6c-0.2,2.5-0.4,5.5-0.4,8.8c0.5,0.1,0.7,0.4,0.7,0.9c0,3.7-0.1,7.4-0.4,11.2c0.6-0.1,1.2-0.2,1.8-0.4
			c-0.1-10.1-0.2-16.9-0.2-20.5C298.3,66.6,297.8,66.6,297.2,66.6z M299.2,91.1c0-0.7,0-1.4,0-2.2c-0.7,0.1-1.4,0.2-2,0.4
			c0,0.6-0.1,1.1-0.2,1.6C297.7,91,298.4,91.1,299.2,91.1z"/>
		<path d="M377.6,67.2c-0.4,0-0.5-0.2-0.5-0.5c0-0.4,0.2-0.5,0.5-0.5c1.7,0,3.2,0.1,4.7,0.4c1.4,0.2,2.9,0.7,4.4,1.3
			c1.5,0.6,2.7,1.1,3.5,1.5c0.8,0.4,2.2,1.1,4,2.2c1.9,1,3.1,1.7,3.7,2.1c7.8,4.2,14.5,9.3,20.2,15.4c5.7,6.1,10,12.4,12.8,19.1
			c2.8,6.7,4.7,13.6,5.6,21c0.9,7.3,0.4,14.3-1.3,20.9c-1.7,7-4.4,13.3-8.3,19.2c-3.8,5.8-8.7,10.9-14.5,15.2
			c-5.8,4.3-12.9,7.6-21.1,9.7c-8.3,2.2-17.3,2.9-27,2.2c-0.4,0-0.5-0.2-0.5-0.5s0.2-0.5,0.5-0.5c9.6,0.7,18.5,0,26.6-2.1
			c8.2-2.1,15.1-5.3,20.9-9.5c5.8-4.3,10.5-9.2,14.3-14.9c3.8-5.7,6.4-12,8-18.8c3.5-14.6,1.9-28.9-4.9-42.8
			c2.8,6.1,4.1,15.2,4.1,27.2c0,14.8-4.6,27.3-13.7,37.6c-9.1,10.3-21.1,17.2-35.8,20.5c-14.9,3.4-27.4,3.4-37.4,0
			c-1-0.2-2.3-0.6-4-1.1c-2.6-0.6-4.1-0.9-4.3-0.9c-3.8-1.1-6.8-2.4-9-4c-7.2-5.4-13.1-11.8-17.8-19.1c-4.7-7.3-7.8-14.9-9.4-22.7
			c-1.6-7.8-1.8-15.7-0.6-23.7c1.2-8,3.7-15.3,7.6-22c3.9-6.7,9.4-12.7,16.6-17.8c7.1-5.2,15.4-8.9,24.9-11.2
			c13.7-3.2,25.2-3.4,34.6-0.5c3.4,1,6.8,2.3,10.3,4.1c-2.9-1.7-4.8-2.8-5.8-3.3c-1-0.5-2.7-1.1-4.9-1.8
			C382.1,67.5,379.9,67.2,377.6,67.2z M406.2,87.7c-0.6-0.5-0.9-1.1-0.9-2c-8.6-5.9-15.9-9.7-21.8-11.5c-8.5-2.5-19.2-2.2-32,0.9
			c-8.5,1.9-16,5.2-22.6,10c-6.5,4.7-11.6,10.2-15.2,16.3c-3.6,6.1-6,12.8-7.1,20.2c-1.1,7.3-1,14.5,0.5,21.7
			c1.5,7.1,4.4,14.1,8.7,20.9c4.3,6.8,9.8,12.7,16.6,17.7c1.6,1.2,3.9,2.2,7,3.1c0.2,0,1.7,0.3,4.3,0.9c1.8,0.5,3.3,0.9,4.5,1.3
			c9,3,20.5,2.9,34.5-0.4c13.6-3.1,24.5-9.3,32.8-18.6c8.3-9.3,12.4-20.7,12.4-34.1c0-11.5-1.3-20-4-25.4c-0.4-1-0.8-1.9-1.4-2.7
			c-0.5-0.8-1.1-1.7-1.7-2.7c-0.6-1-1.1-1.7-1.6-2.3c-0.5-0.6-1.1-1.4-2-2.3c-0.8-1-1.5-1.6-1.9-2.1c-0.4-0.4-1.2-1.1-2.2-2.2
			c-1.1-1-1.8-1.7-2.2-2.1c-0.4-0.4-1.2-1.1-2.4-2.2C407.4,88.8,406.6,88,406.2,87.7z M321.6,75.6c0.6,0,0.9,0.3,0.9,0.9
			c0,0.6-0.3,0.9-0.9,0.9c-0.6,0-0.9-0.3-0.9-0.9C320.7,75.9,321,75.6,321.6,75.6z M379.7,91.1c0.7-0.8,1.7-1.1,2.9-0.7
			c9.2,3.1,16.3,8.7,21.1,16.8c4.9,8.1,7.1,16.9,6.7,26.5c-0.4,9.6-3.4,18.2-9.1,25.8c-5.7,7.6-13.6,12.5-23.7,14.7
			c-9.5,1.9-17.6,1.7-24.3-0.5c-6.7-2.3-12.5-6.4-17.3-12.4c-4.8-6-8.2-12.7-10.1-20.2c-2.2-7.1-2.4-14.5-0.6-22.1
			c1.7-7.7,5.4-13.9,11.1-18.7c1-0.8,1.9-1.6,3-2.3c1-0.7,2.2-1.3,3.4-1.9c1.3-0.5,2.3-1,3.1-1.3c0.8-0.4,2-0.7,3.6-1.2
			c1.6-0.4,2.6-0.7,3.2-0.8c0.6-0.1,1.8-0.4,3.6-0.8c1.8-0.4,2.9-0.7,3.2-0.8C367,89.6,373.6,89.6,379.7,91.1z M341.1,158.8
			c-5.2-8-7.7-17.2-7.6-27.4c0-6.4,1.2-12.3,3.6-17.9c2.4-5.6,5.9-10.1,10.4-13.6c-2.9,1.1-5.3,2.5-7.4,4.3c-4.8,4.1-7.9,9.4-9.4,16
			c-1.4,6.6-1.3,13.1,0.5,19.4C333.1,147,336.4,153.4,341.1,158.8z M346.3,163.8c2.9,2.2,5.9,3.8,9,4.9c5.8,1.9,12.9,2,21.4,0.2
			c8.8-1.8,15.6-6,20.5-12.6c4.9-6.6,7.6-14.2,7.9-22.7c0.4-7.8-1.2-15-4.8-21.7c-3.5-6.7-8.7-11.6-15.6-14.8
			c-0.8,0.8-1.8,1-2.9,0.5c-6.1-2.5-13.1-2.9-21.1-1.1c-5.2,1.1-8.2,1.8-9.2,2.2c-5.6,3-9.9,7.5-12.8,13.4
			c-2.9,5.9-4.3,12.4-4.3,19.3c-0.1,6.1,0.8,12,2.9,17.7C339.5,154.8,342.4,159.7,346.3,163.8z M415.9,88c0,0.4-0.1,0.7-0.4,1.1
			c4.9,4.6,8.6,8.9,11.2,13C423.7,97,420.1,92.4,415.9,88z"/>
		<path d="M459.1,63.8h0.2c0.6-0.1,1,0.1,1.1,0.7c0.1,0.6-0.1,1-0.7,1.1c-2,0.4-4.1,0.6-6.1,0.7v1.4c2.5,0,5.3,0,8.3,0
			c9.2-1,17.8-1.4,25.6-1.4c16,0.2,27.7,2.6,35.1,7c4.7,2.9,8.6,6.8,11.9,11.9c3.2,5,5.4,10.4,6.5,16.2c1.1,6,0.8,11.8-0.7,17.5
			c-1.6,5.6-4.6,10.4-9,14.2c-6.4,5.6-15.5,9.1-27.5,10.4c-2,0.2-5,0.5-8.8,0.8c-3.8,0.3-7.2,0.6-10,0.9c-2.8,0.3-5.5,0.8-8,1.3
			c0.6,7.3,0.8,17.2,0.7,29.7c0.4,0.1,0.5,0.4,0.4,0.7c-0.1,0.4-0.2,0.7-0.4,0.9c0,0.7,0,1.6,0,2.5c0.1,0,0.2,0,0.4,0
			c0.6,0,0.9,0.3,0.9,0.9c0,3.5,0.1,6.7,0.2,9.5c4.4,0.4,8.6,0.7,12.6,0.9c0.4,0,0.5,0.2,0.5,0.5c0,0.4-0.2,0.5-0.5,0.5
			c-1,0-2-0.1-3.1-0.2c0.1,0.1,0.2,0.3,0.2,0.5c0,0.6-0.3,0.9-0.9,0.9h-0.4v0.2c0,0.4-0.2,0.5-0.5,0.5c-2.3,0-4.9,0-7.9,0
			c0,0.5,0.1,1,0.2,1.4c1,0.1,1.9,0.2,2.9,0.4c0.4,0,0.5,0.2,0.5,0.5c0,0.4-0.2,0.5-0.5,0.5c-1-0.1-1.9-0.2-2.9-0.4
			c0.2,4.7,0.6,9.1,1.1,13.1c0.1,0.6-0.1,1-0.7,1.1c-0.6,0.1-1-0.1-1.1-0.7c-0.5-4.3-0.8-8.9-1.1-13.7c-0.2,0-0.5,0-0.7,0
			c0,1.4,0.1,3.5,0.4,6.3c0.2,2.8,0.4,4.7,0.5,5.8c0,0.4-0.2,0.5-0.5,0.5c-0.4,0-0.5-0.2-0.5-0.5c-0.1-1.1-0.3-3-0.5-5.7
			c-0.2-2.7-0.4-4.8-0.4-6.4c-3.1-0.2-7-0.3-11.5-0.2c-1,0-2.3,0-4.1,0.1c-1.8,0.1-3.1,0.1-3.8,0.1c0,0.6,0,2.3,0,5c0,2.8,0,4.4,0,5
			c0,0.4-0.2,0.5-0.5,0.5s-0.5-0.2-0.5-0.5c0-0.6,0-2.3,0-5c0-2.8,0-4.4,0-5c-1,0-1.8,0-2.5,0c0,2.3,0.1,4.4,0.4,6.5
			c0,0.6-0.3,0.9-0.9,0.9c-0.6,0-0.9-0.3-0.9-0.9c-0.2-1.9-0.4-4.1-0.4-6.5c-1.7,0-3.2,0-4.7,0c-0.4,0-0.5-0.2-0.5-0.5
			s0.2-0.5,0.5-0.5c1.4,0,3,0,4.7,0c-0.1-0.4-0.2-0.7-0.2-1.1c-5.4,0-10.4-0.1-14.9-0.4c-0.4,0-0.5-0.2-0.5-0.5s0.2-0.5,0.5-0.5
			c4.6,0.2,9.5,0.4,14.9,0.4c0-0.1,0-0.2,0-0.4c-0.5,0-3.3,0-8.5,0c-0.6,0-0.9-0.3-0.9-0.9c0-0.6,0.3-0.9,0.9-0.9c5,0,7.7,0,7.9,0
			v-0.2c0-6-0.4-14.2-1.1-24.7c-0.8-11.9-1.3-20.1-1.4-24.7c-0.2-9,0-30.7,0.7-65c0-1.3,0-2.6,0-4c0-0.7,0-1.4,0-2.2
			c-3.2,0.4-5.8,0.7-7.7,0.9c-0.4,0-0.5-0.2-0.5-0.5c0-0.4,0.2-0.5,0.5-0.5c1.9-0.2,4.5-0.5,7.7-0.9c0-0.4,0-0.7,0-1.1
			c-4.2,0.1-8.2,0.4-12.1,0.7c-0.4,0-0.5-0.2-0.5-0.5c0-0.4,0.2-0.5,0.5-0.5c3.7-0.4,7.8-0.6,12.2-0.7c0-0.2,0-0.5,0-0.9
			c-3.5,0.4-8.2,0.5-14.2,0.5c-0.4,0-0.5-0.2-0.5-0.5c0-0.4,0.2-0.5,0.5-0.5c5.8,0,10.3-0.2,13.7-0.5c-0.1-0.1-0.2-0.2-0.2-0.4
			c0-0.5,0.2-0.8,0.7-0.9c0-2.8,0-5.4,0-7.9c0-0.4,0.2-0.5,0.5-0.5s0.5,0.2,0.5,0.5v-0.2c0.1-0.6,0.5-0.8,1.1-0.7
			c0.6,0.1,0.8,0.5,0.7,1.1c0,0.2-0.1,0.5-0.2,0.7c0.2-0.7,0.5-1.3,0.7-1.8c0.1-0.4,0.4-0.5,0.7-0.4v-0.4c0-0.4,0.2-0.5,0.5-0.5
			c0.4,0,0.5,0.2,0.5,0.5v9.4c1.8-0.1,3.6-0.4,5.4-0.7H459.1z M444.5,61.6c0.6,0,0.9,0.3,0.9,0.9c0,0.6-0.3,0.9-0.9,0.9
			c-0.6,0-0.9-0.3-0.9-0.9C443.6,61.9,443.9,61.6,444.5,61.6z M450.6,179.5c0.1-0.1,0.3-0.2,0.5-0.4c-0.1-4-0.6-19.8-1.4-47.5
			c-0.5-15.5-0.7-28.5-0.5-39c-0.1,0-0.2-0.1-0.4-0.2c-0.6,21.8-0.7,38.5-0.4,49.8c0.1,4.4,0.6,12.7,1.4,24.7
			C450.3,171.9,450.5,176.1,450.6,179.5z M451.9,69h-1.1c0,0.1,0,0.2,0,0.4C451.2,69.2,451.5,69.1,451.9,69z M452.4,66.5
			c-0.5,0.1-1,0.2-1.4,0.2c0,0.4,0,0.8,0,1.3c0.5,0,1,0,1.4,0V66.5z M452.4,57.1c-0.6,1.8-1,4.3-1.3,7.6c0.4,0,0.8-0.1,1.3-0.2V57.1
			z M455,193.9c-0.8-0.1-1.7-0.2-2.7-0.2v0.2C453.1,193.9,454,193.9,455,193.9z M455,196c0-0.4,0-0.7,0-1.1c-1,0-1.9,0-2.7,0
			c0,0.4,0.1,0.7,0.2,1.1C453.2,196,454,196,455,196z M471.2,144.4c-0.1-0.7,0.1-1.3,0.5-1.9c0.5-0.5,1.1-0.9,2-1
			c0.2,0,0.5,0.1,0.9,0.2c2.8-0.7,5.7-1.3,8.8-1.7c3.1-0.4,6.7-0.8,10.8-1.1c4.1-0.3,7-0.6,8.8-0.8c10.8-1.2,19-4.2,24.5-9
			c3.6-3.2,6.1-7.2,7.4-11.9c1.3-4.7,1.5-9.6,0.5-14.8c-1-5.2-2.8-9.9-5.6-14.3c-2.8-4.4-6.2-7.8-10.3-10.2
			c-6.6-4.1-17.3-6.2-32.2-6.3c-10,0-20.7,0.8-32.2,2.3c-0.8,14.8-0.8,33.9,0,57.4c1,30.5,1.4,49.1,1.4,56c2,0.1,5,0.3,8.8,0.5
			c3,0.1,5.2,0.2,6.7,0.4C472.1,166.2,471.8,151.6,471.2,144.4z M475.3,196c0-0.5,0-0.9,0-1.3c-10.1,0.1-16.5,0.2-19.3,0.2
			c0,0.4,0,0.7,0,1.1c0.7,0,2,0,3.8-0.1c1.8-0.1,3.2-0.1,4.1-0.1C468.5,195.7,472.3,195.8,475.3,196z M470.3,193.9
			c-0.1-0.1-0.2-0.2-0.4-0.4c-1.1,0-2.7-0.1-4.9-0.4c-2.5-0.1-4.4-0.2-5.6-0.2c0.1,0.2,0.2,0.5,0.2,0.7c0,0.1-0.1,0.2-0.2,0.2
			C462.1,193.9,465.7,193.9,470.3,193.9z M472.1,90.6c0-1.8,0.9-2.7,2.7-2.7c0.4-0.2,0.8-0.4,1.3-0.4l2.2-0.2
			c1.6-0.1,2.5-0.2,2.7-0.2c0.2,0,1-0.1,2.4-0.2c1.4-0.1,2.3-0.2,2.7-0.2c0.4,0,1.3,0,2.5-0.1c1.3-0.1,2.2-0.1,2.8,0
			c0.6,0.1,1.5,0.1,2.6,0.2c1.1,0.1,2.1,0.2,2.8,0.3c0.7,0.1,1.5,0.3,2.4,0.4c0.9,0.2,1.8,0.4,2.6,0.6c4,1.1,7.2,3.1,9.7,6.2
			c2.5,3.1,4,6.5,4.5,10.2c0.5,4-0.2,7.6-2.2,11c-1.9,3.4-5,5.8-9.2,7.4c-1.8,0.7-3.9,1.3-6.4,1.6c-2.5,0.4-4.3,0.6-5.6,0.6
			c-1.3,0.1-3.6,0.1-7,0c-3.4-0.1-5.2-0.1-5.4-0.1c-0.2,0-0.3,0-0.4,0c-0.5,0.2-1,0.4-1.4,0.4c-0.4,0-0.7-0.1-0.9-0.2
			c-0.6,0.7-1.3,1.1-2.2,1.1c-1.8,0-2.7-0.9-2.7-2.7c0-3.7-0.1-9.2-0.3-16.6C472.2,99.8,472.1,94.3,472.1,90.6z M476.4,196
			c0.2,0,0.5,0,0.9,0c-0.1-0.4-0.2-0.8-0.2-1.3c-0.2,0-0.5,0-0.7,0C476.4,195.2,476.4,195.7,476.4,196z M480.7,92.5
			c-0.6,0-1.7,0.1-3.2,0.2c0,3.2,0.1,7.9,0.3,13.9c0.2,6.1,0.3,10.5,0.3,13.4c0.1,0,0.2,0,0.4,0c0.2,0,0.4,0,0.5,0
			c0.5-0.2,1-0.4,1.4-0.4h0.4c-0.1-1.2-0.2-3.4-0.4-6.6c-0.1-3.2-0.2-5.6-0.2-7.3c0-1.7,0-3.8,0.1-6.4
			C480.3,96.9,480.5,94.6,480.7,92.5z M483.6,192.2c-1.6-0.1-3.1-0.2-4.7-0.4c0,0.1,0,0.2,0,0.4H483.6z M481.8,92.4
			c-0.2,2.2-0.4,4.5-0.4,7.1c-0.1,2.6-0.1,4.7-0.1,6.4c0,1.7,0.1,4.1,0.2,7.2c0.1,3.1,0.2,5.3,0.4,6.7c3.2,0.2,6.9,0.2,10.9,0
			c4-0.2,7.4-0.8,10.2-1.8c2.9-1.1,5-2.8,6.3-5c1.3-2.3,1.8-4.8,1.4-7.6c-0.4-2.8-1.4-5.2-3.2-7.5c-1.8-2.2-4.1-3.7-7-4.6
			C496,92.1,489.8,91.8,481.8,92.4z"/>
		<path d="M132.3,279.1c0.3,0.2,0.4,0.5,0.2,0.7c-0.2,0.3-0.3,0.3-0.6,0.2c-2-1.1-4.6-2.5-7.8-4.5c-3.1,3.2-5.4,5.6-6.8,7.2
			c-2,2.2-3.9,4.2-5.6,6c-0.5,0.8-1.2,1.8-1.9,2.9c2.6,1.7,5.3,3.3,7.9,4.9c0.2,0.2,0.2,0.5,0.1,0.7c-0.2,0.3-0.4,0.3-0.7,0.2
			c-2.1-1.4-4.3-2.8-6.5-4.3c2,2.3,3.6,4.8,4.8,7.3c0.5,0.6,1.1,1.3,1.7,1.9c0.3,0.3,0.3,0.7-0.1,1c-0.4,0.4-0.8,0.3-1.2-0.1
			l-0.2-0.2c-0.2,0-0.4-0.1-0.5-0.3c0-0.1,0-0.2,0-0.3c-2.2-2.2-4.9-4.7-7.9-7.5c-1.3,1.9-2.3,3.4-3.2,4.5c-0.1,0.2-0.3,0.2-0.6,0.1
			c-0.3-0.2-0.3-0.4-0.1-0.7c0.4-0.5,0.8-1.2,1.3-1.9c-0.6,0.8-1.3,1.7-1.9,2.5c-0.1,0.2-0.3,0.2-0.6,0.1s-0.3-0.4-0.1-0.7
			c1.2-1.6,2.4-3.2,3.8-4.9c-0.1,0-0.2-0.1-0.3-0.2c-0.3,0.3-0.6,0.7-1,1.1c-0.3,0.4-0.7,0.5-1.1,0.2c-0.4-0.3-0.5-0.7-0.2-1.1
			c0.3-0.4,0.6-0.8,1-1.3c-1.5-1.2-4-3.2-7.5-6c-0.4-0.3-0.5-0.7-0.2-1.1c-0.7-0.3-1.5-0.6-2.2-1c-3.2-0.5-5.8-0.6-7.8-0.2
			c-3.2,0.6-5.5,2.9-7,6.7c-1.5,3.7-1.4,7,0.2,9.9c0.6,1.2,1.5,2.3,2.7,3.3c1.2,0.6,2.5,1.3,4,1.9c0.1-0.2,0.3-0.3,0.5-0.3
			c5,0,11.9,2.6,20.8,7.9c4.9,3.1,8.9,6.4,12.2,10c3.2,3.6,5.5,7.3,6.9,11.1c1.4,3.8,2,7.6,1.9,11.4c-0.1,3.8-0.9,7.5-2.4,11.2
			c-3.1,7.3-8.4,13.4-16,18.4c-7.6,4.9-16.3,7.7-26.3,8.2c-3.9,0.2-7.8-0.7-11.8-2.9c-8.1-1.6-15.1-5-21.1-10.3
			c-2.8-1.4-5.7-3.2-8.7-5.6c-2,2.6-3.7,5.1-5.1,7.5c-0.2,0.5-0.6,0.7-1,0.4c-0.5-0.3-0.6-0.6-0.2-1c1.4-2.5,3.1-5.2,5.1-7.9
			c-0.2-0.1-0.4-0.2-0.5-0.3c-0.5,0.7-1.2,1.6-2.1,2.7c-0.1,0.2-0.3,0.2-0.6,0.1c-0.3-0.2-0.3-0.4-0.1-0.7c0.7-1.1,1.4-2,1.9-2.7
			c-0.2-0.2-0.5-0.4-0.8-0.6c-0.1,0.1-0.2,0.3-0.2,0.5c-0.2,0.2-0.4,0.2-0.7,0.1c-0.3-0.2-0.3-0.4-0.2-0.7c0.1-0.1,0.2-0.3,0.3-0.5
			c-0.4-0.4-1-0.9-1.7-1.4c-0.4-0.3-0.5-0.7-0.2-1.1c0.3-0.4,0.7-0.5,1.1-0.2c0.6,0.5,1.2,1,1.7,1.4c0.4-0.6,0.8-1.3,1.1-1.9
			c-2.6-2.1-5.1-3.7-7.5-4.8c-0.3-0.2-0.4-0.4-0.2-0.7c0.2-0.3,0.3-0.3,0.6-0.2c2.4,1.2,5,2.8,7.8,4.9c-0.6-0.5-1.5-1.3-2.5-2.2
			c-0.2-0.2-0.2-0.4,0-0.6c0.2-0.2,0.4-0.2,0.6,0c1,0.8,1.7,1.5,2.4,2.1c3.6-5.4,7.2-10.5,10.8-15.4c-0.6-0.3-1.3-0.7-2.1-1.1
			c-0.4-0.2-0.5-0.6-0.2-1c0.3-0.5,0.7-0.6,1.2-0.2c-0.5-0.7-1.1-1.5-1.6-2.4c-0.1-0.3,0-0.6,0.2-0.7c0.3-0.2,0.5-0.1,0.7,0.1
			c0.7,1.4,1.6,2.8,2.7,4.1c0.1-0.1,0.2-0.2,0.3-0.3c-1.3-1.6-2.5-3.2-3.8-4.9c-0.2-0.3-0.2-0.6,0.1-0.7c0.3-0.2,0.4-0.1,0.6,0.1
			c1.3,1.6,2.5,3.2,3.8,4.8c0.2-0.3,0.4-0.6,0.6-0.8c0.2-0.2,0.4-0.2,0.6-0.1c0.3,0.2,0.3,0.4,0.1,0.7c-0.2,0.3-0.4,0.6-0.6,1
			c0.6,0.7,1.2,1.5,1.7,2.2c0.2,0,0.4,0.1,0.5,0.2c2.2-2,4.3-3.7,6.4-5.1c0.3-0.2,0.6-0.2,0.7,0.1c0.2,0.3,0.1,0.5-0.1,0.6
			c-2,1.4-4,3-6,4.9c0.5,0.2,1.1,0.5,1.6,0.8c2.2-2.6,4.2-4.5,6-5.6c0.5-0.3,0.9-0.2,1.2,0.2c0.3,0.5,0.2,0.8-0.2,1
			c-1.7,1-3.6,2.6-5.6,4.9c3.9,1.8,7.6,3.2,11.1,4.3c0.4,0.2,0.6,0.6,0.4,1c-0.2,0.5-0.5,0.7-1,0.6c-3.6-1.2-7.5-2.7-11.6-4.6
			c-0.1,0.1-0.2,0.2-0.2,0.3l0.2,0.2c0.6,0,1.2,0.2,1.7,0.6c0.5,0.4,0.7,1,0.7,1.6c1,0.7,2.2,1.7,3.7,3c2.2,1.9,3.6,3,4,3.3
			c3.1,2.5,5.7,4,7.9,4.3c3,0.5,5.9,0.3,8.9-0.7c3-1,5.5-2.6,7.5-4.7c4.5-4.6,5-9.6,1.6-15.1c-1.6-2.5-4.6-4.8-8.9-6.8
			c-1.6-0.7-3.8-1.6-6.7-2.7c-4.2-1.5-6.7-2.3-7.3-2.5c-6.1-2.3-11.3-5.2-15.5-8.7c-4.2-3.4-7.1-8.2-8.7-14.4
			c-2.8-10.1-1.7-18.7,3-25.9c4.2-6.5,10.8-11.1,19.7-14c7.5-2.5,15.7-3.4,24.6-2.5c8.8,0.8,16.5,3.3,23,7.3c0-0.2,0.1-0.4,0.2-0.5
			c0.3-0.4,0.7-0.5,1.1-0.2c0.7,0.5,1.7,1.1,2.9,1.7c0.3-0.3,0.7-0.6,1.1-1c-2.4-2.1-4.8-3.8-7-5.1c-0.2-0.2-0.2-0.4-0.1-0.7
			c0.2-0.3,0.4-0.3,0.7-0.2c2.2,1.4,4.6,3.2,7,5.4c1.6-1.5,3.6-3.1,5.9-4.9c0.4-0.3,0.8-0.3,1.1,0.2c0.3,0.4,0.3,0.8-0.2,1.1
			c-2.2,1.7-4.1,3.3-5.7,4.8c0.4,0.3,0.8,0.6,1.1,1c0.5-0.3,1-0.6,1.4-0.8c1.1-1.2,2.1-2.2,3-3.2c0.2-0.2,0.4-0.2,0.6,0
			c0.2,0.2,0.2,0.4,0,0.6c-0.5,0.6-1.1,1.2-1.6,1.7c0.2,0,0.4,0.1,0.5,0.3c0.1,0.3,0,0.5-0.3,0.6c-0.5,0.1-1.1,0.3-1.6,0.6
			c-0.3,0.3-0.6,0.6-1,1c0.8,1,2.1,2.3,3.7,4c1.6,1.7,2.8,2.9,3.6,3.7c0.2,0.2,0.2,0.4,0,0.6c-0.2,0.2-0.4,0.2-0.6,0
			c-0.7-0.6-2.1-2-4-4c0,0.1-0.1,0.2-0.2,0.3c-0.3,0.4-0.7,0.5-1.1,0.2c-1.1-0.7-2.3-1.6-3.7-2.5c-0.4,0.5-0.9,1.1-1.4,1.6
			C127.9,276.6,130.4,278.1,132.3,279.1z M42.3,360.4c-0.3-0.3-0.6-0.6-1-0.8c-0.4,0.6-0.8,1.3-1.3,1.9c0.3,0.2,0.6,0.4,1,0.6
			C41.5,361.5,41.9,360.9,42.3,360.4z M43,361c-0.3,0.5-0.7,1.1-1.3,1.7c0.2,0.1,0.4,0.2,0.6,0.3c0.4-0.5,0.8-1.1,1.3-1.6
			C43.4,361.3,43.2,361.1,43,361z M43.4,358.8c4.3-5.8,8.4-10.6,12.1-14.3c-0.5-0.5-1-1.1-1.4-1.6c-0.2-0.1-0.5-0.3-0.8-0.5
			c-3.6,4.9-7.2,10.1-10.8,15.6C42.8,358.3,43.1,358.6,43.4,358.8z M44.7,362.6c-0.4,0.5-0.8,1-1.1,1.4c1.2,1,2.3,1.8,3.3,2.5
			c-0.5-0.5-1-1.1-1.4-1.7c-0.3-0.4-0.5-0.9-0.5-1.4c-0.1-0.2-0.2-0.5-0.2-0.8H44.7z M48.1,355.9c0.3-0.4,0.7-0.5,1.1-0.2
			c0.4,0.3,0.5,0.7,0.2,1.1c-0.6,0.7-1.3,1.5-1.9,2.2c1.3-1.3,2.8-2.9,4.6-4.9c0.5-0.4,1.6-1.6,3.3-3.7h-0.2
			c-0.4-0.4-0.5-0.8-0.2-1.1c0.6-0.6,1.4-1.5,2.4-2.7c-0.4-0.5-0.9-1-1.3-1.4c-3.6,3.6-7.6,8.3-12.1,14.1c0.2,0.2,0.4,0.4,0.6,0.6
			C45.8,358.7,46.9,357.3,48.1,355.9z M50.3,363.1c5.4,6.5,12.3,10.8,20.7,13c8.4,2.2,16.2,2.1,23.4-0.5c8.1-2.4,14.5-6.9,19.2-13.4
			c4.8-6.5,6.7-14.5,5.9-24.1c-0.5-5.4-2.7-9.8-6.6-13.1c-3.9-3.3-9.4-6.5-16.5-9.5c-9.2-3.8-14.8-6.3-16.7-7.3
			c-5.7-3.4-9.1-7.4-10-11.9c-1-5.3-0.1-9.5,2.7-12.7c2.4-2.8,6-4.4,10.6-4.9c4-0.4,8.2,0,12.5,1.4c4.3,1.3,7.7,3.3,10.2,5.8
			c0.3-0.3,2-2.1,4.9-5.3c3-3.2,5.4-5.6,7.2-7.2c-5.7-3.9-12.8-6.3-21.1-7.2c-8.4-0.9-16.2-0.2-23.4,2.1
			c-7.9,2.6-13.7,6.7-17.3,12.1c-4,6.1-4.9,13.5-2.5,22.1c1.5,5.2,4,9.2,7.6,12.2c3.5,2.9,8.2,5.5,13.9,7.7c0.5,0.2,2.9,1.1,7.2,2.5
			c3,1.1,5.3,2,7,2.9c5.3,2.3,9,5.2,11.1,8.6c2.2,4.1,3.1,8,2.5,11.5c-0.5,3.6-2.1,6.7-4.8,9.5c-2.5,2.6-5.7,4.6-9.4,5.8
			c-3.7,1.2-7.4,1.6-11.1,1c-2.8-0.4-5.7-1.8-8.9-4.1c-0.2,0.1-0.4,0.1-0.6-0.2c-0.1-0.2-0.2-0.4-0.3-0.6c-0.1-0.1-0.3-0.2-0.5-0.3
			c-0.5-0.4-1.9-1.6-4.1-3.7c-1.3-1.1-2.3-1.9-3.2-2.5c-0.3,0.4-1,1.2-1.9,2.3c-1,1.1-1.7,1.9-2.2,2.5
			C53.7,359.6,51.9,361.5,50.3,363.1z M54.4,341v0.2c0.1,0.1,0.2,0.2,0.3,0.3C54.6,341.3,54.5,341.2,54.4,341z M56.8,344.6
			c0.4,0.3,0.8,0.7,1.3,1.3l0.2-0.2c-0.3-0.4-0.6-0.8-1-1.3c-0.1,0-0.2-0.1-0.3-0.2C57,344.4,56.9,344.5,56.8,344.6z M75.1,297.6
			c-0.7-4.2-0.1-7.8,2.1-10.6c0.6-0.8,1.4-1.6,2.2-2.4c-1.4,0.5-2.5,1.3-3.3,2.2c-1.8,2-2.3,4.9-1.6,8.6
			C74.5,296.1,74.8,296.8,75.1,297.6z M79.8,302.7c-0.3-0.4-0.6-0.8-0.8-1.3c-1.7-3-1.7-6.5-0.2-10.5c1.7-4.1,4.2-6.6,7.6-7.3
			c0.4-0.1,0.9-0.2,1.4-0.2c-1.6-0.1-3.1-0.1-4.5,0c-0.3,0.1-0.6,0.2-1,0.2c-2,1-3.6,2.3-4.8,4c-2.1,3.1-2.5,7-1.3,11.8
			c0,0.1,0,0.2,0,0.3C77.4,300.7,78.5,301.7,79.8,302.7z M76,381.8c2.6,1.1,5.4,1.5,8.3,1.4c9.7-0.5,18.4-3.2,25.8-8
			c7.5-4.8,12.6-10.8,15.5-18c1.5-3.5,2.3-7.1,2.4-10.7c0.1-3.7-0.5-7.3-1.8-11c-1.3-3.7-3.6-7.3-6.8-10.9
			c-3.2-3.6-7.2-6.8-12.1-9.6c-8.1-5-14.5-7.6-19.2-7.9c1.2,0.5,2.9,1.3,5.3,2.3c2.4,1,4,1.7,4.8,2c3.5,1.5,6.4,2.9,8.8,4.1
			c2.4,1.3,5,3,7.7,5.1c2.8,2.1,4.9,4.6,6.5,7.6c1.6,2.9,2.5,6.2,2.9,9.8c1,10.7-1.3,19.8-6.8,27.2c-5.5,7.4-12.7,12.5-21.7,15.3
			C89.3,382.1,82.7,382.7,76,381.8z M106.5,290.4c-0.1,0-0.2-0.1-0.3-0.2c-0.3-0.1-0.6-0.3-1-0.5v-0.2c-0.6,0.3-1.3,0.4-1.9,0.2
			c0.7,0.6,1.5,1.3,2.2,1.9C105.9,291.3,106.2,290.8,106.5,290.4z M108,291.9c-0.1-0.1-0.2-0.2-0.3-0.3c-0.3,0.3-0.6,0.7-1,1.1
			c0.1,0.1,0.2,0.2,0.3,0.3C107.3,292.5,107.7,292.2,108,291.9z M109.1,292.8c-0.4,0.5-0.7,0.9-0.8,1.1c1.8,1.6,3.4,3.1,4.9,4.5
			C112.1,296.5,110.7,294.6,109.1,292.8z M111.2,288.2c1.5-2,2.8-3.8,4-5.4c-2.8,3.1-4.2,4.7-4.4,4.9c0,0.2-0.1,0.4-0.2,0.6
			c-0.7,0.8-1.4,1.6-2.1,2.2c0.1,0.1,0.2,0.2,0.3,0.3C109.5,290.1,110.3,289.2,111.2,288.2z M113.5,260.2c0.5,0,0.8,0.3,0.8,0.8
			c0,0.5-0.3,0.8-0.8,0.8c-0.5,0-0.8-0.3-0.8-0.8C112.7,260.5,113,260.2,113.5,260.2z M122.9,275c-0.1,0.1-0.2,0.2-0.3,0.3
			c-0.1,0.3-0.3,0.6-0.6,0.8c-0.1,0.1-0.2,0.2-0.3,0.3c-1.4,1.4-2.8,3-4.3,4.9c1.4-1.5,3.3-3.5,5.9-6.2
			C123.1,275.1,123,275,122.9,275z M124.5,272.3c-0.2-0.2-0.5-0.4-0.8-0.6c-0.4,0.4-0.8,0.8-1.1,1.3c0.1,0.2,0.2,0.5,0.3,0.8
			C123.4,273.2,124,272.7,124.5,272.3z M123.7,274.2l0.2,0.2c0.5-0.5,1.1-1.1,1.6-1.6h-0.2C124.8,273.2,124.2,273.7,123.7,274.2z
			 M126.6,270.6c-0.3-0.2-0.6-0.5-1-0.8c-0.3,0.2-0.6,0.5-0.8,0.8c0.3,0.2,0.6,0.4,0.8,0.5l0.2,0.2
			C126.1,271,126.4,270.8,126.6,270.6z M127.7,271.8c-0.1,0.1-0.2,0.2-0.3,0.3c0.8,0.5,1.6,1,2.2,1.4
			C129,272.9,128.3,272.4,127.7,271.8z"/>
		<path d="M172.5,253.7c0.1-0.3,0.3-0.4,0.6-0.3c0.3,0.1,0.4,0.3,0.3,0.6c-0.8,2.2-1.5,4.9-1.9,8.1c3,0.2,5.7,0.6,8.1,1.1
			c0.1,0,0.2,0.1,0.3,0.2c0.4,0,0.8,0.1,1.1,0.2c0.3,0.1,0.4,0.3,0.3,0.6c-0.1,0.3-0.3,0.4-0.6,0.3c-0.1,0-0.3-0.1-0.5-0.2
			c-0.1,0.3-0.3,0.5-0.6,0.5c-2,0.2-4.7,0.4-7.9,0.5c0.1,0.1,0.2,0.2,0.2,0.3c0,0.4-0.1,0.8-0.2,1.1c0,0.2,0,0.4,0,0.6
			c-0.1,0.4-0.2,0.8-0.3,1.3c0,1,0,2.7,0.1,5.3s0.1,4.6,0.1,6c0,0.2-0.1,0.4-0.3,0.6v25.7c5,0,12.3,0.1,22,0.2
			c9.7,0.2,16.9,0.2,21.7,0.2c0.1-4.1,0.3-10.6,0.6-19.4c0.3-8.8,0.5-15.5,0.5-20.2c-0.3,0.1-0.7,0.2-1.3,0.3
			c-4.7,0.8-8.3,1.3-10.8,1.4c-0.5,0-0.8-0.3-0.8-0.8c0-0.5,0.3-0.8,0.8-0.8c2.4-0.1,5.9-0.6,10.5-1.4c0.7-0.1,1.3-0.2,1.7-0.3
			c0.1-0.1,0.2-0.2,0.3-0.2c0.1,0,0.2,0,0.3,0c-0.1-0.5-0.2-1.1-0.2-1.6c-2.2,0.2-4.4,0.4-6.5,0.6c-0.3,0-0.5-0.2-0.5-0.5
			c0-0.3,0.2-0.5,0.5-0.5c2.1-0.2,4.3-0.4,6.5-0.6c-0.1-2.2-0.3-4.3-0.6-6.2c0-0.2,0.2-0.3,0.5-0.4c0.3-0.1,0.5,0.1,0.5,0.4
			c0.1,0.7,0.2,1.5,0.3,2.4c0.1-1.1,0.2-2.1,0.3-3c0.1-0.5,0.4-0.7,1-0.6c0.5,0.1,0.7,0.4,0.6,1c-0.3,1.9-0.5,4-0.5,6.4
			c5.5-0.3,11.2-0.5,17-0.5c0.1-2.5,0.4-4.8,0.8-6.7c0.1-0.5,0.4-0.7,1-0.6c0.5,0.1,0.7,0.4,0.6,1c-0.4,1.9-0.7,4-0.8,6.4
			c0.4,0,0.8,0,1.1,0c0.4-2.6,0.9-5.3,1.4-7.9c0.1-0.3,0.3-0.4,0.6-0.3c0.3,0.1,0.4,0.3,0.3,0.6c-0.5,2.5-1,5.1-1.3,7.8
			c3.2,0,6.5,0.1,9.9,0.3c0.3,0,0.5,0.2,0.5,0.5c0,0.3-0.2,0.5-0.5,0.5c-3.4-0.2-6.7-0.3-10-0.3c-0.1,0.4-0.2,0.9-0.2,1.4
			c2.5-0.2,4.8-0.6,6.8-1.1c0.5-0.1,0.8,0.1,1,0.6c0.1,0.5-0.1,0.8-0.6,1c-2.2,0.5-4.7,0.9-7.3,1.1c-0.1,0.2-0.2,0.4-0.2,0.5
			c0.6,0.5,1,1.2,1,2.1c-0.7,13.1-0.7,30.2,0,51.2c0.7,23.7,1.1,36.7,1.1,38.8c0.2,0.2,0.3,0.4,0.3,0.6c0,2.2-0.1,4.8-0.2,7.6
			c0,1.5,0,3,0,4.5c0,0.4-0.1,0.8-0.3,1.1c0,0.2,0,0.5,0,0.8c0,0.1,0,0.2,0,0.3c0.6-0.1,1.3-0.2,1.9-0.2c0.2-3.6,0.1-6.7-0.5-9.2
			c-0.1-0.3,0-0.5,0.3-0.6c0.3-0.1,0.5,0,0.6,0.3c0.5,2.8,0.7,5.9,0.5,9.5c2.3-0.1,4.5-0.2,6.5-0.2c0.5,0,0.8,0.3,0.8,0.8
			s-0.3,0.8-0.8,0.8c-2.1,0-4.3,0.1-6.7,0.2c0,0.5-0.1,1.1-0.2,1.7c0.8,0,1.6,0,2.4,0c0.3,0,0.5,0.2,0.5,0.5c0,0.3-0.2,0.5-0.5,0.5
			c-0.8,0-1.6,0-2.4,0c-0.7,6.6-1.1,10.1-1.1,10.5c0,0.3-0.2,0.5-0.5,0.5c-0.3,0-0.5-0.2-0.5-0.5c0-0.7,0.4-4.2,1.1-10.5
			c-0.6,0-1.2,0-1.7,0c-0.2,3.6-0.3,6.7-0.3,9.4c0,0.5-0.3,0.8-0.8,0.8c-0.5,0-0.8-0.3-0.8-0.8c0-2.6,0.1-5.8,0.3-9.5
			c-6-0.1-12.6-0.5-19.7-1.1c0.1,5.2,0.2,8.6,0.2,10.2c0,0.5-0.3,0.8-0.8,0.8s-0.8-0.3-0.8-0.8c0-1.6-0.1-5-0.2-10.3
			c-0.2,0-0.4,0-0.6,0c0,1.6,0,3.9-0.1,6.8c-0.1,3-0.1,5.1-0.1,6.5c0,0.3-0.2,0.5-0.5,0.5c-0.3,0-0.5-0.2-0.5-0.5
			c0-1.5,0-3.7,0.1-6.7c0.1-3,0.1-5.2,0.1-6.7c-1.9-0.2-3.9-0.4-6-0.6c-0.3,0-0.5-0.2-0.5-0.5c0-0.3,0.2-0.5,0.5-0.5
			c2.1,0.2,4.1,0.4,6,0.6c0-0.3,0-0.6,0-0.8h-12.7c-0.5,0-0.8-0.3-0.8-0.8c0-0.5,0.3-0.8,0.8-0.8h12.7v-0.2
			c-0.1-0.1-0.2-0.2-0.2-0.3c0-0.1-0.4-3-1.1-8.6c-0.7-5.6-1.3-10.1-1.6-13.5c-0.8-9.1-0.9-15.7-0.2-19.9c-4.7,0-11.7-0.1-21-0.2
			c-9.3-0.2-16.4-0.2-21.1-0.2c0.5,6.1,0.8,10.8,0.7,14c-0.1,3.2-0.2,7.9-0.5,14.1c-0.3,6.3-0.4,10.9-0.4,13.8
			c3.2,0,5.8,0.1,7.8,0.2c0.5,0,0.8,0.3,0.8,0.8c0,0.5-0.3,0.8-0.8,0.8c-2.2-0.1-5.2-0.2-9.1-0.2c0,0.4,0,1,0,1.6
			c1.6,0.2,3,0.4,4.3,0.6c0.3,0.1,0.4,0.3,0.4,0.6c-0.1,0.3-0.2,0.4-0.4,0.4c-1.4-0.2-2.8-0.4-4.3-0.6c0,1.9,0,3.4,0,4.6
			c0,0.5-0.3,0.8-0.8,0.8c-0.5,0-0.8-0.3-0.8-0.8c0-1.1,0-2.6,0-4.8c-4.3-0.3-9.8-0.6-16.4-0.8c-0.3,0.1-0.6,0.2-1,0.2v14.3
			c0,0.5-0.3,0.8-0.8,0.8c-0.5,0-0.8-0.3-0.8-0.8v-14.1c-0.3,0.1-0.6,0.2-0.8,0.2c0,1.6,0.1,4.3,0.2,8.2c0.1,3.9,0.2,6.9,0.2,9
			c0,0.3-0.2,0.5-0.5,0.5c-0.3,0-0.5-0.2-0.5-0.5c0-2-0.1-5-0.2-8.9c-0.1-3.9-0.2-6.7-0.2-8.3c-1.7,0.1-3.5,0.2-5.4,0.3
			c-0.5,0-0.8-0.3-0.8-0.8c-0.4,0-1,0-1.7,0c-0.7,0-1.2,0-1.5,0c-0.3,0-0.5-0.2-0.5-0.5c0-0.3,0.2-0.5,0.5-0.5c3.6,0,6,0,7.3,0
			c0.6,0,1.3-0.1,1.9-0.2c0-5.6,0.3-10.4,1-14.3c0-0.2,0.1-0.3,0.2-0.3c0-2.5-0.4-15.7-1.1-39.6c-0.5-16.4-0.7-30-0.5-40.9
			c-0.1-1.9-0.2-3.7-0.3-5.4c-0.3,0-0.5-0.2-0.5-0.5v-5.1c-2.8,0.2-5.7,0.5-8.9,1c-0.5,0.1-0.8-0.1-1-0.6c-0.1-0.5,0.1-0.8,0.6-1
			c3.3-0.4,6.4-0.7,9.2-1v-3.2c-0.7,0.1-1.4,0.2-2.1,0.2c-0.3,0-0.5-0.2-0.5-0.5c0-0.3,0.2-0.5,0.5-0.5c0.6,0,1.3-0.1,2.1-0.2v-5.9
			c0-0.3,0.2-0.5,0.5-0.5c0.1,0,0.2,0.1,0.3,0.2c0.1-0.8,0.2-1.7,0.3-2.5c0.1-0.5,0.4-0.7,1-0.6c0.5,0.1,0.7,0.4,0.6,1
			c-0.3,2.6-0.5,5.5-0.6,8.4c9.9-0.6,17.1-0.8,21.8-0.6c0.2-2,0.4-3.9,0.6-5.6c0.1-0.5,0.4-0.7,1-0.6c0.1,0,0.3,0.1,0.5,0.3
			C172.1,255.2,172.3,254.4,172.5,253.7z M142.5,260.7c0.5,0,0.8,0.3,0.8,0.8c0,0.5-0.3,0.8-0.8,0.8c-0.5,0-0.8-0.3-0.8-0.8
			C141.7,261,141.9,260.7,142.5,260.7z M169.2,263.6c0.2,0,0.4,0,0.6,0c0-0.2,0-0.4,0-0.6c-4.7-0.2-11.9,0-21.8,0.6
			c-0.1,1-0.2,2-0.2,3c0.2,0,0.4,0,0.6,0c0.4-0.2,0.8-0.3,1.3-0.3h0.2c0.3-1.1,1.1-1.6,2.2-1.6c3.7,0,8-0.2,12.9-0.6
			c0.2-0.1,0.4-0.2,0.5-0.2c0.4,0,0.8,0,1.3,0C167.5,263.8,168.3,263.7,169.2,263.6z M148.2,374.3c0.3-0.1,0.6-0.2,1-0.2V374
			c-0.3-0.2-0.6-0.4-1-0.6c0,0.1,0,0.3,0,0.5C148.2,374.1,148.2,374.2,148.2,374.3z M148.3,370.2c0-0.1,0.1-0.2,0.2-0.2
			c0-1.3,0-2.5,0-3.8C148.4,367.5,148.3,368.8,148.3,370.2z M168.1,311.1c-1.6,0-2.4-0.8-2.4-2.4c0-0.2,0-0.4,0-0.5
			c0-0.1,0-0.3,0-0.5c0-2-0.1-5.9-0.4-11.7c-0.3-5.8-0.3-10.8-0.2-15.2c0.2-4.3,0.6-8.4,1.4-12.2c-5.5,0.5-10.3,0.8-14.3,0.8H152
			c-0.6,13-0.6,29.9,0,50.5c0.8,26.9,1.3,43.4,1.3,49.6c1.8,0,5.6,0,11.4,0c0-2.4-0.1-6-0.2-10.6c-0.2-4.6-0.2-7.3-0.2-8.2
			c-0.2-8.4-0.1-15.3,0.5-20.8c0-0.3,0.1-0.6,0.2-0.8c-0.2-0.4-0.3-0.8-0.3-1.3c0-1.6,0.8-2.4,2.4-2.4c5.6,0,14.1,0.1,25.4,0.2
			c11.3,0.2,19.8,0.2,25.4,0.2c0.6,0,1.2,0.2,1.7,0.7c0.5,0.5,0.7,1,0.7,1.7c0.6,0.5,0.9,1.2,0.8,1.9c-0.5,5.4-0.7,12.2-0.5,20.3
			c0,1.1,0.1,3.8,0.2,8.3c0.2,4.5,0.2,7.8,0.2,10.2c2-0.2,7.1-0.3,15.3-0.3h0.2c0-5.8-0.4-22-1.3-48.5c-0.6-20.8-0.6-37.7,0-50.9
			c-7.3,0-11.7,0.1-13,0.3c0.1,0.2,0.2,0.5,0.2,0.8c-0.2,3.8-0.3,7.9-0.3,12.2s0.1,9.1,0.2,14.3c0.1,5.2,0.2,9.3,0.2,12.2
			c0,0.6-0.2,1.2-0.7,1.7c-0.5,0.5-1,0.7-1.7,0.7c-0.2,0-0.4,0-0.5,0c-0.1,0-0.3,0-0.5,0c-5.6,0-14.1-0.1-25.4-0.2
			C182.1,311.2,173.7,311.1,168.1,311.1z M156.6,374.7c4.3,0.1,8.2,0.3,11.4,0.6c0-0.4,0-0.8,0-1.1c-0.3,0.1-0.6,0.2-1,0.2
			c-1,0-2.6,0-4.9,0c-2.3,0-4.1,0-5.4,0C156.8,374.4,156.7,374.6,156.6,374.7z M170,372.3c0-3.1,0.2-7.7,0.5-14
			c0.3-6.3,0.5-11,0.5-14.1c0-3.2-0.3-7.8-0.8-13.8c-0.2,0-0.4,0-0.6,0c-0.5,5.4-0.7,12.2-0.5,20.3c0,1.4,0.1,4.1,0.2,8.1h0.3
			c0.5,0.1,0.7,0.4,0.6,1c-0.4,3.2-0.6,7.4-0.6,12.6c0.1,0,0.2,0,0.3,0H170z M170.3,280.7c-0.1,4.5-0.2,7.4-0.3,8.9v0.2
			c0,1.4,0.1,3.3,0.2,5.9c0.1,2.5,0.2,4,0.2,4.3V280.7z M175.5,263.6c-1.3-0.2-2.7-0.4-4.1-0.5c0,0.2,0,0.4,0,0.6
			C173,263.6,174.4,263.6,175.5,263.6z M215.9,364.3h0.2c0-1.5-0.1-3.7-0.2-6.8c-0.1-3-0.2-5.3-0.2-6.8c-0.2-8.1-0.1-14.7,0.5-20
			c-0.7,0-1.4,0-2.1,0c-0.7,4-0.7,10.7,0.2,19.9C214.6,354.2,215.2,358.7,215.9,364.3z M216.7,280.1c-0.5,16.1-0.8,25-0.8,26.7
			c0.5,0,1.1,0,1.6,0c0-1.9-0.1-5.9-0.2-12.1c-0.1-6.1-0.2-10.9-0.2-14.3C217,280.4,216.8,280.3,216.7,280.1z M217.2,375.6
			c0.2,0,0.4,0,0.5,0c0-0.2,0-0.5,0-0.8h-0.5C217.2,375.1,217.2,375.4,217.2,375.6z M225.1,264.5c0.1,0,0.3,0.1,0.5,0.2
			c0.4-0.1,2.1-0.1,4.9-0.1c2.9,0.1,4.5,0.1,4.8,0.1c0.2,0,0.4,0,0.5,0c0-0.4,0-0.9,0-1.4c-5.8,0-11.5,0.2-17,0.5
			c0.1,0.5,0.2,1,0.2,1.4C221.2,264.8,223.3,264.6,225.1,264.5z M219.2,374.8c0,0.3,0,0.6,0,1c7.2,0.6,13.8,1,19.9,1.1
			c0-0.4,0-0.8,0-1.3c-1.9,0.1-4.3,0.3-7.3,0.5c-0.5,0-0.8-0.3-0.8-0.8c0-0.5,0.3-0.8,0.8-0.8c2.5-0.2,4.8-0.4,6.7-0.5
			c-0.5-0.1-1-0.3-1.3-0.6c-0.3,0.1-0.6,0.2-1,0.2c-0.2,0-1.9,0-5.1-0.1c-3.2-0.1-4.8,0-4.9,0.1c0.1,0.1,0.2,0.3,0.2,0.5
			c0,0.5-0.3,0.8-0.8,0.8H219.2z M238.5,263.2c-0.4,0-0.8,0-1.1,0c0,0.5,0,1.1,0,1.7c0.3,0,0.6,0,1,0
			C238.3,264.4,238.4,263.8,238.5,263.2z M242.4,377c0.1-0.6,0.2-1.2,0.2-1.7c-0.6,0.1-1.3,0.2-1.9,0.2c0,0.5,0,1.1,0,1.6
			C241.2,377,241.8,377,242.4,377z"/>
		<path d="M355.3,378.5c0.3,0,0.5,0.2,0.5,0.5c0,0.3-0.2,0.5-0.5,0.5c-3.5-0.2-7.2-0.3-11-0.3c0,1.2,0,2.4,0,3.8v0.2
			c-0.1,3.9-0.2,7.3-0.2,10c0,0.3-0.2,0.5-0.5,0.5c-0.3,0-0.5-0.2-0.5-0.5c0-3.2,0.1-7.9,0.2-14.1c-0.3,0-0.6,0-1,0c0,0.5,0,1,0,1.3
			c0,0.5-0.3,0.8-0.8,0.8c-0.5,0-0.8-0.3-0.8-0.8c0-0.4,0-0.8,0-1.3c-0.2,0-0.4,0-0.6,0c-3.4,0.3-6.1,0.5-8.3,0.5
			c-0.3,0-0.5-0.2-0.5-0.5v-0.2c-8.3,0-19.9,0.1-35,0.3c-15.1,0.2-25.4,0.3-30.8,0.3v0.2v0.2h12.9c0.3,0,0.5,0.2,0.5,0.5
			s-0.2,0.5-0.5,0.5h-12.9c0,1.2,0,2.8,0,5c0,2.2,0,3.7,0,4.5c0,0.5-0.3,0.8-0.8,0.8c-0.5,0-0.8-0.3-0.8-0.8c0-0.8,0-2.4,0-4.5
			c0-2.2,0-3.8,0-5h-1.4c0,4.5,0.2,8.4,0.5,11.9c0,0.3-0.2,0.5-0.5,0.5c-0.3,0-0.5-0.2-0.5-0.5c-0.3-3.5-0.5-7.5-0.5-11.9h-8.9
			c-0.3,0-0.5-0.2-0.5-0.5s0.2-0.5,0.5-0.5h8.9v-0.2v-0.2c-0.3,0-0.5-0.2-0.5-0.5c0-0.3,0.2-0.5,0.5-0.5c0-0.1,0-0.2,0-0.3
			c-5.1,0-9.9-0.3-14.3-1c-0.3,0-0.5-0.2-0.5-0.5c0-0.3,0.2-0.5,0.5-0.5c4.6,0.6,9.3,1,14.3,1c0-0.3,0-0.6,0-1
			c-4.5,0-8.4-0.2-11.8-0.5c-0.5,0-0.8-0.3-0.8-0.8c0-0.5,0.3-0.8,0.8-0.8c3.5,0.3,7.4,0.5,11.8,0.5c0.2-9.9,0.3-14.9,0.3-15.3
			c0-0.3,0.2-0.5,0.5-0.5s0.5,0.2,0.5,0.5c0,0.3-0.1,5.4-0.3,15.3c0.5,0,1,0,1.4,0c0-0.7,0-1.5,0-2.4c-0.1-0.3-0.2-0.6-0.2-1
			c0-6.7-0.4-23.7-1.3-51.2c-0.5-16.3-0.7-29.8-0.5-40.5c-0.2-0.1-0.3-0.3-0.3-0.6c0-5.3,0.1-9.4,0.3-12.4c-0.5,0.1-1.1,0.2-1.6,0.2
			c-0.3,9-0.1,15.9,0.6,20.8c0,0.3-0.2,0.5-0.5,0.5c-0.3,0-0.5-0.2-0.5-0.5c-0.7-4.9-1-11.8-0.6-20.8c-2.6,0.2-5.2,0.5-7.8,0.8
			c-0.5,0.1-0.8-0.1-1-0.6c-0.1-0.5,0.1-0.8,0.6-1c2.6-0.3,5.4-0.6,8.1-0.8c0-0.2,0.1-0.5,0.2-0.8c-2.1,0.1-4.2,0.2-6.4,0.3
			c-0.3,0-0.5-0.2-0.5-0.5c0-0.3,0.2-0.5,0.5-0.5c2.1-0.1,4.2-0.2,6.4-0.3c0.1-3.9,0.2-6.9,0.2-9.1c0-0.3,0.2-0.5,0.5-0.5
			s0.5,0.2,0.5,0.5c0,2.2-0.1,5.2-0.2,9.1c0.5-0.1,1.1-0.2,1.7-0.2c0.3-3.1,0.8-5.9,1.4-8.6c0.1-0.5,0.4-0.7,1-0.6
			c0.5,0.1,0.7,0.4,0.6,1c-0.6,2.5-1.1,5.3-1.4,8.3c3.1-0.1,6.1-0.2,9.2-0.2c0.3,0,0.5,0.2,0.5,0.5c0,0.3-0.2,0.5-0.5,0.5
			c-3.1,0-6.2,0.1-9.4,0.2c0,0.2,0,0.5,0,0.8c3.8-0.2,7.6-0.3,11.4-0.3c0.5,0,0.8,0.3,0.8,0.8v0.2c2,0,5.7-0.1,11-0.2
			c5.4-0.2,9.4-0.3,12.2-0.3c2.8-0.1,6.3-0.1,10.7-0.1s8.5,0.1,12.2,0.3c3.8,0.2,7.5,0.5,11.2,1c0.3,0,0.6,0.1,1,0.3
			c0.1,0,0.2-0.1,0.2-0.2c0-0.4,0.1-0.8,0.2-1.3c-0.7,0-1.7,0-2.9,0c-1.2,0-2,0-2.5,0c-0.3,0-0.5-0.2-0.5-0.5c0-0.3,0.2-0.5,0.5-0.5
			c0.5,0,1.4,0,2.5,0c1.2,0,2.1,0,2.9,0c0.1-2.3,0.4-4.3,0.8-5.9c0.2-0.5,0.6-0.7,1-0.6c0.5,0.2,0.7,0.5,0.6,0.9
			c-0.4,1.6-0.7,3.4-0.8,5.6c0.7,0,1.4,0,2.1,0c-0.1-3.4-0.4-6.5-0.8-9.4c0-0.3,0.2-0.5,0.5-0.5s0.5,0.2,0.5,0.5
			c0.4,2.9,0.7,6,0.8,9.4c3.5-0.1,6.5-0.4,9.1-1c0.3,0,0.5,0.1,0.6,0.4c0.1,0.3,0,0.5-0.2,0.6c-2.7,0.4-5.8,0.7-9.4,1
			c0.1,0.3,0.2,0.7,0.2,1.1c1.9-0.2,3.7-0.3,5.2-0.3c0.5,0,0.8,0.3,0.8,0.8c0,0.5-0.3,0.8-0.8,0.8c-1.5,0-3.2,0.1-5.2,0.3
			c0.1,3,0.1,6.4,0,10.3h6c0.3,0,0.5,0.2,0.5,0.5c0,0.3-0.2,0.5-0.5,0.5h-6c-0.1,0.6-0.2,1.4-0.2,2.2c1.8-0.2,3.7-0.4,5.7-0.5
			c0.5,0,0.8,0.3,0.8,0.8c0,0.5-0.3,0.8-0.8,0.8c-0.1,0-0.3,0-0.5,0c-0.1,0.1-0.2,0.2-0.3,0.2c-1.9,0.2-3.6,0.4-4.9,0.5
			c0,0.3,0,0.9-0.1,1.7c-0.1,0.8-0.1,1.4-0.1,1.8c0.4,0,0.8,0,1.1,0s0.5,0.2,0.5,0.5c0,0.3-0.2,0.5-0.5,0.5s-0.7,0-1.1,0
			c-0.1,4.1-0.2,7.5-0.2,10c0,0.3-0.2,0.5-0.5,0.5c-0.3,0-0.5-0.2-0.5-0.5c0-2.5,0.1-5.9,0.2-10c-0.6,0-1.3,0-2.1,0
			c0,0.5,0,1.2,0,2.1c0,0.9,0,1.5,0,1.8c0,0.5-0.3,0.8-0.8,0.8c-0.5,0-0.8-0.3-0.8-0.8c0-0.3,0-0.9,0-1.8c0-0.9,0-1.6,0-2.1
			c-4.7,0.1-11.7,0.5-21,1.1c-10.7,0.6-18.8,1-24.2,1.1c0,2.2,0.1,5,0.2,8.3c0.2,6.7,0.3,10.3,0.3,10.8c15,1.7,29.6,1.7,43.6,0.2
			c0.4,0,0.8,0.1,1.1,0.2v-1.3c-2.4,0.2-4.3,0.4-5.7,0.5c-0.3,0-0.5-0.2-0.5-0.5c0-0.3,0.2-0.5,0.5-0.5c1.3-0.1,3.2-0.3,5.7-0.5v-4
			c0-0.3,0.2-0.5,0.5-0.5c0.3,0,0.5,0.2,0.5,0.5v4c0.1,0,0.2,0,0.3,0c0.1-1.5,0.2-2.6,0.2-3.5c0-0.5,0.3-0.8,0.8-0.8
			c0.5,0,0.8,0.3,0.8,0.8c0,0.8-0.1,2-0.2,3.3c0.6-0.1,1.3-0.2,1.9-0.2c0.1-1.1,0.2-2.1,0.3-3.2c0-0.3,0.2-0.5,0.5-0.5
			c0.3,0,0.5,0.2,0.5,0.5c-0.1,1.1-0.2,2.1-0.3,3.2c2.9-0.2,5.4-0.3,7.5-0.3c0.3,0,0.5,0.2,0.5,0.5c0,0.3-0.2,0.5-0.5,0.5
			c-2.2,0-4.8,0.1-7.6,0.3c-0.1,0.7-0.2,1.5-0.2,2.2c2.8-0.2,5.2-0.2,7.5,0.2c0.5,0.1,0.7,0.4,0.6,1c-0.1,0.5-0.4,0.7-1,0.6
			c-2.1-0.3-4.6-0.4-7.3-0.2c-0.5,5.2-1.1,11.4-1.6,18.6c1.3-0.1,2.4-0.3,3.5-0.5c0.5-0.1,0.8,0.1,1,0.6c0.1,0.5-0.1,0.8-0.6,1
			c-1.3,0.2-2.6,0.4-4,0.5c0,0.3-0.1,0.6-0.2,1c0.4-0.1,0.8-0.2,1.1-0.2c0.1,0,0.2,0.1,0.3,0.2c0.2,0,0.4,0,0.5,0
			c0.3,0,0.5,0.2,0.5,0.5c0,0.3-0.2,0.5-0.5,0.5c-0.6,0.1-1.3,0.2-1.9,0.2c-0.1,0.7-0.2,1.4-0.2,2.1c0,0.3-0.2,0.5-0.5,0.5
			s-0.5-0.2-0.5-0.5c0-0.6,0.1-1.3,0.2-1.9c-0.3,0-0.7,0.1-1.1,0.2c0,1.1,0,3.1,0,6.2c0,0.3-0.2,0.5-0.5,0.5s-0.5-0.2-0.5-0.5
			c0-3.1,0-5.1,0-6.2c-0.2,0.1-0.5,0.2-0.8,0.2c0,1.4,0,3,0,4.9c0,0.5-0.3,0.8-0.8,0.8c-0.5,0-0.8-0.3-0.8-0.8c0-1.9,0-3.5,0-4.8
			c-2.6,0.3-5.4,0.6-8.3,0.8c-0.3,0-0.5-0.2-0.5-0.5c0-0.2,0.1-0.4,0.3-0.5c-5.8,0.2-16.4,0.3-31.8,0.3c-0.1,4.2-0.2,11.4-0.2,21.6
			c0.6,0.2,3.4,0.2,8.2,0.1s7.7-0.2,8.5-0.2c3.3,0,8.1,0.1,14.5,0.3s11.3,0.3,14.5,0.3c0.5,0,1.1,0.2,1.6,0.5c0.1,0,0.3,0,0.5,0
			c0.3,0,0.6,0.1,0.8,0.2c0.1-0.5,0.2-1.1,0.3-1.7c-1.9,0-3.7,0.1-5.4,0.2c-0.3,0-0.5-0.2-0.5-0.5c0-0.3,0.2-0.5,0.5-0.5
			c-5.1-0.1-11.9,0-20.3,0.3c-9.5,0.3-16.2,0.5-20,0.5c-0.3,0-0.5-0.2-0.5-0.5s0.2-0.5,0.5-0.5c3.2,0,10.2-0.2,21-0.6
			c10.8-0.4,19.1-0.4,25-0.1c0.1-0.6,0.2-1.4,0.3-2.4c0.1-0.5,0.4-0.7,1-0.6c0.1,0,0.2,0.1,0.3,0.2c-0.1-1.1-0.2-2.1-0.3-3
			c0-0.2,0.1-0.3,0.4-0.4c0.3-0.1,0.5,0.1,0.6,0.4c0.1,0.4,0.2,0.9,0.2,1.4c0.3,0,0.5,0.2,0.5,0.5c0.1,1.3,0.2,2.6,0.2,4.1
			c1.8,0.1,3.6,0.3,5.2,0.5c1.2,0,2.1,0,2.7,0c0.3,0,0.5,0.2,0.5,0.5s-0.2,0.5-0.5,0.5c-0.6,0-1.5,0-2.7,0h-0.2c-2.2,0-3.9,0-4.9,0
			c0,0.6,0,1.3,0,2.1c2-0.1,3.9-0.2,5.6-0.2c0.5,0,0.8,0.3,0.8,0.8c0,0.5-0.3,0.8-0.8,0.8c-1.7,0-3.6,0.1-5.6,0.2
			c0.1,2.9,0.1,6.1,0,9.9c0.1-0.4,0.2-0.8,0.3-1.3c0.1-0.3,0.3-0.4,0.6-0.3c0.3,0.1,0.4,0.3,0.3,0.6c-0.5,2.2-0.9,4.7-1.1,7.3
			c2-0.1,3.9-0.1,5.6,0.2c0.5,0.1,0.7,0.4,0.6,1c-0.1,0.5-0.4,0.7-1,0.6c-1.6-0.2-3.4-0.3-5.4-0.2c0,0.2,0,0.4,0,0.6
			c2.9-0.2,5.3-0.3,7.3-0.3c0.3,0,0.5,0.2,0.5,0.5s-0.2,0.5-0.5,0.5c-0.8,0-1.8,0-2.9,0C351.2,378.3,353.3,378.4,355.3,378.5z
			 M255.5,258.8c0.5,0,0.8,0.3,0.8,0.8c0,0.5-0.3,0.8-0.8,0.8c-0.5,0-0.8-0.3-0.8-0.8C254.7,259.1,254.9,258.8,255.5,258.8z
			 M260.7,264.4c0,0.2-0.1,0.5-0.2,0.8c0.6,0,1.2-0.1,1.7-0.2c0-0.2,0-0.5,0-0.8C261.8,264.2,261.2,264.3,260.7,264.4z M262.6,377.2
			c0.5,0,1,0,1.4,0c0-0.3,0-0.6,0-1c-0.4,0-0.9,0-1.4,0C262.6,376.6,262.6,376.9,262.6,377.2z M262.6,378.2c0,0.1,0,0.2,0,0.3
			c0.3,0,0.8,0,1.4,0v-0.2v-0.2C263.6,378.2,263.2,378.2,262.6,378.2z M262.6,379.7h1.4v-0.2v-0.2c-0.4,0-0.9,0-1.4,0v0.2V379.7z
			 M265.6,374.7c0.2,0,0.4,0,0.6,0c-0.2-0.3-0.3-0.6-0.3-1c-0.1,0-0.2,0-0.3,0C265.6,374,265.6,374.3,265.6,374.7z M269.6,377
			c0.3,0,0.5,0.2,0.5,0.5c0,0.3-0.2,0.5-0.5,0.5c-1.4,0.1-2.7,0.2-4,0.2v0.2v0.2c5.2,0,15.6-0.1,31.2-0.3
			c15.6-0.2,27.6-0.3,36.1-0.3c-0.2-0.1-0.3-0.3-0.3-0.6c0-0.5,0.3-0.8,0.8-0.8c0.2,0,2.8-0.3,7.6-0.8c0-0.3,0-0.6,0-0.8
			c-0.4,0.3-1,0.5-1.6,0.5c-0.2,0-0.4-0.1-0.5-0.2c-0.2,0.1-0.4,0.2-0.6,0.2c-4.7,0-11.8,0.2-21.5,0.6c-9.7,0.4-17.5,0.7-23.4,0.9
			c-5.9,0.2-13.2,0-22-0.6c-2.8,0-4.7,0-5.7,0c0,0.3,0,0.6,0,1C266.9,377.2,268.2,377.2,269.6,377z M282.3,285.2
			c0-0.6,0.2-1.2,0.6-1.7c0.4-0.5,1-0.8,1.6-0.8c0.4,0,0.8,0.1,1.1,0.2c0.3-0.3,0.6-0.5,1-0.6c4.5-1.1,10.3-1.5,17.5-1.3
			c11.2,0.3,16.9,0.5,17,0.5c1.4,0,3.8-0.2,7.3-0.5c2.3-0.2,4.2-0.4,5.7-0.5c-0.1-0.2-0.2-0.4-0.2-0.6c0-0.7-0.1-1.8-0.2-3.2
			c-0.1-1.4-0.2-2.2-0.2-2.4c-0.1-1.2-0.2-2.2-0.2-3.2c-0.2,0-0.4,0-0.6,0c-6.5-0.7-13.2-1.2-20.2-1.3c-7-0.1-15.3,0-25,0.3
			c-9.6,0.3-16.5,0.5-20.5,0.5c-0.5,12.7-0.5,29.2,0.2,49.4c0.8,27.4,1.3,44.5,1.3,51.2c9.1,0.7,16.4,1.1,21.9,1
			c5.5-0.1,13.4-0.4,23.8-0.9c10.4-0.5,18.1-0.7,23-0.7c0.2-3.4,0.3-6.5,0.3-9.2c-3.2,0-7.9-0.1-14.3-0.3
			c-6.4-0.2-11.2-0.3-14.5-0.3c-1.1,0-3,0.1-6,0.2c-2.9,0.1-5.5,0.1-7.9,0.1c-2.3-0.1-4.5-0.2-6.5-0.6c-0.4,0.3-0.9,0.5-1.4,0.5
			c-1.3,0-2.1-0.6-2.4-1.9c-0.3-0.5-0.4-1.1-0.3-1.7c0.1-0.3,0.2-0.6,0.3-0.8c0.1-13.9,0.1-22.5-0.2-25.9c0-0.8,0.3-1.5,1-2.1
			c0.4-0.8,1.1-1.3,2.1-1.3c5,0,12.3-0.1,21.9-0.3c9.6-0.2,16.7-0.3,21.2-0.3c0.1-4.5,0.5-8.6,1.1-12.6c-14.8,1.5-29.9,1.3-45.1-0.6
			c-0.6-0.1-1.2-0.4-1.6-1c-0.4-0.5-0.6-1.1-0.5-1.7c-0.5-1.9-0.9-4.1-1.2-6.5c-0.3-2.4-0.5-4.5-0.6-6.2c-0.1-1.7-0.2-3.9-0.2-6.7
			C282.5,288.5,282.4,286.4,282.3,285.2z M331,262.3c0.2,0,0.3,0.1,0.4,0.4c0.1,0.3-0.1,0.5-0.4,0.6c-5.1,0.8-10.5,1.3-16.1,1.4
			c-5.7,0.1-12.3,0-20-0.2c-7.7-0.3-13.1-0.4-16.3-0.4c-0.3,0-0.5-0.2-0.5-0.5c0-0.3,0.2-0.5,0.5-0.5c3.3,0,8.7,0.1,16.4,0.4
			c7.6,0.3,14.3,0.3,19.9,0.2C320.4,263.6,325.8,263.1,331,262.3z M287.9,286.9c-0.2,0-0.4,0-0.6,0c0,0.5,0,1.2,0,1.9
			c0.4,0,0.8,0,1.3,0c0-0.7,0-1.5,0-2.2C288.3,286.7,288.1,286.8,287.9,286.9z M288.5,289.8c-0.4,0-0.8,0-1.3,0
			c0.2,8.8,0.8,15,1.7,18.8c0-0.3-0.1-3.8-0.3-10.3C288.6,294.9,288.5,292.1,288.5,289.8z M291.4,334.5h-0.6c-0.3,0-0.5-0.2-0.5-0.5
			c0-0.3,0.2-0.5,0.5-0.5h0.8c0-0.5,0-1.1,0-1.6c-0.7,0-1.5,0-2.2,0c0.2,3.3,0.3,11.2,0.2,23.8c0.5,0.1,1.1,0.2,1.7,0.2
			C291.2,345.8,291.3,338.7,291.4,334.5z M289.5,288.8c5.4-0.1,13.5-0.5,24.2-1.1c9.3-0.5,16.3-0.9,21-1.1c0-0.4,0-0.9,0-1.4
			c-1.4,0.1-3.3,0.3-5.7,0.5c-3.6,0.3-6.2,0.5-7.8,0.5c-0.1,0-5.8-0.2-17.2-0.5c-5.9-0.2-10.8,0.1-14.5,0.8
			C289.5,287.2,289.5,288,289.5,288.8z M292.5,333.5c19.1,0,32.5-0.2,40.2-0.6c0-0.3,0-0.6,0-1c-0.6,0-1.7,0-3.2,0.1
			c-1.5,0.1-2.7,0.1-3.5,0.1c-0.5,0-0.8-0.3-0.8-0.8c-3.3,0.1-8.6,0.2-15.9,0.4c-7.3,0.2-12.9,0.2-16.8,0.2
			C292.5,332.4,292.5,333,292.5,333.5z M335.1,332.7c0-0.3,0-0.6,0-1c-0.2,0-0.5,0-0.8,0c0,0.3,0,0.6,0,1
			C334.5,332.7,334.8,332.7,335.1,332.7z M340.2,378c0.2,0,0.4,0,0.6,0c0-0.2,0-0.5,0-0.8c-3.9,0.4-6,0.6-6.2,0.6
			C336.5,377.9,338.4,378,340.2,378z M336.7,322.5c0.1-0.3,0.3-0.4,0.6-0.3c0.3,0.1,0.4,0.3,0.3,0.6c-0.7,2.1-1.2,4.6-1.4,7.3
			c0.3-0.1,0.7-0.2,1.1-0.2c0.5-7.1,1.1-13.3,1.6-18.6c-0.5,0-1.1,0.1-1.6,0.2c-0.1,2.8-0.4,5.1-0.8,7c-0.1,0.4-0.3,0.6-0.6,0.6
			c-0.3,2.8-0.5,5.7-0.5,8.7c0,0.4-0.1,0.8-0.3,1.3c0,0.3-0.1,0.6-0.3,1c0.1,0,0.3,0,0.5,0C335.5,327.3,336,324.8,336.7,322.5z
			 M335.4,256.1c0.3,0,0.5,0.2,0.5,0.5c0,0.3-0.2,0.5-0.5,0.5s-0.5-0.2-0.5-0.5C334.9,256.2,335.1,256.1,335.4,256.1z M335.6,307.9
			v1.9c0.1,0.1,0.2,0.2,0.2,0.3l0.2-0.2c0-0.5,0-1.2,0-2.1C335.8,307.9,335.7,307.9,335.6,307.9z M337,332.5c0.1-0.3,0.2-0.6,0.2-1
			c-0.4,0.1-0.8,0.2-1.1,0.2c0,0.3,0,0.6,0,0.8C336.4,332.5,336.7,332.5,337,332.5z M338.4,265.2c-0.6,0-1.3,0-2.1,0
			c-0.1,0.3-0.2,0.6-0.2,1c0.3,0.1,0.6,0.2,1,0.3c0.1,0,0.2,0,0.3,0c0.4,0,0.8-0.1,1.1-0.2C338.6,265.9,338.5,265.6,338.4,265.2z
			 M338.3,286.6c0-0.3,0-0.8,0.1-1.5c0.1-0.7,0.1-1.1,0.1-1.4c-0.4,1-1.2,1.4-2.2,1.4c0,0.4,0,0.9,0,1.4
			C337,286.6,337.6,286.6,338.3,286.6z M339.2,307.6c-0.5,0.1-1.1,0.2-1.7,0.2c0,1,0,1.7,0,2.2c0.5-0.1,1.1-0.2,1.6-0.2
			C339.1,309.1,339.1,308.3,339.2,307.6z M338.4,281.4c0-0.2,0-0.4,0-0.6c-0.1,0.2-0.2,0.4-0.3,0.6
			C338.2,281.4,338.3,281.4,338.4,281.4z M338.6,267.9c-0.1,0-0.2,0.1-0.3,0.2c0,0.2,0,0.4,0,0.6c-0.1,1.4-0.1,3.1,0.2,5.2
			c0,0.1,0.1,1.1,0.2,2.9C338.6,273.5,338.6,270.5,338.6,267.9z M343.4,359.1c-0.2,2.4-0.4,4.2-0.5,5.2c0,0.3-0.2,0.5-0.5,0.5h-0.2
			c0,1.5-0.1,3-0.2,4.6c0.3,1.6,0.5,3.6,0.5,6c0.3,0,0.6-0.1,1-0.2c0.1-6.7,0.1-12.1,0-16.2H343.4z M342.7,355.4
			c-0.1,0.7-0.2,1.4-0.3,2.1h0.2C342.7,356.8,342.7,356.1,342.7,355.4z M343.4,377.7c0-0.2,0-0.5,0-0.8c-0.2,0.1-0.5,0.2-0.8,0.2
			v0.3c-0.1,0.2-0.2,0.4-0.2,0.5C342.8,377.7,343.2,377.7,343.4,377.7z"/>
		<path d="M368.5,252.1c0-0.3,0.2-0.5,0.5-0.5c0.3,0,0.5,0.2,0.5,0.5c0,1.4,0,3.3-0.1,5.9c-0.1,2.5-0.1,4-0.1,4.5c2,0,4.1,0,6.3-0.1
			c2.2-0.1,4.6-0.1,7.2-0.2c2.6-0.1,4.6-0.1,6.1-0.1c0-1.1,0-2.5,0-4.5c0-1.9,0-3.3,0-4.1c0-0.3,0.2-0.5,0.5-0.5
			c0.3,0,0.5,0.2,0.5,0.5c0,0.8,0,2.2,0,4.1c0,1.9,0,3.3,0,4.3c0.2,0,0.4,0,0.6,0c0.3-2.4,0.8-4.7,1.6-6.7c0.2-0.4,0.6-0.6,1-0.4
			c0.5,0.2,0.7,0.5,0.6,1c-0.7,1.8-1.3,3.8-1.6,6c5.9-0.1,11.1-0.2,15.4-0.2c0.3,0,0.5,0.2,0.5,0.5c0,0.3-0.2,0.5-0.5,0.5
			c-4.4,0-9.6,0.1-15.6,0.2c-0.1,0.7-0.2,1.5-0.2,2.2c4.1,0.1,7.3-0.1,9.5-0.5c0.5-0.1,0.8,0.1,1,0.6c0.1,0.5-0.1,0.8-0.6,1
			c-2.2,0.3-5.1,0.5-8.7,0.5c0,0.1,0,0.3,0,0.5c0,0.5-0.2,1-0.5,1.4c-0.5,3-0.8,6.4-0.8,10.2c0,1.9,0,3.4,0,4.6
			c0,0.1-0.1,0.3-0.2,0.5c0,6-0.1,10.2-0.2,12.6c-0.7,12.3-1.1,30.9-1.1,55.9c1.2,0,4.6-0.1,10.2-0.2c5.7-0.1,9.7-0.2,12.1-0.2
			c2.4,0,5.7,0.1,9.9,0.2c4.2,0.2,8.1,0.4,11.4,0.7c0-2.5,0.2-4.8,0.6-6.7c0.1-0.5,0.4-0.7,1-0.6c0.5,0.1,0.7,0.4,0.6,1
			c-0.4,1.9-0.6,4.1-0.6,6.5c1,0.2,1.9,0.4,2.9,0.5c0-4.6,0-7.4,0-8.4c0-0.3,0.2-0.5,0.5-0.5c0.3,0,0.5,0.2,0.5,0.5c0,1,0,3.8,0,8.6
			c0.4,0.1,0.9,0.2,1.4,0.2c1.7-0.1,3.3-0.2,4.9-0.3c0.5,0,0.8,0.3,0.8,0.8c0,0.5-0.3,0.8-0.8,0.8c-1.9,0.1-4,0.3-6.4,0.5
			c0.1,8.5-0.1,15.3-0.6,20.3c1.7-0.2,3.2-0.5,4.6-1c0.4-0.1,0.7,0.1,0.9,0.6c0.2,0.5,0,0.8-0.6,1c-1.5,0.4-3.2,0.7-5.1,1
			c0,0.3-0.1,0.6-0.2,0.8c2.2,0,4.3,0,6.2,0c0.3,0,0.5,0.2,0.5,0.5c0,0.3-0.2,0.5-0.5,0.5c-1.9,0-4,0-6.2,0c-0.4,2.4-0.9,4.8-1.3,7
			c-0.1,0.3-0.3,0.4-0.6,0.3c-0.3-0.1-0.4-0.3-0.3-0.6c0.4-2.1,0.8-4.3,1.1-6.7c-1,0-2,0.1-3.2,0.2v6.4c0,0.5-0.3,0.8-0.8,0.8
			c-0.5,0-0.8-0.3-0.8-0.8v-6.4c-16.5,0.2-28.4,0.1-35.4-0.3c-2.3-0.1-6.3-0.5-11.9-1c-5.6-0.6-10-0.9-13-1
			c0.7,4.1,1.1,8.3,1.1,12.4c0,0.3-0.2,0.5-0.5,0.5c-0.3,0-0.5-0.2-0.5-0.5c0-4.1-0.4-8.3-1.1-12.4c-0.2-0.1-0.4-0.2-0.6-0.2
			c0,1.2,0.1,3,0.2,5.6c0.1,2.6,0.2,4.6,0.2,6c0,0.5-0.3,0.8-0.8,0.8s-0.8-0.3-0.8-0.8c0-1.3-0.1-3.2-0.2-5.8
			c-0.1-2.6-0.2-4.5-0.2-5.8c-4.2,0-8.1,0.3-11.4,1c-0.3,0-0.5-0.1-0.6-0.4c-0.1-0.3,0-0.5,0.2-0.6c0.7-0.1,1.4-0.2,2.1-0.3
			c-0.4,0-0.8,0-1.1,0c-0.5,0-0.8-0.3-0.8-0.8c0-0.5,0.3-0.8,0.8-0.8c1.2,0,2.9,0,5.3,0.1c2.4,0.1,4.2,0.1,5.5,0.1
			c0-0.2,0-0.4,0-0.6c-0.5,0-1.9,0-4.1,0c-3.8-0.1-6.8-0.3-9.1-0.5c-0.3,0-0.5-0.2-0.5-0.5c0-0.3,0.2-0.5,0.5-0.5
			c2.2,0.2,5.3,0.4,9.2,0.5c-1.1,0-2-0.1-2.9-0.2c-0.3,0-0.5-0.2-0.5-0.5c0-0.3,0.2-0.5,0.5-0.5c1.8,0.1,4.1,0.2,6.8,0.2
			c-0.2-0.4-0.3-0.8-0.3-1.3c0-6.7-0.4-23.8-1.3-51.3c-0.5-15.4-0.7-28.2-0.5-38.5c-0.1-0.1-0.2-0.3-0.2-0.5c0-1.1,0-2.4,0-4.1
			c-0.3,0-0.5-0.2-0.5-0.5c0.2-2.6,0.4-5.1,0.5-7.3c0-1.7,0-3.2,0-4.6c-2.2,0.1-4.3,0.2-6.4,0.2c-0.5,0-0.8-0.3-0.8-0.8
			c0-0.2,0.1-0.4,0.2-0.5c-0.9,0-1.7,0-2.5,0c-0.3,0-0.5-0.2-0.5-0.5c0-0.3,0.2-0.5,0.5-0.5c3,0,6.2,0,9.7,0c0-0.8,0.1-1.6,0.2-2.4
			c0-1.8,0-3.6,0-5.4c0-0.3,0.2-0.5,0.5-0.5c0.2,0,0.4,0.1,0.5,0.3c0.1-0.1,0.3-0.2,0.5-0.2h0.2
			C368.5,253.7,368.5,252.9,368.5,252.1z M362.9,258c0.5,0,0.8,0.3,0.8,0.8c0,0.5-0.3,0.8-0.8,0.8c-0.5,0-0.8-0.3-0.8-0.8
			C362.1,258.3,362.4,258,362.9,258z M368.3,264.5h-0.2c0,0.7,0,1.5,0,2.2c0.1,0,0.2-0.1,0.2-0.2
			C368.3,266.4,368.3,265.7,368.3,264.5z M368.3,262.4c0-0.5,0.1-1.2,0.2-1.9C368.4,261.2,368.3,261.8,368.3,262.4z M388.8,263.1
			c-1.4,0-3.8,0-7.2,0.1c-3.4,0.1-6.1,0.1-7.9,0.2c-0.1,0.4-0.3,0.6-0.6,0.6c-1.4,0.1-2.6,0.2-3.8,0.3c0,0.2,0,0.7,0,1.6
			c0.5-0.7,1.2-1.1,2.1-1.1h17.5C388.8,264.3,388.8,263.7,388.8,263.1z M387.4,269.6H372c-0.6,13-0.6,29.8,0,50.4
			c0.8,27.4,1.3,44.5,1.3,51.2c6.4,0,16,0,28.9,0.1c12.9,0.1,22.6,0.1,29.1,0.1c0.1-0.6,0.2-1.5,0.2-2.5c0-1.9,0-3.1,0-3.7
			c0.1-1.8,0.3-3.3,0.6-4.6c-3.2-0.4-6.7-0.7-10.6-0.9c-3.9-0.2-7.1-0.2-9.7-0.2c-2.6,0-6.3,0-11.1,0.1c-4.8,0.1-8.2,0.1-10.1,0.1
			c-0.3,0-0.7-0.1-1.1-0.2c-0.3,0.1-0.6,0.2-1,0.2c-0.6,0-1.2-0.2-1.6-0.6c-0.4-0.4-0.7-1-0.8-1.6c-0.5-0.4-0.8-1-0.8-1.7v-2.2
			c-0.1,0-0.2,0-0.3,0h-0.2c-0.3,0-0.5-0.2-0.5-0.5c0-0.3,0.2-0.5,0.5-0.5h0.2c0.1,0,0.2,0,0.3,0c0-25.1,0.4-43.9,1.1-56.3
			c0.1-1.7,0.2-6.4,0.2-14C386.7,277.1,387,272.9,387.4,269.6z M432.4,378.2c-0.9,0.1-2,0.2-3.5,0.2c-1.5,0.1-2.6,0.1-3.3,0.1
			c-0.5,0-0.8-0.3-0.8-0.8c0-0.5,0.3-0.8,0.8-0.8c0.6,0,1.7,0,3.3-0.1c1.5-0.1,2.7-0.1,3.6-0.2v-0.5h-0.2c-6.7,0-16.2,0-28.6-0.1
			s-21.3-0.1-26.7-0.1c-0.1,0.2-0.3,0.4-0.5,0.5c2.1,0.2,5.5,0.6,10.1,1c4.6,0.5,8.1,0.8,10.4,0.9c7.1,0.4,18.9,0.5,35.4,0.3V378.2z
			 M389.8,262.9c0,0.6,0,1.3,0,1.9h0.3c0-0.6,0.1-1.3,0.2-1.9C390.2,262.9,390,262.9,389.8,262.9z M433.7,354.8
			c0-0.2,0.1-0.5,0.2-0.8c-3.4-0.3-7.2-0.6-11.4-0.7c-4.2-0.2-7.5-0.2-9.9-0.2s-6.4,0.1-12.1,0.2c-5.7,0.1-9.2,0.2-10.3,0.2v1.4
			c0.1,0,0.3,0,0.5,0c1.9,0,5,0,9.2-0.1c4.2-0.1,7.6-0.1,10.2-0.1c2.5,0,5.6,0.1,9.2,0.2c3.6,0.1,6.9,0.3,9.9,0.6
			c0.2-0.1,0.9-0.2,2.1-0.3C432.3,355,433.1,354.9,433.7,354.8z M437.6,376.3c0.5-5.1,0.7-11.9,0.6-20.3c-0.9,0.1-1.9,0.2-3,0.3
			c0.4,0,0.7,0.1,1,0.2c1.5,0.7,1.9,1.8,1.2,3.3c-0.7,1.4-1.1,3.4-1.2,5.8c0,0.4,0,1.5,0,3.3c0,1.5-0.1,2.7-0.2,3.7
			c-0.1,1.1-0.6,1.7-1.6,2.1c-0.1,0.3-0.3,0.6-0.5,0.8v1.3C435.3,376.5,436.6,376.4,437.6,376.3z M437.3,378.5
			c0.1-0.2,0.2-0.4,0.2-0.6c-1.1,0.1-2.2,0.2-3.5,0.3v0.5C435.2,378.5,436.4,378.5,437.3,378.5z M436.8,354.5
			c-0.5-0.1-1.1-0.2-1.6-0.3c0,0.2,0,0.4,0,0.5C435.9,354.5,436.4,354.5,436.8,354.5z"/>
		<path d="M530.4,336c0.3,0,0.5,0.2,0.5,0.5c0,0.3-0.2,0.5-0.5,0.5c-1.1,0.1-2.2,0.2-3.3,0.3c0,0.5,0,1.3,0,2.3c0,1,0,1.7,0,2.1
			c0,0.5-0.3,0.8-0.8,0.8c-0.5,0-0.8-0.3-0.8-0.8c0-0.4,0-1.1,0-2.1s0-1.7,0-2.4c-5.3,0.3-11.9,0.4-19.9,0.2
			c-14.9-0.5-22.8-0.8-23.7-0.8c-0.4,3.7-0.6,8.5-0.5,14.3c0,1.1,0,2.6,0,4.6c0,2,0.1,3.4,0.2,4.1c0,0.1,0,0.2,0,0.3
			c0.1,3.2,0.2,7.1,0.2,11.8c0.2,0,0.6,0,1.1,0c0.5,0.1,1,0.2,1.3,0.2c0.2-5.1,0-9.3-0.6-12.7c0-0.3,0.1-0.5,0.4-0.6
			c0.3-0.1,0.5,0,0.6,0.2c0.6,3.5,0.8,7.8,0.6,13c2.6-0.1,4.8-0.3,6.5-0.5c0.5-0.1,0.8,0.1,1,0.6c0.1,0.5-0.1,0.8-0.6,1
			c-1.9,0.2-4.2,0.4-7,0.5c0,0.4-0.1,1-0.2,1.6c0,0.3,0,0.7,0,1.1c1.7,0,3.3,0,4.8,0c0.3,0,0.5,0.2,0.5,0.5c0,0.3-0.2,0.5-0.5,0.5
			c-1.6,0-3.2,0-4.9,0c-0.5,7.1-0.8,11.8-0.8,14c0,0.3-0.2,0.5-0.5,0.5c-0.3,0-0.5-0.2-0.5-0.5c0-2.2,0.3-6.9,0.8-14
			c-0.6,0-1.3,0-1.9,0c0,3,0,5.1,0,6.5c0,0.5-0.3,0.8-0.8,0.8c-0.5,0-0.8-0.3-0.8-0.8c0-1.4,0-3.6,0-6.5c-2.4-0.1-6-0.2-10.6-0.2
			c-4.6-0.1-7.9-0.1-9.8-0.1c0.1,2.4,0.2,4.4,0.2,5.9c0,0.5-0.3,0.8-0.8,0.8s-0.8-0.3-0.8-0.8c0-1.5-0.1-3.5-0.2-6
			c-0.6,0-1.3,0-1.9,0c0,3.3,0.1,6.5,0.3,9.7c0,0.3-0.2,0.5-0.5,0.5c-0.3,0-0.5-0.2-0.5-0.5c-0.2-3.1-0.3-6.3-0.3-9.7
			c-2.5,0-4.9,0-7.2,0c-0.3,0-0.5-0.2-0.5-0.5c0-0.3,0.2-0.5,0.5-0.5c2.2,0,4.6,0,7.2,0c0-1.1,0-2.1,0-3c-0.7,0-1.9,0-3.5,0
			s-2.8,0-3.7,0c-0.5,0-0.8-0.3-0.8-0.8c0-0.5,0.3-0.8,0.8-0.8c0.8,0,2.1,0,3.7,0s2.8,0,3.5,0c0-4.1,0.1-8.3,0.3-12.6
			c0-0.3,0.2-0.5,0.5-0.5c0.3,0,0.5,0.2,0.5,0.5c-0.2,4.3-0.3,8.5-0.3,12.6c0.6,0,1.2,0,1.7,0c0-5.1,0.2-9.3,0.6-12.7
			c0-0.1,0.1-0.2,0.2-0.3c0-2.1-0.4-14.9-1.1-38.5c-0.6-17.5-0.7-31.9-0.3-43.4c-0.1,0.1-0.2,0.2-0.3,0.2c-0.3,0-0.5-0.2-0.5-0.5
			c-0.4-3.7-0.6-7-0.6-9.9c-2.3,0.1-4.3,0.2-6,0.2c-0.5,0-0.8-0.3-0.8-0.8c0-0.5,0.3-0.8,0.8-0.8c1.7,0,3.7-0.1,5.9-0.2
			c0-0.1,0-0.2,0-0.3h-0.2c-0.3,0-0.5-0.2-0.5-0.5s0.2-0.5,0.5-0.5h0.2c0-3.6,0.2-6.8,0.6-9.7c0-0.3,0.2-0.5,0.5-0.5
			s0.5,0.2,0.5,0.5c-0.4,2.9-0.6,6-0.6,9.5c0.4,0,1-0.1,1.6-0.2c0-0.1,0.1-0.9,0.2-2.5c0.1-1.5,0.2-2.7,0.3-3.4
			c0-0.5,0.3-0.8,0.8-0.8s0.8,0.3,0.8,0.8c0,0.3-0.2,2.3-0.5,5.9c5.2-0.5,9.3-1.1,12.2-1.6c0.3-0.1,0.5,0,0.6,0.3
			c0.1,0.3,0,0.5-0.3,0.6c-3.1,0.5-7.3,1.1-12.6,1.6c0,0.1,0,0.2,0,0.3c3.6-0.2,6.4-0.3,8.4-0.3c0.5,0,0.8,0.3,0.8,0.8
			c0,0.1-0.1,0.2-0.2,0.3c7.9,0,13.4,0,16.3,0c2.9,0,8.3,0.1,16.2,0.2c7.9,0.2,13.3,0.2,16.1,0.2c0.1-0.3,0.4-0.5,0.8-0.5
			c2.3,0,5.2-0.1,8.7-0.2c0-0.4,0-0.8,0-1.1c-2.2,0.1-5.9,0.3-11.1,0.5c-0.3,0-0.5-0.2-0.5-0.5s0.2-0.5,0.5-0.5
			c5.2-0.2,8.9-0.4,11.1-0.5c0.1-2.1,0.3-4.1,0.5-5.9c0.1-0.5,0.4-0.7,1-0.6c0.5,0.1,0.7,0.4,0.6,1c-0.2,1.6-0.4,3.4-0.5,5.4
			c0.8-0.1,1.6-0.2,2.4-0.3c0.1-1.1,0.2-2.1,0.3-3.2c0-0.3,0.2-0.5,0.5-0.5c0.3,0,0.5,0.2,0.5,0.5c-0.1,1.1-0.2,2.1-0.3,3
			c0.3,0,0.6-0.1,1-0.2c0.1-1.3,0.3-2.5,0.6-3.8c0.1-0.3,0.3-0.4,0.6-0.3c0.3,0.1,0.4,0.3,0.3,0.6c-0.2,1.1-0.4,2.2-0.6,3.3
			c2.3-0.4,4.1-0.7,5.2-0.8c0.6-0.1,1.2-0.2,1.6-0.2c0.2,0,0.4,0,0.5,0.1c0.1,0.1,0.2,0.1,0.3,0.1c0.1,0.1,0.2,0.3,0.2,0.5
			c0,0.3-0.2,0.6-0.5,0.8c-0.2,0-0.5,0-0.8,0h-0.3c-0.1,0-0.2,0-0.3,0c-0.2,0-0.4,0-0.5,0c-0.2,0-0.4-0.1-0.5-0.3
			c-1.2,0.2-2.7,0.5-4.6,0.8c-0.2,0-0.4,0-0.5,0c-0.1,0.6-0.2,1.3-0.2,2.1c3.1-0.1,5.7-0.2,7.9-0.2c0.5,0,0.8,0.3,0.8,0.8
			c0,0.5-0.3,0.8-0.8,0.8c-2.2,0-4.9,0.1-8.1,0.2c-0.2,3.3-0.2,8.9,0,16.8c3.5-0.3,6.5-0.5,9.1-0.5c0.5,0,0.8,0.3,0.8,0.8
			c0,0.5-0.3,0.8-0.8,0.8c-2.5,0-5.6,0.2-9.1,0.5c0,0.5,0.1,1,0.2,1.4c0.1-0.1,0.2-0.2,0.3-0.2c0.2,0,0.4,0.1,0.5,0.2
			c1.1-0.1,2.1-0.3,3-0.5c0.3-0.1,0.5,0,0.6,0.3c0.1,0.3,0,0.5-0.3,0.6c-1.3,0.2-2.6,0.4-4.1,0.6c0,1.2,0,2.2,0,3.2
			c0,0.3-0.2,0.5-0.5,0.5s-0.5-0.2-0.5-0.5c0-1,0-2,0-3.2c-0.3,0-0.6,0-0.8,0c0,1.4,0,2.6,0,3.7c0,0.3-0.2,0.5-0.5,0.5
			c-0.3,0-0.5-0.2-0.5-0.5c0-1.1,0-2.2,0-3.5c-0.3,0.1-0.6,0.2-1,0.2c0,2.3,0.1,4.5,0.2,6.4c0,0.5-0.3,0.8-0.8,0.8
			c-0.5,0-0.8-0.3-0.8-0.8c-0.1-1.8-0.2-3.9-0.2-6.2c-3.2,0.4-6.7,0.7-10.5,0.8c-3.8,0.1-7,0.2-9.6,0.2c-2.6,0-6.3-0.1-11-0.2
			c-4.7-0.2-8-0.2-9.8-0.2c-0.7,4.5-0.9,10.3-0.3,17.6c12.1-0.1,18.2-0.2,18.3-0.2c3,0,5.7,0,8.3,0c0.1-0.2,0.3-0.3,0.5-0.3
			c1.3,0.2,2.6,0.4,4.1,0.5c2.4,0.1,4.8,0.2,7,0.3c0.1-1.7,0.3-3.3,0.5-4.8c0.1-0.5,0.4-0.7,1-0.6c0.5,0.1,0.7,0.4,0.6,1
			c-0.2,1.4-0.4,2.9-0.5,4.6c0.6,0.1,1.2,0.2,1.8,0.2c0.1-2.3,0.3-4.5,0.6-6.5c0.1-0.3,0.3-0.4,0.6-0.3c0.3,0.1,0.4,0.3,0.3,0.6
			c-0.3,1.9-0.5,4-0.6,6.4c0.2,0,0.4,0,0.6,0c0.2,0,0.4,0.1,0.5,0.3c2.9,0.3,5.4,0.7,7.6,1.1c0.1,0,0.2,0,0.3,0
			c0.5-0.1,0.8,0.1,1,0.6c0.1,0.5-0.1,0.8-0.6,1c-2.6,0.4-5.8,0.7-9.4,1c0,0.1,0,0.2,0,0.3c0.3,0.5,0.4,1.1,0.3,1.7
			c-0.1,0.1-0.2,0.3-0.2,0.5c0,0.3,0.1,1.9,0.2,4.8c0.3,5.6,0.3,10,0,13c1.4-0.1,2.8-0.2,4.1-0.2c0.5,0,0.8,0.3,0.8,0.8
			c0,0.5-0.3,0.8-0.8,0.8c-1.5,0-3,0.1-4.5,0.2c0,0.3-0.1,0.6-0.2,1c5,0,9.4,0.3,13.2,1c0.2,0.1,0.3,0.3,0.2,0.6
			c-0.1,0.3-0.2,0.4-0.6,0.4c-3.7-0.6-8.1-1-13-1c-0.1,0.4-0.2,0.8-0.3,1.3c-0.1,0.2-0.2,0.3-0.3,0.3
			C529.4,336.2,529.9,336.1,530.4,336z M452.7,260.2c0.5,0,0.8,0.3,0.8,0.8c0,0.5-0.3,0.8-0.8,0.8c-0.5,0-0.8-0.3-0.8-0.8
			C451.9,260.5,452.2,260.2,452.7,260.2z M456.4,375.8c0.6,0,1.3,0,1.9,0c0-1.4,0-2.4,0-3c-0.6,0-1.3,0-1.9,0
			C456.4,373.8,456.4,374.8,456.4,375.8z M456.9,264c0,0.1,0,0.2,0,0.3c0.4,0,1,0,1.6,0c0-0.1,0-0.2,0-0.3
			C457.8,264,457.3,264,456.9,264z M457,265.9c0,2.6,0.2,5.6,0.5,8.7c0.1-2.1,0.2-4.2,0.3-6.4c0-0.4,0.1-0.8,0.3-1.1
			c0.1-0.4,0.2-0.8,0.2-1.3C457.8,265.9,457.3,265.9,457,265.9z M480.2,373.4c-2.4,0.1-4.5,0.3-6.2,0.5c-0.5,0.1-0.9-0.1-1-0.6
			c0-0.1,0-0.2,0-0.3c-1.4,0.1-3,0.1-4.8,0c-0.1,0.5-0.4,0.7-1,0.6c-1.6-0.3-3.4-0.5-5.4-0.6c-0.1,0-0.3,0-0.5,0
			c-0.3,0-0.6-0.1-0.8-0.2c-0.3,0-0.6,0-0.8,0c0,0.6,0,1.7,0,3.2c1.9,0,5.2,0,9.8,0.1c4.6,0.1,8.1,0.1,10.6,0.2
			C480.2,375.2,480.2,374.2,480.2,373.4z M477.8,331.3c0.1-0.6,0.4-1.1,1-1.5c0.6-0.4,1.2-0.5,1.8-0.4c0.2,0.1,0.4,0.2,0.6,0.3
			c2.4,0,6,0,10.7,0.1c4.7,0.1,8.4,0.1,11.2,0.2c2.8,0.1,6.2,0,10.1-0.2c3.9-0.2,7.5-0.5,10.8-1c0-6.5,0.3-11.3,0.8-14.6
			c-2.7,0-6.7,0.1-12.1,0.3c-5.4,0.2-9.6,0.3-12.6,0.3c-3,0-7.2-0.1-12.6-0.3h-0.2c-0.1,0-0.2-0.1-0.3-0.2c-0.8,0-1.7-0.1-2.5-0.2
			c-0.4,0.5-1,0.8-1.6,0.8c-1.4,0-2.2-0.6-2.5-1.7c-0.5-0.6-0.7-1.3-0.6-2.1c0.1-0.4,0.3-0.8,0.5-1.3c-0.3-10.7-0.3-18.9,0-24.6
			c-0.2-0.3-0.3-0.7-0.3-1.1c-0.1-1.1,0.3-1.8,1.3-2.2c0.5-0.4,1.1-0.6,1.7-0.6c0.3,0,0.6,0.1,0.8,0.2c4.5-0.2,11.5-0.2,21.3,0
			c9.3,0.2,16.4,0.2,21.3-0.2c-0.2-3.7-0.3-7.3-0.2-10.8c-2,0-12.6-0.2-31.9-0.6c-19.2-0.4-29.9-0.3-31.9,0.2
			c-0.6,12.7-0.6,29.2,0,49.4c0.8,26.4,1.3,42.5,1.3,48.5c6.7,0.2,11,0.2,13-0.2c0-1-0.1-6.5-0.2-16.7
			C476.5,342.9,476.9,336.3,477.8,331.3z M483.9,376.3c0-0.4,0-0.8,0-1.3c0.1-0.5,0.2-1,0.2-1.4c-0.2,0-0.6-0.1-1.1-0.2
			c-0.5,0-0.9,0-1.1,0c0,0.8,0,1.8,0,2.9C482.5,376.3,483.2,376.3,483.9,376.3z M525.5,334.8c-3.3,0.1-7.3,0.4-12.1,0.8
			c-0.3,0-0.5-0.2-0.5-0.5c0-0.3,0.2-0.5,0.5-0.5c4.8-0.4,8.8-0.7,12.1-0.8c0-0.2,0-0.4,0-0.5c-3.3,0.5-7,0.9-11.1,1.1
			c-4.1,0.2-7.6,0.3-10.4,0.3c-2.8,0-6.6-0.1-11.4-0.2c-4.8-0.1-8.3-0.2-10.4-0.2c0,0.4-0.1,0.8-0.2,1.3c1,0,8.9,0.3,23.8,0.8
			c7.8,0.2,14.4,0.2,19.7-0.2C525.5,335.8,525.5,335.3,525.5,334.8z M486.7,288.4c-0.5,0-1.1,0-1.7,0c-0.2,4.6-0.2,10.4,0.2,17.6
			c0.4,0,0.8,0,1.3,0C485.9,298.8,486,292.9,486.7,288.4z M486.9,287.4c0.1-0.4,0.2-0.8,0.3-1.3c-0.7,0-1.4,0-2.1,0
			c0,0.4,0,0.8,0,1.3C485.7,287.4,486.3,287.4,486.9,287.4z M486.4,307c-0.4,0-0.8,0-1.3,0c0,0.6,0,1.4,0,2.4c0.5,0.1,1,0.2,1.4,0.2
			C486.6,308.5,486.5,307.7,486.4,307z M487.4,307c0.1,0.7,0.2,1.6,0.3,2.7c5.3,0.2,9.4,0.3,12.4,0.3c3,0,7.2-0.1,12.6-0.3
			c5.5-0.2,9.7-0.3,12.8-0.3c0-0.6,0-1.2,0-1.7c-3.7-0.3-6-0.5-7-0.6c-3.8-0.1-8.1-0.2-12.9-0.2C505.5,306.8,499.5,306.8,487.4,307z
			 M487.8,287.4c1.9,0.1,4.8,0.2,8.6,0.2c3.8,0.1,6.9,0.1,9.2,0.2c2.3,0.1,5.1,0.1,8.4,0c3.3-0.1,6.3-0.2,8.9-0.4
			c-1.6,0-2.9,0-3.8,0c-0.3,0-0.5-0.2-0.5-0.5c0-0.2,0.1-0.4,0.3-0.5c-0.9,0.1-1.6,0.2-2.4,0.2c-0.2,0-0.4-0.1-0.6-0.3
			c-2.6,0-6.3-0.1-10.8-0.2c-8.1-0.1-13.7-0.2-17-0.2C488.1,286.5,488,287,487.8,287.4z M519.5,286.4c1,0,2.4,0,4.4,0.1
			s3.6,0.1,4.6,0.1c0-0.3,0-0.6,0-0.8c-0.1,0-0.3,0-0.5,0c-1.7,0.1-3.5,0.2-5.4,0.3C521.5,286.2,520.4,286.3,519.5,286.4z
			 M528.9,307.9c-0.5,0-1.1-0.1-1.8-0.2c0,0.5,0,1.1,0,1.6c0.1,0,0.3,0,0.5,0c0.4,0,0.8-0.1,1.3-0.2
			C528.9,308.8,528.9,308.3,528.9,307.9z M528.7,333.7c0.1-0.3,0.2-0.6,0.2-1c-0.3,0-0.6,0.1-1,0.2c-0.2,0.1-0.5,0.2-0.8,0.3
			c0,0.1,0,0.3,0,0.5C527.6,333.7,528.2,333.7,528.7,333.7z M528.5,334.6c-0.5,0-1,0-1.4,0c0,0.5,0,1.1,0,1.7
			c0.4-0.1,0.9-0.2,1.4-0.2c-0.3-0.1-0.4-0.3-0.3-0.6C528.3,335.2,528.4,334.9,528.5,334.6z M531.1,263.2c-0.7,0.1-1.5,0.2-2.2,0.3
			c0,0.4,0,0.8,0,1.3c0.2,0,0.6,0,1.1,0c0.5,0,0.9,0,1.1,0C531.1,264.3,531.1,263.8,531.1,263.2z M529.2,331.1c0.4-3.1,0.4-7.4,0-13
			c-0.2,2.4-0.3,6.4-0.3,11.9c0.1,0.1,0.2,0.3,0.2,0.5v0.6H529.2z M529.8,308.1c0,0.3,0,0.7,0,1.1c2.1-0.1,4-0.3,5.7-0.5
			C533.8,308.5,531.9,308.3,529.8,308.1z M531.1,286.6c0-0.5,0-1,0-1.4c-0.3,0.1-0.6,0.2-1,0.2c0,0.1,0,0.3,0,0.6c0,0.3,0,0.5,0,0.6
			C530.4,286.6,530.8,286.6,531.1,286.6z M531.9,283.6c0.3-0.1,0.6-0.2,0.8-0.2c-0.2-7.9-0.2-13.6,0-17c-0.3,0-0.6,0-0.8,0
			C531.7,269.8,531.7,275.5,531.9,283.6z M533,262.9c-0.3,0.1-0.6,0.2-1,0.2c0,0.5,0,1.1,0,1.7c0.2,0,0.5,0,0.8,0
			C532.8,264.2,532.9,263.6,533,262.9z M532.8,286.4c0-0.4-0.1-0.9-0.2-1.4c-0.2,0-0.4,0.1-0.6,0.2c0,0.4,0,0.8,0,1.3
			C532.2,286.4,532.5,286.4,532.8,286.4z"/>
		<polygon points="195.7,70.1 195.7,85.9 229.8,88 233.7,105.7 232.8,157.3 232.1,181.5 232.1,189.2 254.4,189.2 254.4,104 
			252.6,88 281.5,89.1 289.1,86.1 290.9,70.1 		"/>
		<polygon points="304,133.1 307.1,108.2 324.3,86.7 342.9,74.7 355.4,71.7 371.4,70.1 382.3,71.7 395.9,76.5 410.6,86.7 
			382.6,90.4 371.8,91.5 359.8,91.1 352.6,96.4 344.8,98.5 336.6,100.3 333,106.5 329.8,111.5 328.1,118.9 327,126.4 327,133.1 
			328.3,143.9 338.7,157.7 349.2,169.1 363.1,174.4 380.4,170.2 392.7,164.2 401.4,159.6 406.1,143.9 406.3,130.8 406.6,123.3 
			400.4,111.9 417.4,95.1 430.2,121.2 430.2,137.8 426.7,154.3 419.5,168.9 397.5,184.6 375.2,193.7 352.6,192.2 334.6,186.8 
			320.7,175.6 309.1,158.8 303.1,135.9 		"/>
		<polygon points="379.7,91.1 388,96.4 399.6,106 403.8,111.5 419.5,97.1 407.4,84.5 		"/>
		<polygon points="452.3,72.5 452.3,88 452.3,103.4 452.3,117.7 452.4,134.6 453.6,151.5 453.6,170.2 453.6,182.3 453.6,191.1 
			464.9,190.1 472.1,191.1 476.4,191.1 476.8,173.3 475.3,162.8 475.3,151.2 476.7,146.5 475.3,133.1 478,120.1 475.3,107.8 
			475.3,95.1 474.8,87.9 475.3,74.5 475.3,69 		"/>
		<polygon points="472.1,70.1 493.1,70.1 506.7,70.1 513.1,72.5 524.1,77.5 531.8,84.5 536,94.2 537.6,106 537.6,114.4 533.5,126.4 
			525.6,132.8 512,139.7 488.7,142.8 476.7,146.5 471.2,144.4 472.1,126.4 477.5,122.7 487.5,121.8 496,121.3 504.4,120.5 
			513.8,115.6 514.3,111.5 515.5,102.1 512.8,96.7 504.4,92.4 496.7,87.1 483.3,87 474.8,87.9 		"/>
		<line class="st0" x1="28.6" y1="231.6" x2="537.9" y2="231.6"/>
	</g>
	<g>
		<path d="M49,108.7c-0.4,0-0.6-0.2-0.6-0.6s0.2-0.6,0.6-0.6c1.1-0.1,2.1-0.2,3-0.2c0-0.1,0.1-0.2,0.4-0.2c1.1-0.7,2.4-1.1,4-1.4
			c0.3-2,0.5-3.8,0.8-5.6c0-0.4,0.2-0.6,0.6-0.6c0.4,0,0.6,0.2,0.6,0.6c-0.3,1.7-0.5,3.6-0.8,5.6c0.8-0.1,1.7-0.2,2.6-0.2
			c0.3,0,0.6,0,1,0c0.4-1.9,0.9-3.6,1.6-5.2c0.3-0.7,0.7-0.9,1.4-0.6c0.7,0.3,0.9,0.7,0.6,1.4c-0.7,1.3-1.2,2.8-1.6,4.4
			c5.7,0,9.8,0.1,12.3,0.4c2.5-13.7,5.6-25,9.2-34l-5.2,1.2c-1.3,0.4-2.6,0.9-3.8,1.6c-0.3,0.1-0.5,0-0.7-0.3
			c-0.2-0.3-0.1-0.6,0.3-0.9c0.1,0,0.3-0.1,0.6-0.2c-0.1-0.1-0.2-0.3-0.2-0.4c-0.1-0.7,0.1-1.1,0.8-1.2c2.7-0.5,5.3-1.1,8-1.8
			c-0.4,0-0.6-0.2-0.6-0.6c0-0.4,0.2-0.6,0.6-0.6c0.5-0.1,1.1-0.2,1.6-0.2c0.7-3.4,1.8-6.8,3.4-9.9c0.3-0.4,0.6-0.5,0.9-0.3
			c0.3,0.2,0.4,0.4,0.3,0.7c-0.7,1.3-1.3,2.7-1.8,4c0.4-0.3,0.7-0.3,1,0c0.7,0.3,0.8,0.7,0.4,1.2c-0.7,1.3-1.2,2.7-1.6,4
			c2.8-0.3,5.6-0.6,8.6-1c2.7-0.7,5.4-1.3,8.2-1.8c0.3-1.5,0.5-2.7,0.8-3.6c0.3-0.7,0.7-0.9,1.3-0.7c0.6,0.2,0.8,0.6,0.7,1.1
			c-0.3,0.8-0.5,1.7-0.6,2.6l4.4-1c0.7-0.1,1.1,0.1,1.2,0.8c0,0.3,0,0.5,0,0.6c0.5,0,1.1-0.1,1.8-0.2c0.4,0,0.6,0.2,0.6,0.6
			s-0.2,0.6-0.6,0.6c-2.7,0.3-5.3,0.6-8,1c0,0.3-0.1,0.5-0.2,0.8c1.1-0.1,2.7-0.2,4.8-0.3c2.1-0.1,3.7-0.1,4.8-0.1
			c0.4,0,0.6,0.2,0.6,0.6c0,0.4-0.1,0.6-0.4,0.6c0.5,0,1.1-0.1,1.8-0.2c0.1-0.1,0.3-0.3,0.4-0.6c-0.7,0.1-1.1-0.1-1.2-0.8
			c-0.1-0.7,0.1-1.1,0.8-1.2c0.4,0,0.8-0.1,1.2-0.2c0.7-1.3,1.5-2.9,2.4-4.6c0.1-0.5,0.5-0.7,1-0.6c0.3-1.6,0.5-3.1,0.6-4.6
			c0-0.4,0.2-0.6,0.6-0.6s0.6,0.2,0.6,0.6c-0.4,3.2-0.9,6.4-1.6,9.5c3.1-0.1,6.4-0.2,10.1-0.2c3.3-0.5,6.6-0.5,9.7,0
			c0-0.5,0.1-1.1,0.2-1.8c0.1-0.7,0.5-0.9,1.2-0.8c0.4,0.1,0.7,0.4,0.8,0.8c1.1-4.5,1.6-6.9,1.6-7.2c0.1-0.4,0.4-0.5,0.8-0.4
			c0.4,0.1,0.5,0.4,0.4,0.8c-0.3,1.1-0.6,2.6-1.1,4.5c-0.5,1.9-0.8,3.4-0.9,4.3c2.8,0,5.1,0,7,0c0.7,0,1,0.3,1,1c0,0.7-0.3,1-1,1
			c-2,0-4.4,0-7.4,0c0,0.1-0.1,0.3-0.2,0.6c0.1,0.1,0.3,0.3,0.4,0.4c1.3,0,2.6,0,3.8,0c0.4,0,0.6,0.2,0.6,0.6c0,0.4-0.2,0.6-0.6,0.6
			c-1.1,0-2.1,0-3.2,0c0,0.4,0,0.9,0,1.4c-2.1,8-4.7,19.5-7.8,34.6c2.8-0.4,6.5-0.6,11.1-0.6c0.5,0,1.1,0.1,1.6,0.4h0.2
			c0.3-2.3,0.6-4.3,1-6.2c0.1-0.7,0.5-0.9,1.2-0.8c0-0.7,0.1-1.3,0.2-1.8c0-0.4,0.2-0.6,0.6-0.6c0.4,0,0.6,0.2,0.6,0.6
			c-0.4,2.7-0.7,5.5-1,8.6c2-0.3,3.7-0.5,5.2-0.6c0.5,0,0.9,0.1,1,0.4c1.5,0,2.9,0,4.4,0c0.4,0,0.6,0.2,0.6,0.6
			c0,0.4-0.2,0.6-0.6,0.6c-1.5,0-2.9,0-4.4,0c-0.3,0.3-0.5,0.4-0.6,0.4c-1.6,0.1-3.5,0.3-5.8,0.6c-0.4,5.2-0.7,10.8-0.8,16.9
			c0.4,0,1.1,0,2,0c0.9,0,1.7,0,2.2,0c0.7,0,1,0.3,1,1c0,0.7-0.3,1-1,1c-0.5,0-1.3,0-2.2,0c-0.9,0-1.7,0-2.2,0c0,0.4,0,0.9,0,1.4
			c2.7-0.1,5-0.1,7.2,0.2c0.4,0,0.6,0.2,0.6,0.6c0,0.4-0.2,0.6-0.6,0.6c-2.1-0.3-4.5-0.3-7.2-0.2c0,1.7,0,3.6,0,5.6
			c0,0.4-0.2,0.6-0.6,0.6c-0.4,0-0.6-0.2-0.6-0.6c0-1.9,0-3.7,0-5.6c-0.3,0-0.5,0-0.8,0c0,0.8-0.1,1.6-0.2,2.4
			c-0.1,0.7-0.5,0.9-1.2,0.8c-0.7-0.1-0.9-0.5-0.8-1.2c0.1-0.5,0.2-1.1,0.2-1.6h-0.2c-1.9,0.3-4.8,0.5-9,0.8
			c-1.6,0.1-2.8,0.2-3.6,0.2c-0.4,3.3-1.2,8-2.4,13.9c1.6-0.3,5.7-0.4,12.3-0.4c0.5,0,1.1,0.1,1.6,0.4c0.3-0.9,0.6-1.9,1-2.8
			c0.3-0.4,0.7-0.6,1.2-0.6c0-0.3,0-0.5,0-0.6c0-0.4,0.2-0.6,0.6-0.6c0.4,0,0.6,0.2,0.6,0.6c-0.1,1.3-0.3,2.7-0.6,4
			c1.5-0.1,3-0.2,4.6-0.2c0.7,0,1,0.3,1,1c0,0.7-0.3,1-1,1c-0.8,0-1.6,0-2.4,0c1.6,0.3,3.1,0.7,4.4,1.2c0.4,0.1,0.5,0.4,0.4,0.8
			c-0.1,0.4-0.4,0.5-0.8,0.4c-1.9-0.8-4-1.2-6.6-1.2c-0.1,1.3-0.3,3.3-0.6,6c-0.3,2.7-0.5,4.3-0.6,5c-0.1,1.3-0.3,2.5-0.4,3.4
			c0,1.6,0,3.3,0,5.2c1.6,0.1,3.1,0.3,4.6,0.6c0.7,0.1,0.9,0.5,0.8,1.2c-0.1,0.7-0.5,0.9-1.2,0.8c-0.7-0.1-1.3-0.2-2-0.2
			c0.4,0.1,0.9,0.3,1.4,0.4c0.4,0.1,0.5,0.4,0.4,0.8c-0.1,0.4-0.4,0.5-0.8,0.4l-3-0.8c-0.1,0-0.5,0-1.2,0l-0.2,0.2
			c-0.4,2.1-0.8,4.2-1.2,6.2c-0.1,0.4-0.4,0.5-0.8,0.4c-0.4-0.1-0.5-0.4-0.4-0.8c0.4-1.6,0.7-3.3,1-5.2c-0.1,0-0.3,0-0.4,0
			c-0.5,0-1.1-0.1-1.6-0.4c-0.1,1.6-0.3,3.5-0.6,5.6c-0.1,0.7-0.5,1-1.1,0.9c-0.6-0.1-0.9-0.4-0.9-0.9c0.1-2,0.3-3.7,0.6-5.2
			c-0.4,0.1-0.8,0.2-1.2,0.2c-0.8,0-1.6,0-2.4,0c-0.8,0-1.7,0-2.7,0.1c-1,0.1-1.8,0.1-2.3,0.1c-1.5,0-2.7,0-3.6,0
			c-0.4,2.8-1.1,7-2,12.5c-1.1,6.5-1.8,11.3-2.2,14.5c0.1,0.3,0.1,0.5-0.2,0.8v0.2c-0.1,1.3-0.3,2.6-0.4,3.8v0.2
			c0.1,0.1,0.3,0.3,0.4,0.4h0.2h0.2c0.4,0.1,0.5,0.4,0.4,0.8c-0.1,0.1-0.2,0.3-0.2,0.6c0,0.1,0,0.3,0,0.4c0,0.8-0.3,1.5-1,2.2
			c0,0.1,0,0.3,0,0.4c4.6-0.3,8.2-0.4,10.5-0.4c0.7,0,1,0.3,1,1c0,0.7-0.3,1-1,1c-2.3,0-6,0.1-11.1,0.4c-0.7,2.3-1.3,4.8-2,7.8
			c-0.1,0.4-0.4,0.5-0.8,0.4c-0.4-0.1-0.5-0.4-0.4-0.8c0.3-1.1,0.5-2.1,0.8-3.2c-0.3,0.3-0.6,0.4-1,0.4c-0.7-0.1-0.9-0.5-0.8-1.2
			c0.1-0.8,0.3-1.9,0.6-3.2c-6.2,0.1-11.3,0.1-15.1-0.2c-1.6,0.3-3.1,0.5-4.6,0.8c-0.8,1.9-1.8,4.7-3,8.6c-0.1,0.4-0.4,0.5-0.8,0.4
			c-0.4-0.1-0.5-0.4-0.4-0.8c0.5-1.5,0.9-2.6,1.2-3.4c-0.4-0.1-0.6-0.4-0.6-0.8c0-0.3,0-0.7,0.1-1.4c0.1-0.7,0.1-1.2,0.1-1.6
			c-0.4,0.1-0.8,0.3-1.2,0.4c-0.4,0.1-0.7,0-0.8-0.4c-0.1-0.4,0-0.7,0.4-0.8c0.5-0.1,1.1-0.3,1.8-0.6c0.1-0.4,0.2-0.9,0.2-1.4
			c-1.3-0.3-2.5-0.5-3.6-0.8c-0.7-0.3-0.9-0.7-0.8-1.2h-2.2c0.4,0,0.6,0.2,0.6,0.6c0,0.4-0.2,0.6-0.6,0.6c-1.6,0-3.6-0.1-6.2-0.2
			c-0.3,3.2-0.8,6.5-1.6,9.9c-0.1,0.4-0.4,0.5-0.8,0.4c-0.4-0.1-0.5-0.4-0.4-0.8c0.8-3.1,1.3-6,1.6-8.8c-0.7,1.7-1.2,3.2-1.6,4.4
			c-0.3,0.7-0.7,0.9-1.4,0.6c-0.7-0.3-0.9-0.7-0.6-1.4c0.5-1.1,1.1-2.4,1.6-4H69.1c-0.4,0.3-0.9,0.4-1.4,0.4c-0.3,0-0.5,0-0.8,0
			c-0.1,0.7-0.4,1.5-0.8,2.6c-1.2,3.7-1.8,5.6-1.8,5.8c-0.1,0.4-0.4,0.5-0.8,0.4c-0.4-0.1-0.5-0.4-0.4-0.8c0.3-0.7,0.5-1.5,0.8-2.6
			c-0.1,0-0.3,0-0.4,0c-0.7-0.1-0.9-0.5-0.8-1.2c0.4-1.5,0.8-3.1,1.2-4.8c-0.1-0.1-0.3-0.2-0.4-0.2c-1.5,0.3-2.8,0.7-4,1.2
			c-0.4,0.1-0.7,0-0.8-0.4c-0.1-0.4,0-0.7,0.4-0.8c0.9-0.4,2-0.7,3.2-1H58c-0.7,0-1-0.3-1-1c0-0.7,0.3-1,1-1h4.2
			c0.3-1.6,1.1-2.5,2.6-2.6c0.3-3.8,0.9-9,2-15.5c1.3-7.7,2.1-13.1,2.4-16.1c-6.2-0.4-11.3-0.9-15.1-1.6c-1.2-0.3-2-0.9-2.4-2
			c-0.3,1.9-0.5,3.5-0.6,4.8c-0.1,0.7-0.5,0.9-1.2,0.8c-0.7-0.1-0.9-0.5-0.8-1.2c0.1-1.2,0.3-2.9,0.6-5c-0.9,0-1.8,0.1-2.6,0.2
			c0,0.8-0.2,2.9-0.6,6.2c-0.4,3.3-0.7,5.8-1,7.6c0,0.4-0.2,0.6-0.6,0.6c-0.4,0-0.6-0.2-0.6-0.6c0.3-1.9,0.6-4.4,0.9-7.7
			c0.3-3.2,0.6-5.2,0.7-5.9c-0.5,0-0.9-0.3-1-0.8c-0.1-0.7,0.1-1.1,0.8-1.2c0.1,0,0.3,0,0.4,0c0.8-5.7,1.6-10.5,2.4-14.5h-1.6
			c-0.7,0-1-0.3-1-1c0-0.7,0.3-1,1-1H49c0.1-0.7,0.3-1.3,0.4-2c0.1-0.4,0.4-0.5,0.8-0.4c0.4,0.1,0.5,0.4,0.4,0.8
			c-0.1,0.5-0.3,1.1-0.4,1.6h2.4c0.9-3.2,2.1-5.9,3.4-8.2c0.3-0.7,0.7-0.8,1.3-0.5c0.6,0.3,0.7,0.8,0.3,1.3
			c-0.9,1.7-1.7,3.6-2.4,5.8c0.4-0.1,0.8-0.2,1.2-0.2h0.2c0.4-0.1,0.9-0.2,1.4-0.2c2.7,0.1,7.4,0.2,14.1,0.2
			c1.3-4.5,2.5-11.1,3.6-19.7c-0.5,0.9-1.3,1.4-2.4,1.4H59.4c-0.1,0.5-0.3,1.1-0.4,1.6c-0.3,0.7-0.7,0.9-1.3,0.7
			c-0.6-0.2-0.8-0.6-0.7-1.1c0.1-0.4,0.3-0.8,0.4-1.2c-0.4-0.1-0.8-0.3-1.2-0.6c-0.8,0-1.5,0-2.2,0c-0.3,1.2-0.5,2.3-0.6,3.4
			c-0.1,0.4-0.4,0.6-0.7,0.5c-0.3-0.1-0.5-0.2-0.5-0.5c0.1-1.1,0.3-2.2,0.6-3.4c-0.8,0.1-1.5,0.2-2.2,0.2c-0.7,0-1-0.3-1-1
			c0-0.7,0.3-1,1-1c0.8,0,1.6-0.1,2.4-0.2c0.1-0.4,0.3-0.9,0.4-1.4c-3.1-0.1-5.9-0.1-8.6,0.2c-0.4,0-0.6-0.2-0.6-0.6
			c0-0.4,0.2-0.6,0.6-0.6c2.7-0.3,5.6-0.3,8.8-0.2c1.3-7.8,2.1-12.5,2.2-14.1c-0.8-0.1-1.5-0.2-2.2-0.2c-0.1,0-0.3,0-0.4,0
			c-0.4,0.3-0.8,0.2-1.2-0.2C51.1,108.5,50.1,108.6,49,108.7z M49.8,150.3c-0.9,4-1.7,8.8-2.4,14.3c0.8-0.1,1.6-0.2,2.4-0.2
			c0.7-6.1,1.4-10.8,2.2-14.1H49.8z M51.8,164.2H52c0.1-0.3,0.3-0.5,0.6-0.6c0.3-1.7,0.4-4,0.4-6.8c0-0.4,0-0.9,0-1.4
			C52.8,157.6,52.4,160.5,51.8,164.2z M54.6,124.2c-0.1,0.5-0.3,1-0.4,1.4c0.3,0,0.5,0,0.8,0c0-0.1,0-0.3,0-0.4c0-0.4,0.1-0.7,0.2-1
			C54.9,124.2,54.7,124.2,54.6,124.2z M54.8,123c0.4,0,0.7,0,1,0c0.1,0,0.3-0.1,0.4-0.2c0.9-5.7,1.4-10.2,1.4-13.5
			c-0.1-0.1-0.3-0.2-0.6-0.2C56.7,110.8,56,115.5,54.8,123z M57.2,107.9c0.1,0,0.3,0.1,0.6,0.2c0-0.1,0-0.3,0-0.4
			c-0.1,0-0.3,0-0.4,0L57.2,107.9z M130.4,124.6c0-2,1-3,3-3c1.7,0,2.7,0.9,3,2.6c0.8,0,1.8-0.1,3-0.2c3.1-0.1,5.2-0.3,6.6-0.4
			c0-5.6-0.1-9.7-0.4-12.5c-3.8,0.1-7.2,0.6-10.1,1.4c-0.8,0.1-1.6,0-2.3-0.4c-0.7-0.4-1.2-1-1.5-1.8c-0.3-1.5,0.2-2.6,1.4-3.4
			c-0.4-0.7-0.5-1.4-0.4-2.2c3-14.7,5.6-26,7.6-33.8c-3.3-0.3-8.4,0.5-15.1,2.4c-0.1,0.1-0.3,0.2-0.4,0.2
			c-3.4,14.1-5.2,26.3-5.2,36.6c0,2-1,3-3,3c-1.3,0-2.3-0.6-2.8-1.8c-4.5-0.4-9-0.1-13.3,0.8c-0.8,0.1-1.5,0-2.2-0.5
			c-0.7-0.5-1.1-1.1-1.4-1.9c-0.1-0.9,0.1-1.8,0.8-2.6c-0.1,0-0.3,0-0.4,0c-0.8-0.3-1.4-0.7-1.9-1.4c-0.5-0.7-0.6-1.4-0.5-2.2
			c0.9-3.7,2.1-9.4,3.4-16.9c0.9-6.1,1.7-10.7,2.4-13.7c-5.3,1.3-8.9,2.2-10.7,2.6h-0.2c-3.6,9.4-6.7,21.9-9.4,37.4
			c-0.1,0.8-0.5,1.4-1.2,1.9c-0.7,0.5-1.4,0.6-2.3,0.5c-0.9-0.1-1.5-0.5-2-1.2c-0.5-0.7-0.6-1.5-0.5-2.4c-2.1-0.1-5.7-0.2-10.7-0.2
			c-0.1,2.9-0.5,6.5-1.2,10.7h10.9c1.7,0,2.7,0.9,3,2.6c0.7-1.2,1.7-1.7,3-1.6c0.8,0.1,1.5,0.5,2,1.2c0.5,0.7,0.7,1.4,0.6,2.2
			c-1.9,13-4,22.4-6.4,28.2c-0.8,1.9-2.1,2.4-4,1.6c-1.9-0.8-2.4-2.1-1.6-4c-4.6,0-8.2-0.1-10.7-0.2c-0.1,0.5-0.2,1.3-0.2,2.4
			c0,1.1,0,1.8,0,2.2c0,2.7-0.1,4.9-0.4,6.8c3.4,0.4,7.9,0.8,13.3,1.2c1.3,0.1,2.2,0.8,2.6,2c0.5,0.7,0.8,1.4,0.8,2.2
			c-0.3,3.7-1.1,9.9-2.6,18.7c-1.1,6.1-1.7,10.9-2,14.5h11.3c0-0.1,0-0.3,0-0.6c0.3-1.7,1.1-6.3,2.4-13.8c1.3-7.5,1.9-13.2,1.8-17.2
			c-0.3-0.4-0.4-0.9-0.4-1.4c0-0.4,0.1-0.7,0.2-1c0-0.4-0.1-0.8-0.2-1.2c-0.1-0.8,0.1-1.5,0.6-2.2c0.5-0.7,1.2-1.1,2-1.2
			c0.8-0.1,1.5,0.1,2.2,0.6c0.7,0.5,1.1,1.2,1.2,2h14.3c0.4-0.3,0.9-0.4,1.4-0.4c0.8,0,1.5,0.3,2.1,0.9c0.6,0.6,0.9,1.3,0.9,2.1
			c0,8.5-1.3,20-3.8,34.4c1.1,0,2.9-0.1,5.6-0.4c2.9-0.3,5.2-0.4,6.8-0.4c0-0.1,0-0.3,0-0.4c0.5-4.4,1.5-10.8,2.8-19.3
			c0.9-5.7,1.6-9.9,2-12.7c-0.8-0.7-1.1-1.5-1-2.4c0.1-1.2,0.7-2,1.6-2.4c0.1-0.5,0.2-1.1,0.2-1.8c0.1-0.8,0.5-1.5,1.1-2
			c0.6-0.5,1.3-0.7,2.2-0.6c0.9,0.1,1.6,0.5,2.1,1.1c0.5,0.6,0.7,1.4,0.6,2.3c0,0.3-0.1,0.5-0.2,0.8c0.8,0,1.7,0,2.8,0
			c4.6-0.1,7.2-0.2,7.6-0.2c0.7,0,1.3,0.2,1.8,0.6c0-6,0.2-11.2,0.6-15.7c-4.9-0.1-8.6,0.1-10.9,0.8v0.2c-0.8,0.8-1.8,1.1-3,1
			c-0.8-0.1-1.4-0.6-1.9-1.3c-0.5-0.7-0.6-1.5-0.5-2.3c2-10.5,3.1-16.2,3.2-17.1c-1.2-0.4-1.9-1.2-2.2-2.4c-0.1-0.8,0-1.5,0.5-2.2
			c0.5-0.7,1.1-1.1,1.9-1.4h0.2C130.4,124.9,130.4,124.7,130.4,124.6z M95.2,206c1.1,0.4,2.2,0.7,3.4,1c0.5-2.5,1.3-4.4,2.2-5.8
			c0.1-0.1,0.3-0.2,0.4-0.2c2-11.9,3.1-21.6,3.4-28.8H92.2c0,4.1-0.7,9.9-2,17.3c-1.3,7.4-2.1,11.7-2.2,12.9
			c-0.1,0.9-0.6,1.7-1.4,2.2v0.2h7.6c0.7,0,1,0.3,1,1V206z M108.5,152.5H91c-2,0-3-1-3-3c0-0.7,0.2-1.3,0.6-1.8
			c-0.1-0.4-0.2-0.9-0.2-1.4c0.1-2.7,0.7-6.1,1.8-10.3c1.1-4,1.7-6.4,1.8-7.2c-0.5-0.5-0.8-1.2-0.8-2c0-2,1-3,3-3c0.4,0,0.7,0,1,0
			h0.2h0.2c4.5,0,9.5,0.1,14.9,0.4c0.5-0.3,1.2-0.4,2-0.4c1.1,0.1,1.8,0.7,2.2,1.6c0.5,0.7,0.8,1.4,0.8,2.2c0,0.7-0.2,1.2-0.6,1.6
			c-0.5,4.1-1.6,10.4-3.2,18.9c0.3,0.4,0.4,0.9,0.4,1.4c0,2-1,3-3,3H108.5z M105.9,146.5c1.3-7.3,2.3-12.7,2.8-16.3
			c-3.8-0.1-7.5-0.3-10.9-0.4c-0.1,1.1-0.7,3.6-1.8,7.6c-0.9,3.8-1.5,6.9-1.6,9.2H105.9z M116.3,69.9c-0.4,0-0.6-0.2-0.6-0.6
			c0-0.4,0.2-0.6,0.6-0.6c-1.1,0-2.6,0-4.7,0.1c-2.1,0.1-3.5,0.2-4.5,0.3c0.3,0.4,0.3,0.9,0.2,1.4c-0.9,3.7-2.1,9.4-3.4,17.1
			c-1.3,7.7-2.4,13.4-3.2,17.1c-0.1,0.5-0.3,0.9-0.6,1.2c4.4-0.8,8.8-1,13.3-0.6c0.4-9.2,2.1-19.7,5-31.6c-0.3,0-0.5,0-0.6,0
			c-0.7-0.3-0.9-0.7-0.8-1.2c0.3-0.9,0.5-1.8,0.8-2.6C117.3,69.9,116.8,69.9,116.3,69.9z M100.4,209.6c0-0.1,0.1-0.3,0.2-0.4
			c-0.1,0-0.3,0-0.4,0c0,0.1,0,0.3,0,0.4H100.4z M122.1,65.1c-0.1,0.1-0.3,0.3-0.4,0.4h0.2C121.9,65.4,121.9,65.3,122.1,65.1z
			 M122.5,212.3c0.3-0.9,0.5-1.8,0.6-2.6h-0.2C122.7,210.8,122.6,211.7,122.5,212.3z M148.9,147.9l-0.2,0.2l0.2,0.2
			C148.9,148.2,148.9,148,148.9,147.9z M151.7,127.6c0-0.3,0-0.5,0-0.8c0,0.3-0.1,0.5-0.2,0.8H151.7z"/>
	</g>
</g>
</svg>
